<svg xmlns="http://www.w3.org/2000/svg" xmlns:xlink="http://www.w3.org/1999/xlink" viewBox="0 0 100 100"><defs><style>.cls-1{fill:url(#linear-gradient);}</style><linearGradient id="linear-gradient" x1="4.04" y1="50" x2="95.96" y2="50" gradientUnits="userSpaceOnUse"><stop offset="0" stop-color="#797879"/><stop offset="0.5" stop-color="#010101"/><stop offset="1" stop-color="#797879"/></linearGradient></defs><title>alarms</title><g id="Group_4" data-name="Group 4"><path id="alarms" class="cls-1" d="M50.47,15.57A42.22,42.22,0,1,0,92.68,57.78,42.21,42.21,0,0,0,50.47,15.57Zm0,78.61a36.4,36.4,0,1,1,36.39-36.4A36.44,36.44,0,0,1,50.47,94.18ZM68.57,13.3c.43-.49,1.3-1.48,2.22-2.35,6.36-6.55,13.64-2.61,16-.79s3.4,3,5.73,4.86c7.13,7.21,1.12,15.16,0,16.4L91.35,32.6A48.25,48.25,0,0,0,68.57,13.3ZM8.65,32.6,7.47,31.42C6.35,30.18.34,22.23,7.47,15c2.33-1.82,3.37-3,5.73-4.86s9.65-5.76,16,.79c.92.87,1.79,1.86,2.22,2.35A48.25,48.25,0,0,0,8.65,32.6Zm41.78-5.39A30.57,30.57,0,1,0,81,57.78,30.61,30.61,0,0,0,50.43,27.21ZM38.15,68.83l-3.07-4.95L46.52,56.8,36.08,38.88l5-2.93,13.3,22.82Zm9.41-63H42.34V0H58.59V5.82H53.38V11H47.56Z"/></g></svg>