<svg xmlns="http://www.w3.org/2000/svg" xmlns:xlink="http://www.w3.org/1999/xlink" viewBox="0 0 100 100"><defs><style>.cls-1{fill:url(#linear-gradient);}</style><linearGradient id="linear-gradient" y1="50" x2="100" y2="50" gradientUnits="userSpaceOnUse"><stop offset="0" stop-color="#797879"/><stop offset="0.5" stop-color="#010101"/><stop offset="1" stop-color="#797879"/></linearGradient></defs><title>artefacts</title><g id="Layer_1" data-name="Layer 1"><path class="cls-1" d="M100,33.38l-6.14-10.8,3-3.37L74,5.15H26L3.14,19.21l3,3.37L0,33.38l2.81,1.19L.92,45l18,2.42.57-3.47,2.34,4.3,3.05,37.32,25,9.29,25.28-9.29,3.15-37.48,2.34-3.95.54,3.28,18-2.42L97.19,34.57Zm-7.32-2.72-7,3.05L85,32.59l5.36-6ZM57.79,10.17l-8,6.49-8.2-6.49ZM9.66,26.55l5.36,6-.67,1.12-7-3.05Zm5.06,15.24L6.8,40.72l.75-4.16,7.51,3.17ZM16.1,26.24l-5.24-5.89L24.46,12l4.39,6.68ZM26.76,47.45l4.49-2.39h0l2.54,30.61-.2.55.25.09.62,7.48h0L29.58,82Zm36.39,7.71L50,59.9,37,55.11l-.81-9.33L50,50.85l14-5Zm-25.6,6.58L50,66.31l12.58-4.54-.85,9.84L50,75.83l-11.6-4.26ZM50,44.44,39.57,40.61l10.24-5.47,10.53,5.58ZM39.64,85.71,39,78.2l11,4,11.15-4-.64,7.35L49.82,89.5ZM70.36,82l-4.68,1.72,3.19-38.44,4.38,2.32ZM75.4,43,52.16,30.71,49.8,29.46l-2.36,1.26L24.61,42.91l-3-5.55L24.69,27l11.24-6.68-6.36-9.67.14-.45H33.5L47.3,21.09v4.62h5V21.07l13.44-10.9h4.59l.12.39-6.4,9.73,11.65,6.93,3.14,10ZM71.15,18.66,75.54,12l13.6,8.37L83.9,26.24ZM85.28,41.79l-.34-2.06,7.51-3.17.75,4.16Z"/></g></svg>