<svg id="Group_1" data-name="Group 1" xmlns="http://www.w3.org/2000/svg" xmlns:xlink="http://www.w3.org/1999/xlink" viewBox="0 0 100 100"><defs><style>.cls-1{fill:url(#linear-gradient);}</style><linearGradient id="linear-gradient" x1="0.03" y1="50" x2="99.97" y2="50" gradientUnits="userSpaceOnUse"><stop offset="0" stop-color="#797879"/><stop offset="0.5" stop-color="#010101"/><stop offset="1" stop-color="#797879"/></linearGradient></defs><title>challenges</title><g id="challenges"><path class="cls-1" d="M100,0H82.09L50,32,17.9,0H0V17.73L32.18,49.88,23,59.1l-5.22-5.22-3.53,3.54,9,9L0,89.54,10.53,100,33.67,76.9l9,9,3.53-3.55-5.43-5.43L50,67.7l9.23,9.22-5.49,5.49L57.24,86l9-9L89.46,100,100,89.54,76.82,66.4l9-9-3.53-3.55-5.22,5.23-9.23-9.23L100,17.73ZM19.39,23V19.46h3.52L42.76,39.29l-3.54,3.54ZM10.53,93,7.1,89.54l1-1,5.81,1Zm7.57-7.57-5.82-1,3.39-3.39,5.82,1Zm7.56-7.56-5.81-1,4.28-4.28,3.43,3.43ZM92.89,89.54,89.46,93l-3.39-3.39,5.82-1Zm-5.18-5.19-5.81,1L78.51,82l5.81-1ZM75.86,72.51l4.28,4.28-5.81,1-1.9-1.91Zm-6.31-6.42L66,69.62l-9-9,3.53-3.53ZM34,69.62l-3.53-3.53,46-46H80v3.47Z"/></g></svg>