<svg id="Group_1" data-name="Group 1" xmlns="http://www.w3.org/2000/svg" xmlns:xlink="http://www.w3.org/1999/xlink" viewBox="0 0 100 100"><defs><style>.cls-1{fill:url(#linear-gradient);}</style><linearGradient id="linear-gradient" x1="6.06" y1="50" x2="93.94" y2="50" gradientUnits="userSpaceOnUse"><stop offset="0" stop-color="#797879"/><stop offset="0.5" stop-color="#010101"/><stop offset="1" stop-color="#797879"/></linearGradient></defs><title>club</title><g id="club"><path class="cls-1" d="M93.92,58.49l-.18-1.19c-.14-.88-.28-1.79-.46-2.69a46.18,46.18,0,0,0-5.7-14.17,30.46,30.46,0,0,1-3.3-7.7C83,27.67,83.73,23.51,86.59,20A38.82,38.82,0,0,1,90,16.66c.39-.35.76-.7,1.09-1l.68-.64-.44-.82c-.45-.83-3.63-6.09-5.21-8.68L84.32,2.57l-.83-1.35-.59-1-1,.53-1.33.69L77.8,2.91a24.42,24.42,0,0,1-11,2.72,24.65,24.65,0,0,1-5.08-.54A24.15,24.15,0,0,1,51.3.5,2,2,0,0,0,50,0a2.27,2.27,0,0,0-1.25.43l-.68.47a25.1,25.1,0,0,1-3.18,1.94A26.85,26.85,0,0,1,33.36,5.64a24.32,24.32,0,0,1-9.5-2c-1.31-.55-2.57-1.2-3.9-1.89-.62-.32-1.24-.65-1.88-1l-1-.5-.59,1L8.71,14l-.52.86.74.68s2.3,2.09,3.33,3.14a13,13,0,0,1,4,10.93,25.74,25.74,0,0,1-3.72,10.59C8.44,47.29,6.39,53.5,6.1,59.77A24.38,24.38,0,0,0,8.58,72.41c1.93,3.77,5,7,9.75,10A95.9,95.9,0,0,0,31.84,89.3l1.05.47,1.48.65a61.92,61.92,0,0,1,10.26,5.31c1.55,1.07,4.58,3.6,4.61,3.62L50,100l.77-.63s.51-.42.76-.61c.52-.4,1-.82,1.52-1.23a20.12,20.12,0,0,1,3.2-2.31c4.68-2.47,9.38-4.69,13.36-6.53l.6-.28C75,86.18,80,83.89,84.36,80.55,89,77,91.88,72.9,93.07,68.1c.26-1,.44-2.07.61-3.08.08-.45.15-.9.24-1.35l0-.12v-5Zm-71.77-27A19.28,19.28,0,0,0,16.23,14.1l-.29-.3,2.87-4.7.52-.87a30.76,30.76,0,0,0,14,3.45c.46,0,.93,0,1.4,0A33.83,33.83,0,0,0,50,7a34.42,34.42,0,0,0,16.64,4.64A31.7,31.7,0,0,0,80.69,8.24L84,13.66l-1,1.22A42.25,42.25,0,0,0,80,19.13a17.57,17.57,0,0,0-2.23,11.29c.57,5.65,3.12,10.5,5.47,14.61A34.07,34.07,0,0,1,87.83,59c.7,7.62-2,13.36-8.13,17.54A93.57,93.57,0,0,1,65,84.08l-1.2.53a76.56,76.56,0,0,0-11.44,5.83c-.75.5-1.45,1-2.12,1.55l-.18.14L49,91.36a38,38,0,0,0-4.29-2.65c-3.19-1.59-6.47-3.09-9.64-4.55l-4.58-2.11c-4.26-2-8.73-4.21-12.46-7.4-4.41-3.79-6.31-8.84-5.8-15.44.39-5.05,2.16-10,5.73-16.18A31.8,31.8,0,0,0,22.15,31.46ZM50,85.86a83,83,0,0,0-12.17-6.19l-2.47-1.09A68.35,68.35,0,0,1,23,72c-3.27-2.39-5-5-5.49-8.3a21.86,21.86,0,0,1,.85-9.54,42.31,42.31,0,0,1,4-8.78A36.41,36.41,0,0,0,27,33.07a22.86,22.86,0,0,0-4.2-18.13c1.28.42,2.59.82,3.94,1.13a32.72,32.72,0,0,0,7.15.8,35.79,35.79,0,0,0,14.22-3.1c.71-.31,1.35-.61,1.94-.9a37.4,37.4,0,0,0,9.26,3.25,35.14,35.14,0,0,0,7,.73A33.54,33.54,0,0,0,77.19,15a22.65,22.65,0,0,0-3.94,8.5,25.52,25.52,0,0,0,1.57,15.79c1,2.3,2.1,4.48,3.19,6.58.57,1.08,1.14,2.17,1.68,3.27a28.83,28.83,0,0,1,3,10.05c.58,6-1.56,10.27-6.74,13.58a86.18,86.18,0,0,1-10.53,5.45L63.74,79c-4.2,2-8.38,4.07-12.43,6.11l-.21.1C50.7,85.43,50.32,85.65,50,85.86Z"/></g></svg>