<svg xmlns="http://www.w3.org/2000/svg" xmlns:xlink="http://www.w3.org/1999/xlink" viewBox="0 0 100 100"><defs><style>.cls-1{fill:url(#linear-gradient);}.cls-2{fill:url(#linear-gradient-2);}.cls-3{fill:url(#linear-gradient-3);}.cls-4{fill:url(#linear-gradient-4);}.cls-5{fill:url(#linear-gradient-5);}.cls-6{fill:url(#linear-gradient-6);}.cls-7{fill:url(#linear-gradient-7);}.cls-8{fill:url(#linear-gradient-8);}.cls-9{fill:url(#linear-gradient-9);}.cls-10{fill:url(#linear-gradient-10);}.cls-11{fill:url(#linear-gradient-11);}.cls-12{fill:url(#linear-gradient-12);}</style><linearGradient id="linear-gradient" x1="28.44" y1="23.04" x2="74.81" y2="23.04" gradientTransform="translate(25.5 -16.33) rotate(24.73)" gradientUnits="userSpaceOnUse"><stop offset="0" stop-color="#7c5536"/><stop offset="0.5" stop-color="#bf9973"/><stop offset="1" stop-color="#7c5536"/></linearGradient><linearGradient id="linear-gradient-2" x1="48.93" y1="47.6" x2="54.11" y2="47.6" xlink:href="#linear-gradient"/><linearGradient id="linear-gradient-3" x1="47.55" y1="91.91" x2="55.44" y2="91.91" xlink:href="#linear-gradient"/><linearGradient id="linear-gradient-4" x1="49.02" y1="62.83" x2="54.19" y2="62.83" xlink:href="#linear-gradient"/><linearGradient id="linear-gradient-5" x1="48.9" y1="71.53" x2="54.14" y2="71.53" xlink:href="#linear-gradient"/><linearGradient id="linear-gradient-6" x1="48.98" y1="75.64" x2="54.15" y2="75.64" xlink:href="#linear-gradient"/><linearGradient id="linear-gradient-7" x1="48.9" y1="79.73" x2="54.02" y2="79.73" xlink:href="#linear-gradient"/><linearGradient id="linear-gradient-8" x1="49.01" y1="67.42" x2="54.15" y2="67.42" xlink:href="#linear-gradient"/><linearGradient id="linear-gradient-9" x1="48.82" y1="83.84" x2="54.24" y2="83.84" xlink:href="#linear-gradient"/><linearGradient id="linear-gradient-10" x1="47.98" y1="9.47" x2="54.95" y2="9.47" xlink:href="#linear-gradient"/><linearGradient id="linear-gradient-11" x1="48.34" y1="58.64" x2="54.71" y2="58.64" gradientTransform="translate(106.41 6.96) rotate(90)" xlink:href="#linear-gradient"/><linearGradient id="linear-gradient-12" x1="38.7" y1="23.05" x2="64.35" y2="23.05" xlink:href="#linear-gradient"/></defs><title>dwarf32</title><g id="Layer_10" data-name="Layer 10"><path d="M78.35,50l-5.71-2.63c-.25-.12-.62-.23-.7-.44-.78-1.92-2.38-2.78-4.16-3.51S64.34,41.82,62.62,41l-3.24,1.79c-5.44,11.82-.72,1.56-6.24,13.57A2.66,2.66,0,0,0,53,59c.66,1.44-.22,2.39-2.48,3.29L40.21,84.55l.36.08A18.23,18.23,0,0,1,40.23,88a23.2,23.2,0,0,1-1.5,3.35c-1.51,3.24-3.75,4-7.08,2.52-1.55-.7-3.09-1.26-3.62-3.23a4.37,4.37,0,0,1,.13-3.51c.6-1.07,1-2.22,1.56-3.33.6-1.28,1-2.81,2.74-2.4l10.4-22.58c-.87-2.52-.85-2.49,1.68-4.24a3.28,3.28,0,0,0,.93-1.37c5.58-12.08.9-1.92,6.37-13.8l-.7-3.62c-2.21-1-4.6-2.13-7-3.21-.42-.19-1-.5-1.32-.39-3.49,1-5.77-1.63-8.86-2.59a14.74,14.74,0,0,1,.58-2.3Q39.84,15.67,45.2,4.11a14.3,14.3,0,0,1,1.09-1.63C49,3.87,52.38,3.86,54,7.13c.21.44.85.72,1.35,1,2.38,1.13,4.78,2.22,7.37,3.41.88-1.48,2-1.65,3.53-.85,1.82,1,3.74,1.81,5.65,2.62,1.36.59,2.34,1.31,1.49,3.14,2.68,1.24,5.23,2.43,7.8,3.58a2.27,2.27,0,0,0,1.34.28c3.52-.9,5.71,1.65,8.38,2.78C90.25,26,80.06,47.94,78.35,50ZM35.94,28.61c2.45.74,4.19,2.67,6.84,1.93.52-.15,1.25.33,1.84.6Q57.46,37,70.29,43c.67.31,1.55.64,1.85,1.21,1.25,2.42,3.71,2.55,5.72,3.52,2.31-3.73,10.51-22,10.86-24.32-1.79-.55-3.62-1.17-5.48-1.65-1-.27-2.27-.07-3.22-.49-8.42-3.8-16.8-7.69-25.18-11.57C54.17,9.35,53.23,9,53,8.47c-1.15-2.65-3.73-2.84-5.94-4Zm15,28.91,7.36-16c-.84-.44-1.55-.86-2.3-1.2s-1.53-.62-2.4-1l-7.36,16ZM31.78,83.4c-.81,1.76-1.57,3.26-2.2,4.8a2.36,2.36,0,0,0,1.15,3.29c2.75,1.65,4.57,1.87,5.63.69a.87.87,0,0,0,.15-.24c.79-1.75,1.57-3.51,2.36-5.27Zm10.81-20,5.37.69,1.22-3L44.62,59Zm2.71,6L40,68.63l-.87,2.26,5.3.65Zm-7.94,5.25,5.38.7.82-2.26-5.17-.66Zm3.51,4.45,1-2.19c-1.37-.22-2.56-.36-3.73-.6-1.6-.33-2.15.44-2.24,2.08Zm0-11.95,5.36.65.85-2.1-5.19-.76ZM39.37,82.84l.72-2.26-5.33-.69L34.07,82ZM71.26,15.31l.09-.24L65,12.16l-.1.23ZM50.5,59.81l0-.12L44.76,57l0,.13Z"/><path class="cls-1" d="M36.08,28.68,47.19,4.56c2.22,1.14,4.79,1.33,5.94,4,.24.56,1.18.88,1.85,1.19,8.39,3.88,16.76,7.76,25.18,11.56,1,.43,2.17.23,3.22.5,1.86.48,3.69,1.1,5.48,1.64C88.51,25.78,80.31,44,78,47.75c-2-1-4.47-1.09-5.72-3.52-.3-.57-1.18-.89-1.85-1.2Q57.61,37.09,44.76,31.2c-.59-.27-1.32-.74-1.84-.6C40.27,31.34,38.53,29.41,36.08,28.68ZM73.3,37.54c2-3.52,3.4-6.93,5-10.5L52,14.93A66.49,66.49,0,0,0,47.14,25.5Z"/><path class="cls-2" d="M51,57.59l-4.7-2.17,7.36-16c.87.35,1.65.62,2.4,1s1.46.76,2.3,1.2Z"/><path class="cls-3" d="M31.92,83.47,39,86.73c-.79,1.77-1.57,3.52-2.36,5.27a1,1,0,0,1-.14.24c-1.07,1.19-2.89,1-5.64-.68a2.36,2.36,0,0,1-1.15-3.29C30.35,86.72,31.11,85.22,31.92,83.47Zm4.58,5c-1.37-2.14-2-2.39-3.94-1.79C33.34,88.16,34.57,88.55,36.5,88.42Zm-5.19.26c1.45,2.15,2,2.38,4,1.77C34.39,89.14,33.21,88.71,31.31,88.68Z"/><path class="cls-4" d="M42.73,63.44l2-4.39,4.56,2.1-1.22,3Z"/><path class="cls-5" d="M45.44,69.44l-.83,2.17L39.31,71l.87-2.27Z"/><path class="cls-6" d="M37.51,74.69l1-2.22,5.17.66-.82,2.25Z"/><path class="cls-7" d="M41,79.14l-4.95-.71c.08-1.65.63-2.41,2.23-2.09,1.17.24,2.36.39,3.73.6Z"/><path class="cls-8" d="M41,67.19,42,65l5.19.77-.85,2.09Z"/><path class="cls-9" d="M39.51,82.9l-5.29-.8L34.91,80l5.32.69Z"/><path class="cls-10" d="M71.4,15.37l-6.33-2.91.1-.23,6.32,2.91Z"/><ellipse class="cls-11" cx="47.77" cy="58.48" rx="0.1" ry="4.51" transform="translate(-25.33 77.41) rotate(-65.27)"/><path d="M73.3,37.54l-26.16-12A66.49,66.49,0,0,1,52,14.93L78.25,27C76.7,30.61,75.25,34,73.3,37.54ZM49.23,24.67,72.52,35.39,75.94,28c-3.27-2.11-21.41-10.29-23.37-10.57Z"/><path d="M36.5,88.42c-1.93.13-3.16-.26-3.94-1.79C34.53,86,35.13,86.28,36.5,88.42Z"/><path d="M31.31,88.68c1.9,0,3.08.46,4,1.77C33.32,91.06,32.76,90.83,31.31,88.68Z"/><path class="cls-12" d="M49.23,24.67l3.34-7.28c2,.28,20.1,8.46,23.37,10.57l-3.42,7.43Z"/></g></svg>