<svg xmlns="http://www.w3.org/2000/svg" xmlns:xlink="http://www.w3.org/1999/xlink" viewBox="0 0 100 100"><defs><style>.cls-1{fill:url(#linear-gradient);}.cls-2{fill:url(#linear-gradient-2);}.cls-3{fill:url(#linear-gradient-3);}.cls-4{fill:url(#linear-gradient-4);}.cls-5{fill:url(#linear-gradient-5);}.cls-6{fill:url(#linear-gradient-6);}.cls-7{fill:url(#linear-gradient-7);}.cls-8{fill:url(#linear-gradient-8);}</style><linearGradient id="linear-gradient" x1="4.9" y1="15.39" x2="94.41" y2="67.07" gradientUnits="userSpaceOnUse"><stop offset="0" stop-color="#1d1d1b"/><stop offset="0.5" stop-color="#3c3c3b"/><stop offset="1" stop-color="#1d1d1b"/></linearGradient><linearGradient id="linear-gradient-2" x1="28.03" y1="54.87" x2="72.09" y2="80.31" gradientUnits="userSpaceOnUse"><stop offset="0" stop-color="#7c5536"/><stop offset="0.5" stop-color="#bf9973"/><stop offset="1" stop-color="#7c5536"/></linearGradient><linearGradient id="linear-gradient-3" x1="37.93" y1="42.35" x2="63.33" y2="57.02" gradientUnits="userSpaceOnUse"><stop offset="0" stop-color="#fff"/><stop offset="0.5" stop-color="#b2b2b2"/><stop offset="1" stop-color="#fff"/></linearGradient><linearGradient id="linear-gradient-4" x1="41.72" y1="27.95" x2="61.33" y2="39.27" gradientUnits="userSpaceOnUse"><stop offset="0" stop-color="#c6c6c6"/><stop offset="0.5" stop-color="#878787"/><stop offset="1" stop-color="#c6c6c6"/></linearGradient><linearGradient id="linear-gradient-5" x1="64.53" y1="19.17" x2="75.49" y2="25.49" xlink:href="#linear-gradient-3"/><linearGradient id="linear-gradient-6" x1="24.23" y1="16.91" x2="39.5" y2="25.72" xlink:href="#linear-gradient-3"/><linearGradient id="linear-gradient-7" x1="63.05" y1="40.63" x2="73.82" y2="51.4" xlink:href="#linear-gradient-2"/><linearGradient id="linear-gradient-8" x1="28.47" y1="42.8" x2="34.65" y2="48.98" xlink:href="#linear-gradient-2"/></defs><title>dwarf</title><g id="Dwarf"><path class="cls-1" d="M8.86,38.16v-1c0-11.06.06-14.46.09-25.52A11.4,11.4,0,0,1,20.43,0H79.57A11.54,11.54,0,0,1,91.05,11.6c0,11.2.06,14.35.09,25.55v1c0,.53,0,1.07,0,1.61v1.16q0,8.09,0,16.17l0,.46c0,.19,0,.38,0,.56,0,.53,0,1.07,0,1.6v1.21s-.09,8.81-.08,8.81A11.52,11.52,0,0,1,86,79.34C74.38,86.71,68,90.77,56.45,98.16a11.71,11.71,0,0,1-12.32.17C32.4,90.88,26.24,87,14.48,79.6a11.42,11.42,0,0,1-5.54-9.91c0-4-.06-4.75-.1-8.77V59.63l0-1.51c0-.36,0-.73,0-1.1V41c0-.43,0-.86,0-1.29S8.86,38.67,8.86,38.16Z"/><path class="cls-2" d="M32.4,79.63l2.34-4.1H25.37l3-7.82H20.61l11.5-12,9.34,8.11.72-1.21c.85-1.48,1.69-3,2.59-4.44a1.23,1.23,0,0,1,.86-.52c2.91,0,5.83,0,8.74,0a.94.94,0,0,1,.94.59c1,1.85,2.11,3.68,3.23,5.62l9.38-8.12,11.48,12H71.68l3,7.84H65.27l2.38,4.18c-1.87-.55-3.56-1-5.23-1.54a1.35,1.35,0,0,0-1.5.31c-3.51,3.1-7.06,6.15-10.59,9.22l-.32.25-3.51-3c-2.54-2.21-5.08-4.44-7.65-6.63a1.13,1.13,0,0,0-.91-.18c-1.57.41-3.13.89-4.7,1.34C33,79.49,32.83,79.53,32.4,79.63ZM47.08,59.89v2.85H53V59.89Z"/><path class="cls-3" d="M40.56,59.27c-1.46-1.38-2.76-2.79-4.25-4s-1.74-2.18-1-3.83a40.71,40.71,0,0,0,1.58-4.6c.79.22,1.54.41,2.28.66a.71.71,0,0,1,.34.51,2.69,2.69,0,0,0,2,2.66,3.08,3.08,0,0,0,3.34-.92A.86.86,0,0,1,46,49.47c.66.24,1.34.4,2.09.62l1.06-2.76L37.89,44l1.29-3.85A50,50,0,0,0,50,41.52a49.72,49.72,0,0,0,10.81-1.33L62.15,44,50.88,47.31l1.06,2.77c.76-.21,1.5-.38,2.21-.62a.78.78,0,0,1,1,.3,3.1,3.1,0,0,0,4.67.12,9,9,0,0,0,1-2.37l2.25-.63c.51,1.52,1,3,1.49,4.49.25.77.8,1.63.63,2.29s-1.06,1.18-1.65,1.75q-1.95,1.85-3.93,3.68s-.09,0-.22.07c-.66-1.22-1.36-2.44-2-3.69a1,1,0,0,0-1-.61c-4.28,0-8.55,0-12.82,0a1,1,0,0,0-1,.62C42,56.71,41.29,57.92,40.56,59.27Z"/><path class="cls-4" d="M62.79,36.72c-6.07,1.94-19.8,1.94-25.61,0,.77-1.62,1.47-3.25,2.29-4.82A26.23,26.23,0,0,1,49.6,21.61a1.18,1.18,0,0,1,1,.08A26.82,26.82,0,0,1,62.16,35.26C62.35,35.74,62.57,36.2,62.79,36.72Z"/><path class="cls-5" d="M71.1,9.31c2.4,3.35,4.55,6.77,5.17,10.89a8.54,8.54,0,0,1-3.18,8.2c-2.43,2-5.34,3.3-8,4.73l-4.42-7.24C67.75,22.8,70.25,16.6,71.1,9.31Z"/><path class="cls-6" d="M28.94,9.33a26.49,26.49,0,0,0,2.9,9.9,15.4,15.4,0,0,0,7.55,6.67L35,33.15c-2.73-1.45-5.68-2.73-8.14-4.84a8.63,8.63,0,0,1-2.94-8.8C24.65,15.67,26.67,12.44,28.94,9.33Z"/><path class="cls-7" d="M64.12,39.57l3.42-.85c.23.51.46,1,.67,1.49a52.56,52.56,0,0,1,3.45,10,5,5,0,0,1-.06,3.37l-2.37-2.28-1,.81C67.85,47.58,66,43.58,64.12,39.57Z"/><path class="cls-8" d="M31.63,52l-.81-.69-2.26,2.2c-.28-1.49,2.52-12,4-14.78l3.31.81c-.87,2.06-1.84,4-2.54,6.11S32.18,49.87,31.63,52Z"/></g></svg>