<svg xmlns="http://www.w3.org/2000/svg" viewBox="0 0 100 100"><defs><style>.cls-1{fill:#fff;}.cls-2{fill:#010101;}.cls-3{fill:#e94270;}.cls-4{fill:#a4182c;}.cls-5{fill:#a3a3a2;}.cls-6{fill:#555454;}</style></defs><title>dwarf33</title><g id="Layer_12" data-name="Layer 12"><g id="_Group_" data-name="&lt;Group&gt;"><g id="_Group_2" data-name="&lt;Group&gt;"><path class="cls-1" d="M80.28,27.33c-.32-.56-2.07-4,.27-11.3,2.71-8.45,7.89-12.16,7.93-12.19L93.79.18,87.34,0h-.15a32.13,32.13,0,0,0-18,6.34l.21-1.77L66,6.13c-.55.26-3.37,1.81-7.14,8.39A85.87,85.87,0,0,0,50,14a86.28,86.28,0,0,0-8.89.52C37.35,7.94,34.54,6.39,34,6.13l-3.4-1.56.2,1.77A32.13,32.13,0,0,0,12.83,0h-.15L6.21.18l5.32,3.65c.05,0,5.22,3.75,7.93,12.2,2.34,7.27.6,10.74.27,11.3a31.19,31.19,0,0,0-8.66,16.4c-1.29,7.36,1.15,11.86,1.18,12l1.44-2.92c.46,5.59,2.07,8.43,2.94,9.86-.28,9.16,2.85,12.31,3.22,12.65L24,79.16,23.77,77a28.52,28.52,0,0,0,8.17,7.36l3.68,1.92L35.44,85c.74,1.49,1.45,2.7,2,3.58a28.87,28.87,0,0,0,3.09,4.19c1.36,1.48,2.39,2.11,3.46,2.11a2.38,2.38,0,0,0,1.77-.77,3,3,0,0,0,.25-.32,40.14,40.14,0,0,0,2.28,3.73L50,100l1.72-2.44A42.83,42.83,0,0,0,54,93.83a2.09,2.09,0,0,0,.25.32,2.34,2.34,0,0,0,1.77.77c1.06,0,2.1-.63,3.45-2.11a29.62,29.62,0,0,0,3.1-4.19c.54-.88,1.25-2.09,2-3.58l-.18,1.19,3.68-1.92A28.81,28.81,0,0,0,76.25,77L76,79.16l4.18-3.84a8.7,8.7,0,0,0,2-3.28,24.49,24.49,0,0,0,1.25-9.37,21.9,21.9,0,0,0,3.1-9.86l1.66,2.84a24,24,0,0,0,.8-11.92A31,31,0,0,0,80.28,27.33ZM73,13a21.75,21.75,0,0,0-1.24,6,16.16,16.16,0,0,0-4-1.63A33.84,33.84,0,0,1,73,13ZM32.22,17.32A16.25,16.25,0,0,0,28.27,19,21.38,21.38,0,0,0,27,13,32.9,32.9,0,0,1,32.22,17.32ZM22,35.6c.33.92.64,1.53.66,1.59l.26.52L20,38.5A18,18,0,0,1,22,35.6ZM20.89,45.76a13.92,13.92,0,0,1,1.3-4.14l1.43-2.54,1.08,2.17-.23.18A16.67,16.67,0,0,0,20.89,45.76ZM34.3,64.5c-.39,1.86-1.73,3.15-2.69,3.15-.71,0-1.54-.73-2.29-2l-2.52.82A6.72,6.72,0,0,1,25.35,64a19.73,19.73,0,0,1-.66-6.18c1.72,4.15,4,7,6.77,8.61L34,63.13a11.16,11.16,0,0,1-2.17-3.34,2.1,2.1,0,0,1,1.51-.9h0s.17,0,.37.26C34.41,60,34.81,62.08,34.3,64.5Zm8.87,11.36c-.14.24-.27.49-.39.74-.26-.4-.5-.79-.7-1.16.37.15.74.28,1.1.41ZM50,81.6a17.27,17.27,0,0,1-2.88-4.86,19.51,19.51,0,0,0,2.58.17h.6a19.61,19.61,0,0,0,2.58-.17A17.82,17.82,0,0,1,50,81.6Zm7.22-5c-.12-.25-.25-.49-.39-.73h0c.36-.13.72-.26,1.09-.41A13,13,0,0,1,57.23,76.59Zm2-12a4.59,4.59,0,0,1-3.13,1.8,7.8,7.8,0,0,1-1.32.12,3.74,3.74,0,0,1-3.15-1.39L50,63l-1.66,2.14a3.76,3.76,0,0,1-3.16,1.39,7.89,7.89,0,0,1-1.32-.12,4.54,4.54,0,0,1-3.12-1.8,2.31,2.31,0,0,1-.36-1.82c.32-1.28,1.92-2,5.61-3.25a13.92,13.92,0,0,0,4-2,13.79,13.79,0,0,0,4,2c3.69,1.24,5.28,2,5.61,3.25A2.31,2.31,0,0,1,59.27,64.56ZM45.77,53.22l0-.21a32.25,32.25,0,0,1,.92-3.19,15.08,15.08,0,0,1,2.54-4.29l.73-.8.72.8a14.79,14.79,0,0,1,2.54,4.3A26.89,26.89,0,0,1,54.19,53l.05.21a5.91,5.91,0,0,1-2.35-2.3L50,47.21l-1.88,3.71A5.88,5.88,0,0,1,45.77,53.22Zm15.81,1.46a2.54,2.54,0,0,1-1.1-1.46c0-.08,0-.16-.07-.23l.64.47L59.6,47.77a36.33,36.33,0,0,0-1.87-5.33,13.34,13.34,0,0,1,1.94.18,19.94,19.94,0,0,0,3.2.27,9.92,9.92,0,0,0,6-1.6L68,39.43a6.54,6.54,0,0,0,1.44-1.49,4.58,4.58,0,0,0,.73-2h1.17a10.66,10.66,0,0,0-1.12-6.34A3.69,3.69,0,0,0,67,27.81c-3.3,0-7.1,3.69-8.59,5.28-.79.84-1.42,1.45-1.92,1.89a13.55,13.55,0,0,1,2.06-4.93l-3.2-2.68a14.91,14.91,0,0,0-3.38,4.87c-.14.34-.27.68-.4,1a9.28,9.28,0,0,1-1.35,2.69h-.32a9.27,9.27,0,0,1-1.36-2.69l-.4-1a14.75,14.75,0,0,0-3.38-4.87l-3.2,2.68A13.79,13.79,0,0,1,43.58,35c-.5-.44-1.14-1-1.93-1.89-1.48-1.59-5.28-5.28-8.59-5.28a3.67,3.67,0,0,0-3.23,1.77,10.61,10.61,0,0,0-1.13,6.34h1.17a4.58,4.58,0,0,0,.73,2,6.81,6.81,0,0,0,1.45,1.49l-.91,1.86a10,10,0,0,0,6,1.6,19.94,19.94,0,0,0,3.2-.27,13.08,13.08,0,0,1,1.93-.18,37.74,37.74,0,0,0-1.87,5.33L39,53.46l.65-.47a2,2,0,0,0-.07.23,2.54,2.54,0,0,1-1.11,1.46,7.58,7.58,0,0,0-5.26-2.16,8.55,8.55,0,0,0-3.58.82,24.32,24.32,0,0,1-1.68-10.1l.45-5-2,1.67.31-3.45A22.93,22.93,0,0,1,31,24.56,15.42,15.42,0,0,1,34.56,21h0l-.79-2c.4.48.61.77.62.78l3.31,4.59.27-3A40.16,40.16,0,0,1,40.82,27l4.06-1a39.92,39.92,0,0,0-.81-4.79A24.83,24.83,0,0,1,47.6,21a15.05,15.05,0,0,1,2.07.12l.32.06.35-.06A15.13,15.13,0,0,1,52.42,21a24.7,24.7,0,0,1,3.52.27,44.39,44.39,0,0,0-.81,4.79l4.07,1a37.68,37.68,0,0,1,2.86-5.68l.26,3,3.31-4.56s.23-.3.63-.78l-.79,2h0a15.42,15.42,0,0,1,3.59,3.58,23,23,0,0,1,4.31,11.88l.31,3.45-2-1.67.44,5a23.88,23.88,0,0,1-1.67,10.1,8.6,8.6,0,0,0-3.59-.82A7.58,7.58,0,0,0,61.58,54.68ZM74.67,64a6.74,6.74,0,0,1-1.46,2.45l-2.52-.82c-.74,1.28-1.58,2-2.29,2-1,0-2.29-1.29-2.68-3.15-.51-2.42-.11-4.52.54-5.35.21-.26.33-.26.38-.26h0a2.1,2.1,0,0,1,1.51.9A11.16,11.16,0,0,1,66,63.13l2.54,3.31c2.77-1.57,5-4.46,6.77-8.61A20.35,20.35,0,0,1,74.67,64Zm.87-22.58-.23-.18,1.08-2.16,1.43,2.53a13.63,13.63,0,0,1,1.31,4.14A16.75,16.75,0,0,0,75.54,41.43Zm1.54-3.72.26-.52c0-.06.33-.67.67-1.59a17.39,17.39,0,0,1,2,2.9Z"/><path id="_Compound_Path_" data-name="&lt;Compound Path&gt;" class="cls-2" d="M78.55,15.38c3-9.32,8.74-13.27,8.74-13.27a30.07,30.07,0,0,0-20.61,9.25s.07-1.9.23-3.32c0,0-2.87,1.33-6.86,8.73a90.64,90.64,0,0,0-10-.66,90.7,90.7,0,0,0-10,.66C36,9.37,33.11,8,33.11,8c.16,1.42.22,3.32.22,3.32a30,30,0,0,0-20.6-9.25s5.75,4,8.74,13.27-.1,13.28-.1,13.28C10.7,39.43,12.92,51.45,12.92,51.45a7.89,7.89,0,0,1,2.56-3.76C15,57,18.76,62.08,18.76,62.08c-.43,9,2.51,11.69,2.51,11.69a5.91,5.91,0,0,1,.58-3.43c5.07,9,11.06,12.1,11.06,12.1A17.24,17.24,0,0,1,34,74.78c2.52,11.46,10.63,20.6,10.34,17.39a13.81,13.81,0,0,1,.8-5.87,38,38,0,0,0,4.9,10,38.14,38.14,0,0,0,4.89-10,13.72,13.72,0,0,1,.81,5.87c-.29,3.21,7.82-5.93,10.33-17.39a17.24,17.24,0,0,1,1.06,7.66s6-3.12,11.06-12.1a5.91,5.91,0,0,1,.58,3.43s3-2.71,2.51-11.69c0,0,3.82-5.12,3.29-14.39a7.91,7.91,0,0,1,2.55,3.76s2.23-12-8.45-22.79C78.64,28.66,75.55,24.71,78.55,15.38ZM36.36,64.93c-.87,4.12-5.51,7.53-8.86,1.77a7.31,7.31,0,0,0,1.58,3.7,9.41,9.41,0,0,1-5.73-5.73c-1.48-4.44-.64-12.91.74-17.32,0,0,1.51,13.36,8.41,17.26a12.37,12.37,0,0,1-3-5.15s1.32-2.74,3.9-2.67S37.23,60.81,36.36,64.93ZM56.29,81a11.33,11.33,0,0,0-1.26-4s-.8,3.41-5,7.85c-4.22-4.44-5-7.85-5-7.85a11.1,11.1,0,0,0-1.26,4c-5.25-5-5.31-10.38-5.31-10.38C42.91,75.12,50,74.8,50,74.8s7.1.32,11.59-4.22C61.6,70.58,61.53,75.94,56.29,81ZM41.86,69.89a13.81,13.81,0,0,0,4.26.26A10,10,0,0,0,50,68.58a10,10,0,0,0,3.88,1.57,13.77,13.77,0,0,0,4.26-.26S55.8,72.58,50,72.58,41.86,69.89,41.86,69.89ZM56.5,68.43c-4,.7-5.82-1.18-6.49-2.05-.68.87-2.49,2.75-6.5,2.05s-5.79-3.72-5.17-6.2,3.19-3.46,7-4.74,4.68-3,4.68-3,.89,1.76,4.68,3,6.35,2.25,7,4.74S60.51,67.73,56.5,68.43Zm-11.68-23C46.21,38.85,50,40,50,40s3.79-1.19,5.18,5.43a12.19,12.19,0,0,0-2.9-1.36,17.12,17.12,0,0,1,3,5c1.09,2.92,1.3,6.11,2.58,7.63,0,0-5.82-.89-7.82-4.85-2,4-7.83,4.85-7.83,4.85,1.28-1.52,1.5-4.71,2.59-7.63a17,17,0,0,1,2.95-5A12.19,12.19,0,0,0,44.82,45.47Zm31.84,19.2a9.41,9.41,0,0,1-5.73,5.73,7.21,7.21,0,0,0,1.58-3.7c-3.35,5.76-8,2.35-8.85-1.77s.35-8.08,2.93-8.14,3.89,2.67,3.89,2.67a12.4,12.4,0,0,1-3,5.15c6.89-3.9,8.4-17.26,8.4-17.26C77.31,51.76,78.14,60.23,76.66,64.67ZM84.2,43.34a9.92,9.92,0,0,0-4.54-2.75s3.67,6.52.29,12.65c0,0-1.55-6.71-5.75-10.18a25.35,25.35,0,0,1-2.9,13.27s-5-4.34-9.12.81a4.84,4.84,0,0,1-3.72-3.32,20.59,20.59,0,0,0-3-6.56,6.45,6.45,0,0,1,2.14,1,30.81,30.81,0,0,0-3.11-7.57A11.77,11.77,0,0,1,60,40.55c3.54.57,6.3.06,7.57-.92a8.87,8.87,0,0,1-4.39,0s3.36-1.18,4.48-2.84c.82-1.21.2-3.38-.12-4.59a7.14,7.14,0,0,1,1.68,3.46,8.72,8.72,0,0,0-.84-5c-1.24-2-5.14.26-8.49,3.85s-4.71,3.81-5.26,3.56S53.45,34,56.73,28.91A12.57,12.57,0,0,0,53.87,33c-1,2.5-1.75,5.15-3.86,5-2.11.16-2.83-2.49-3.87-5a12.57,12.57,0,0,0-2.86-4.13c3.28,5.09,2.62,8.93,2.09,9.17s-1.91,0-5.26-3.56-7.25-5.87-8.48-3.85a8.72,8.72,0,0,0-.84,5,7.07,7.07,0,0,1,1.67-3.46c-.32,1.21-.94,3.38-.12,4.59,1.13,1.66,4.49,2.84,4.49,2.84a8.91,8.91,0,0,1-4.4,0c1.28,1,4,1.49,7.58.92a11.74,11.74,0,0,1,5.55.17,30.81,30.81,0,0,0-3.11,7.57,6.55,6.55,0,0,1,2.15-1,20.79,20.79,0,0,0-3.05,6.56,4.82,4.82,0,0,1-3.71,3.32c-4.12-5.15-9.13-.81-9.13-.81a25.4,25.4,0,0,1-2.89-13.27c-4.21,3.47-5.75,10.18-5.75,10.18-3.38-6.13.29-12.65.29-12.65a9.85,9.85,0,0,0-4.54,2.75c2.51-8.93,7.38-11.59,7.38-11.59a15.49,15.49,0,0,0,1.36,4.5c1.11-12.27,8.88-17,8.88-17A13.23,13.23,0,0,0,26,23.5c1.35-10.38-4.64-15.75-4.64-15.75A33.6,33.6,0,0,1,36.09,18.56,17.53,17.53,0,0,0,35.91,15,41.77,41.77,0,0,1,42.79,26.3a37.6,37.6,0,0,0-1.33-6.67A24.25,24.25,0,0,1,50,19.05a24.19,24.19,0,0,1,8.54.58,38.18,38.18,0,0,0-1.32,6.67A41.77,41.77,0,0,1,64.11,15a16.78,16.78,0,0,0-.18,3.61A33.53,33.53,0,0,1,78.64,7.75s-6,5.37-4.63,15.75a13.28,13.28,0,0,0-7.44-4.3S74.35,24,75.46,36.25a15.29,15.29,0,0,0,1.35-4.5S81.69,34.41,84.2,43.34Zm-24.07-5a28.67,28.67,0,0,1,2.17-3.21,11.16,11.16,0,0,1,3.35-2.74c.78,1.48,1,3.85-.77,4.83a13,13,0,0,1-4.64,1.12Zm-20.24,0h-.12a13,13,0,0,1-4.64-1.12c-1.78-1-1.54-3.35-.77-4.83a11.14,11.14,0,0,1,3.36,2.74A30.45,30.45,0,0,1,39.89,38.3Z"/><path id="_Path_" data-name="&lt;Path&gt;" class="cls-2" d="M57.94,65.07a3.43,3.43,0,0,1-3.31.57,2.88,2.88,0,0,1-1.56-1.41,8,8,0,0,1-.7-2.2,16.64,16.64,0,0,1-.28-3c.81,1.57,3.06,1.67,4.53,2.06a2.91,2.91,0,0,1,1.5.84A2.36,2.36,0,0,1,57.94,65.07Z"/><path id="_Path_2" data-name="&lt;Path&gt;" class="cls-2" d="M47.93,59a15.78,15.78,0,0,1-.29,3,8,8,0,0,1-.7,2.2,2.81,2.81,0,0,1-1.56,1.41,3.43,3.43,0,0,1-3.31-.57,2.38,2.38,0,0,1-.18-3.13,3,3,0,0,1,1.5-.84C44.87,60.71,47.12,60.61,47.93,59Z"/></g><g id="_Group_3" data-name="&lt;Group&gt;"><path id="_Compound_Path_2" data-name="&lt;Compound Path&gt;" class="cls-3" d="M61.67,62.23c-.63-2.49-3.19-3.46-7-4.74s-4.68-3-4.68-3h0s0,0,0,.07a.25.25,0,0,1-.05.08h0c-.32.47-1.49,1.84-4.58,2.88-3.8,1.28-6.36,2.25-7,4.74s1.16,5.5,5.17,6.2,5.82-1.18,6.5-2.05c.67.87,2.49,2.75,6.49,2.05S62.3,64.71,61.67,62.23Zm-19.6,2.84a2.38,2.38,0,0,1-.18-3.13,3,3,0,0,1,1.5-.84c1.48-.39,3.73-.49,4.54-2.06a15.78,15.78,0,0,1-.29,3,8,8,0,0,1-.7,2.2,2.81,2.81,0,0,1-1.56,1.41A3.43,3.43,0,0,1,42.07,65.07Zm15.87,0a3.43,3.43,0,0,1-3.31.57,2.88,2.88,0,0,1-1.56-1.41,8,8,0,0,1-.7-2.2,16.64,16.64,0,0,1-.28-3c.81,1.57,3.06,1.67,4.53,2.06a2.91,2.91,0,0,1,1.5.84A2.36,2.36,0,0,1,57.94,65.07Z"/><path id="_Path_3" data-name="&lt;Path&gt;" class="cls-3" d="M61.6,70.58S61.53,75.94,56.29,81a11.33,11.33,0,0,0-1.26-4s-.8,3.41-5,7.85c-4.22-4.44-5-7.85-5-7.85a11.1,11.1,0,0,0-1.26,4c-5.25-5-5.31-10.38-5.31-10.38a12.77,12.77,0,0,0,3.78,2.61A18.73,18.73,0,0,0,50,74.8S57.11,75.12,61.6,70.58Z"/><path id="_Path_4" data-name="&lt;Path&gt;" class="cls-3" d="M58.15,69.89S55.8,72.58,50,72.58a16.21,16.21,0,0,1-2.75-.22h0a.58.58,0,0,1-.19,0,9.33,9.33,0,0,1-5.21-2.43,13.81,13.81,0,0,0,4.26.26A9.92,9.92,0,0,0,50,68.59h0a10,10,0,0,0,3.88,1.57A13.77,13.77,0,0,0,58.15,69.89Z"/><path id="_Path_5" data-name="&lt;Path&gt;" class="cls-3" d="M57.83,56.72S52,55.83,50,51.87c-1.95,3.83-7.47,4.79-7.81,4.85h0c1.28-1.52,1.5-4.71,2.59-7.63a17,17,0,0,1,2.95-5,12.19,12.19,0,0,0-2.9,1.36c1.08-5.15,3.62-5.57,4.69-5.5A2,2,0,0,1,50,40s3.79-1.19,5.18,5.43a12.19,12.19,0,0,0-2.9-1.36,17.12,17.12,0,0,1,3,5C56.34,52,56.55,55.2,57.83,56.72Z"/><path id="_Path_6" data-name="&lt;Path&gt;" class="cls-3" d="M79.66,40.59s3.67,6.52.29,12.65c0,0-1.55-6.71-5.75-10.18a25.35,25.35,0,0,1-2.9,13.27s-5-4.34-9.12.81a4.84,4.84,0,0,1-3.72-3.32,20.59,20.59,0,0,0-3-6.56,6.45,6.45,0,0,1,2.14,1,30.81,30.81,0,0,0-3.11-7.57A11.77,11.77,0,0,1,60,40.55c3.54.57,6.3.06,7.57-.92a8.87,8.87,0,0,1-4.39,0s3.36-1.18,4.48-2.84c.82-1.21.2-3.38-.12-4.59a7.14,7.14,0,0,1,1.68,3.46,8.72,8.72,0,0,0-.84-5c-1.24-2-5.14.26-8.49,3.85s-4.71,3.81-5.26,3.56S53.45,34,56.73,28.91A12.57,12.57,0,0,0,53.87,33c-1,2.5-1.75,5.15-3.86,5-1.15.09-1.89-.66-2.49-1.76-.5-.92-.91-2.09-1.38-3.23a12.58,12.58,0,0,0-2.85-4.12l.45.73v0c2.76,4.71,2.14,8.18,1.63,8.41s-1.91,0-5.26-3.56-7.25-5.87-8.48-3.85a8.72,8.72,0,0,0-.84,5,7.07,7.07,0,0,1,1.67-3.46c-.32,1.21-.94,3.38-.12,4.59,1.13,1.66,4.49,2.84,4.49,2.84a8.91,8.91,0,0,1-4.4,0c1.28,1,4,1.49,7.58.92a11.74,11.74,0,0,1,5.55.17,30.81,30.81,0,0,0-3.11,7.57,6.55,6.55,0,0,1,2.15-1,20.79,20.79,0,0,0-3.05,6.56,4.82,4.82,0,0,1-3.71,3.32c-4.12-5.15-9.13-.81-9.13-.81a25.4,25.4,0,0,1-2.89-13.27c-4.21,3.47-5.75,10.18-5.75,10.18-3.38-6.13.29-12.65.29-12.65a9.85,9.85,0,0,0-4.54,2.75c2.51-8.93,7.38-11.59,7.38-11.59a15.49,15.49,0,0,0,1.36,4.5c1.09-12.08,8.64-16.9,8.88-17h0A13.23,13.23,0,0,0,26,23.5c1.35-10.38-4.64-15.75-4.64-15.75A33.46,33.46,0,0,1,36.08,18.56h0A17.53,17.53,0,0,0,35.91,15,41.77,41.77,0,0,1,42.79,26.3a37.6,37.6,0,0,0-1.33-6.67A24.25,24.25,0,0,1,50,19.05a24.19,24.19,0,0,1,8.54.58,38.18,38.18,0,0,0-1.32,6.67A41.77,41.77,0,0,1,64.11,15a16.78,16.78,0,0,0-.18,3.61A33.53,33.53,0,0,1,78.64,7.75s-6,5.37-4.63,15.75a13.28,13.28,0,0,0-7.44-4.3S74.35,24,75.46,36.25a15.29,15.29,0,0,0,1.35-4.5s4.88,2.66,7.39,11.59A9.92,9.92,0,0,0,79.66,40.59Z"/></g><g id="_Group_4" data-name="&lt;Group&gt;"><path id="_Path_7" data-name="&lt;Path&gt;" class="cls-4" d="M42.2,56.72a11.86,11.86,0,0,0,8.07-7.34,4.79,4.79,0,0,0,3,2.09,26.27,26.27,0,0,0-3.43-9.53,6.57,6.57,0,0,1,1.86.32A4.7,4.7,0,0,0,50,40s3.79-1.19,5.18,5.43a12.19,12.19,0,0,0-2.9-1.36,17.12,17.12,0,0,1,3,5c1.09,2.92,1.3,6.11,2.58,7.63,0,0-5.82-.89-7.82-4.85C48.06,55.7,42.54,56.66,42.2,56.72Z"/><path id="_Path_8" data-name="&lt;Path&gt;" class="cls-4" d="M59.57,72.22c-.86,5.84-3.13,8.56-3.28,8.73h0a11.33,11.33,0,0,0-1.26-4s-.8,3.41-5,7.85a12.9,12.9,0,0,0,1.61-8.34,12.29,12.29,0,0,0,4.59-1.64,14.26,14.26,0,0,1-6.2,0A18,18,0,0,0,59.57,72.22Z"/><path id="_Compound_Path_3" data-name="&lt;Compound Path&gt;" class="cls-4" d="M54,57.25c-3.22-1.25-4-2.8-4-2.8s.16,9.36,3.86,11.54a4.73,4.73,0,0,1-3.7-2.17A8,8,0,0,0,51.94,67s-.58.26-1.93-.64c.67.87,2.49,2.75,6.49,2.05a4.88,4.88,0,0,0,.55-.12,5.65,5.65,0,0,0,3.39-5.18C60.63,59.07,56.47,59,54,57.25Zm3.93,7.82a3.43,3.43,0,0,1-3.31.57,2.88,2.88,0,0,1-1.56-1.41,8,8,0,0,1-.7-2.2,16.64,16.64,0,0,1-.28-3c.81,1.57,3.06,1.67,4.53,2.06a2.91,2.91,0,0,1,1.5.84A2.36,2.36,0,0,1,57.94,65.07Z"/><path id="_Path_9" data-name="&lt;Path&gt;" class="cls-4" d="M78.27,38.3a19.69,19.69,0,0,1,0,10.34,16.13,16.13,0,0,0-4.08-5.58C73,50.74,70.1,53.92,70.1,53.92c-6.83-2.06-7.92,3.22-7.92,3.22a4.84,4.84,0,0,1-3.72-3.32,20.59,20.59,0,0,0-3-6.56,6.45,6.45,0,0,1,2.14,1,35.48,35.48,0,0,0-1.7-4.87,1.68,1.68,0,0,1,1.39-1.8c1.77-.55,2.54.39,5.58.55a5.71,5.71,0,0,0,4.75-2.54h0a8.81,8.81,0,0,1-4.38,0s3.36-1.18,4.48-2.84c.82-1.21.2-3.38-.12-4.59a7.14,7.14,0,0,1,1.68,3.46c2.44-3.05,1.64-9-1.48-8.78s-4.48,2.47-8.54,7.37c-3.83,4.62-4.65,3.79-4.73,3.69v0c-.46-.86-.69-4.42,2.25-9A12.57,12.57,0,0,0,53.87,33c-1,2.5-1.75,5.15-3.86,5-1.15.09-1.89-.66-2.49-1.76h0a2.46,2.46,0,0,0,3.54-.18c1.16-1.35,3-6.67,1.21-12.07s-10.82-4.4-10.82-4.4A24.25,24.25,0,0,1,50,19.05a24.19,24.19,0,0,1,8.54.58,38.18,38.18,0,0,0-1.32,6.67h0c.12-.15,3.61-4.85,4.75-6.37l.39,2.27a41.78,41.78,0,0,1,8-7.29,24.5,24.5,0,0,1,5-2.37A20.24,20.24,0,0,0,74,23.5a13.28,13.28,0,0,0-7.44-4.3S74.35,24,75.46,36.25a15.29,15.29,0,0,0,1.35-4.5A25.28,25.28,0,0,1,80.46,39,5.17,5.17,0,0,0,78.27,38.3Z"/><path id="_Path_10" data-name="&lt;Path&gt;" class="cls-4" d="M50,72.58a15.23,15.23,0,0,1-2.94-.26,9.13,9.13,0,0,0,4.36-1.27A5.37,5.37,0,0,1,50,68.58a10,10,0,0,0,3.88,1.57,13.77,13.77,0,0,0,4.26-.26S55.8,72.58,50,72.58Z"/></g><g id="_Group_5" data-name="&lt;Group&gt;"><path id="_Path_11" data-name="&lt;Path&gt;" class="cls-1" d="M19.17,39a17.85,17.85,0,0,1,3.09-.68s-2.18,5.6-1.81,9.05a15.8,15.8,0,0,1,7.18-6.69,34.65,34.65,0,0,0,1.08,15.67,25.4,25.4,0,0,1-2.89-13.27c-4.21,3.47-5.75,10.18-5.75,10.18-3.38-6.13.29-12.65.29-12.65a9.85,9.85,0,0,0-4.54,2.75c2.51-8.93,7.38-11.59,7.38-11.59a15.49,15.49,0,0,0,1.36,4.5c1.09-12.08,8.64-16.9,8.88-17-.21.23-7.71,8.72-8.28,19.78a30.36,30.36,0,0,1-3-3.65S19.75,37.31,19.17,39Z"/><path id="_Path_12" data-name="&lt;Path&gt;" class="cls-1" d="M26.38,11.94a17,17,0,0,1,1.73,7.86,30.92,30.92,0,0,1,5.33-.6A13.23,13.23,0,0,0,26,23.5c1.35-10.38-4.64-15.75-4.64-15.75A33.46,33.46,0,0,1,36.08,18.56C35.91,18.38,30.5,12.83,26.38,11.94Z"/><path id="_Path_13" data-name="&lt;Path&gt;" class="cls-1" d="M43.73,81c-5.25-5-5.31-10.38-5.31-10.38a12.77,12.77,0,0,0,3.78,2.61C42,74.49,41.57,78.14,43.73,81Z"/><path id="_Path_14" data-name="&lt;Path&gt;" class="cls-1" d="M31.63,30.67a8.72,8.72,0,0,0-.84,5s-2-5.86,1.35-6.92,5.94,2.46,8,4.73,3.72,3.6,4.68,3.63.07-5.1-1-7.4c2.76,4.71,2.14,8.18,1.63,8.41s-1.91,0-5.26-3.56S32.86,28.65,31.63,30.67Z"/><path id="_Path_15" data-name="&lt;Path&gt;" class="cls-1" d="M50,68.59A10,10,0,0,1,46,71a3,3,0,0,0,1.31,1.36.58.58,0,0,1-.19,0,9.33,9.33,0,0,1-5.21-2.43,13.81,13.81,0,0,0,4.26.26A9.92,9.92,0,0,0,50,68.59Z"/><path id="_Path_16" data-name="&lt;Path&gt;" class="cls-1" d="M38.34,62.23c.63-2.49,3.19-3.46,7-4.74,3.09-1,4.26-2.41,4.58-2.88-.35.55-1.72,2.37-5.25,4-4.21,1.93-5.29,4.08-4.77,6.33S45.64,69,50,66.38c-.68.87-2.49,2.75-6.5,2.05S37.72,64.71,38.34,62.23Z"/><path id="_Path_17" data-name="&lt;Path&gt;" class="cls-1" d="M44.82,45.47c1.08-5.15,3.62-5.57,4.69-5.5a5.32,5.32,0,0,0-2.88,3.57,10.17,10.17,0,0,1,2.07-.7,26.64,26.64,0,0,0-1.64,4.27,27.52,27.52,0,0,1-2.12,6.08,9.77,9.77,0,0,1-2.74,3.53h0c1.28-1.52,1.5-4.71,2.59-7.63a17,17,0,0,1,2.95-5A12.19,12.19,0,0,0,44.82,45.47Z"/></g><g id="_Group_6" data-name="&lt;Group&gt;"><g id="_Group_7" data-name="&lt;Group&gt;"><path id="_Path_18" data-name="&lt;Path&gt;" class="cls-1" d="M76.66,64.67a9.41,9.41,0,0,1-5.73,5.73,7.21,7.21,0,0,0,1.58-3.7c-3.35,5.76-8,2.35-8.85-1.77-.75-3.51,0-6.91,1.88-7.87a2.22,2.22,0,0,1,1-.27c2.57-.07,3.89,2.67,3.89,2.67a12.4,12.4,0,0,1-3,5.15c6.89-3.9,8.4-17.26,8.4-17.26a0,0,0,0,1,0,0,.43.43,0,0,0,0,.1C77.32,51.93,78.13,60.27,76.66,64.67Z"/><path id="_Path_19" data-name="&lt;Path&gt;" class="cls-5" d="M77.44,59.06a19.41,19.41,0,0,1-.78,5.61,9.41,9.41,0,0,1-5.73,5.73,7.21,7.21,0,0,0,1.58-3.7c-2.16,3.71-4.84,3.62-6.72,2a6.93,6.93,0,0,1-2.13-3.75c-.75-3.51,0-6.91,1.88-7.87a3.4,3.4,0,0,1,2.95,2.17,4.38,4.38,0,0,0-2-.71s1.92,3.21-.88,7.88c0,0,6.23.19,8.38-5.24a10.65,10.65,0,0,1-.53,3.92s2.89-1.94,3.26-7.94A35.33,35.33,0,0,0,76,47.55,41.5,41.5,0,0,1,77.44,59.06Z"/><path id="_Path_20" data-name="&lt;Path&gt;" class="cls-6" d="M77.44,59.06a19.41,19.41,0,0,1-.78,5.61,9.41,9.41,0,0,1-5.73,5.73,7.21,7.21,0,0,0,1.58-3.7c-2.16,3.71-4.84,3.62-6.72,2,1,.34,4.78,1.16,6.88-3.73,0,0,.2,1.14.31,2.39C73,67.34,76.43,66.31,77.44,59.06Z"/></g><g id="_Group_8" data-name="&lt;Group&gt;"><path id="_Path_21" data-name="&lt;Path&gt;" class="cls-1" d="M36.36,64.93A7.22,7.22,0,0,1,34.86,68c-1.86,2.2-4.95,2.81-7.36-1.34a7.31,7.31,0,0,0,1.58,3.7,9.41,9.41,0,0,1-5.73-5.73c-1.48-4.44-.64-12.91.74-17.32,0,0,1.51,13.36,8.41,17.26a12.37,12.37,0,0,1-3-5.15s1.32-2.74,3.9-2.67S37.23,60.81,36.36,64.93Z"/><path id="_Path_22" data-name="&lt;Path&gt;" class="cls-5" d="M36.36,64.93c0,.14-.07.29-.11.43s-.13.44-.21.65a7.3,7.3,0,0,1-1.18,2c-4.34,2.19-6.58-3-6.58-3A6.14,6.14,0,0,0,33,66.48c-8.85-4.34-8.87-19-8.87-19.13S25.6,60.71,32.5,64.61h0a12.3,12.3,0,0,1-3-5.14,5.68,5.68,0,0,1,2-2.15,3.55,3.55,0,0,1,1.94-.52C36,56.85,37.23,60.81,36.36,64.93Z"/><path id="_Path_23" data-name="&lt;Path&gt;" class="cls-6" d="M36.36,64.93c0,.14-.07.29-.11.43.21-6.18-3.85-7.06-3.85-7.06a5.15,5.15,0,0,1,1.7,0,3.49,3.49,0,0,0-2.61-1,3.55,3.55,0,0,1,1.94-.52C36,56.85,37.23,60.81,36.36,64.93Z"/></g><g id="_Group_9" data-name="&lt;Group&gt;"><path id="_Path_24" data-name="&lt;Path&gt;" class="cls-1" d="M39.89,38.3h-.12s-.38,0-1-.08a11.42,11.42,0,0,1-3.69-1L35,37.09c-1.39-.88-1.41-2.66-.91-4.07a4,4,0,0,1,.28-.67,11.14,11.14,0,0,1,3.36,2.74,30.32,30.32,0,0,1,2,2.89Z"/><path id="_Path_25" data-name="&lt;Path&gt;" class="cls-5" d="M39.89,38.3h-.12s-.38,0-1-.08a6.92,6.92,0,0,0-1.5-2.09c-.79-.84-2-1.72-2.54-1.34s.11,1.48.11,1.48a2.51,2.51,0,0,1-.48-.39A3.17,3.17,0,0,0,35,37.09c-1.39-.88-1.41-2.66-.91-4.07a4,4,0,0,1,.28-.67,11.14,11.14,0,0,1,3.36,2.74,30.32,30.32,0,0,1,2,2.89Z"/><path id="_Path_26" data-name="&lt;Path&gt;" class="cls-6" d="M37.72,35.09a30.32,30.32,0,0,1,2,2.89,16.82,16.82,0,0,0-5.62-5,4,4,0,0,1,.28-.67A11.14,11.14,0,0,1,37.72,35.09Z"/></g><g id="_Group_10" data-name="&lt;Group&gt;"><path id="_Path_27" data-name="&lt;Path&gt;" class="cls-1" d="M64.93,37.15l-.05,0a11.33,11.33,0,0,1-3.85,1c-.48.06-.79.07-.79.07h-.1a26.91,26.91,0,0,1,2.16-3.2,11.16,11.16,0,0,1,3.35-2.74,5.09,5.09,0,0,1,.41,1C66.43,34.77,66.29,36.37,64.93,37.15Z"/><path id="_Path_28" data-name="&lt;Path&gt;" class="cls-5" d="M64.93,37.15a4.9,4.9,0,0,0,.58-1.36,2.06,2.06,0,0,1-.56.32,1.88,1.88,0,0,0,.5-1.17c-2.63.2-4.11,2.7-4.42,3.29-.48.06-.79.07-.79.07h-.1a26.91,26.91,0,0,1,2.16-3.2,11.16,11.16,0,0,1,3.35-2.74,5.09,5.09,0,0,1,.41,1C66.43,34.77,66.29,36.37,64.93,37.15Z"/><path id="_Path_29" data-name="&lt;Path&gt;" class="cls-6" d="M66.06,33.4c-3.42,1-5.71,4.65-5.92,4.89a26.91,26.91,0,0,1,2.16-3.2,11.16,11.16,0,0,1,3.35-2.74A5.09,5.09,0,0,1,66.06,33.4Z"/></g></g></g></g></svg>