<svg xmlns="http://www.w3.org/2000/svg" viewBox="0 0 100 100"><defs><style>.cls-1{fill:#fff;}</style></defs><title>dwarf30</title><g id="Layer_10" data-name="Layer 10"><path d="M75.7,34.85H69.07c-.29,0-.7,0-.87-.11-1.58-1.49-3.5-1.61-5.53-1.53s-4,0-6,0l-2.32,3.14V52.12a2.87,2.87,0,0,0,1,2.58c1.28,1.09.85,2.39-.92,4.24V84.82l.38-.08a19.45,19.45,0,0,1,1.14,3.32,23.9,23.9,0,0,1,0,3.88c0,3.77-1.82,5.51-5.67,5.54-1.79,0-3.52.15-4.89-1.5A4.59,4.59,0,0,1,44,92.56c.1-1.29,0-2.59,0-3.88,0-1.49-.32-3.12,1.57-3.5V58.94c-1.94-2-1.91-2-.26-4.8a3.5,3.5,0,0,0,.29-1.72c0-14,0-2.23,0-16l-2.27-3.16c-2.56,0-5.34,0-8.11,0-.49,0-1.13-.06-1.45.21-2.89,2.5-6.24,1-9.63,1.43a14.44,14.44,0,0,1-.45-2.46q0-13.44,0-26.88a13.56,13.56,0,0,1,.34-2c3.21.13,6.44-1.36,9.4,1.07a3,3,0,0,0,1.72.31c2.78,0,5.56,0,8.56,0,.2-1.82,1.22-2.49,3-2.38,2.18.14,4.38.08,6.57,0,1.56,0,2.82.21,2.81,2.35,3.12,0,6.09,0,9.06,0a2.42,2.42,0,0,0,1.41-.33c3-2.41,6.19-.93,9.25-1C76.53,6.62,76.45,32.16,75.7,34.85ZM25.64,33.1c2.68-.38,5.2.71,7.41-1.17.43-.37,1.34-.24,2-.24q14.89,0,29.81,0a4.06,4.06,0,0,1,2.3.34c2.27,1.77,4.68.81,7,.84.57-4.59.38-25.69-.32-28.09-2,.27-4,.48-6,.84-1.12.2-2.19.94-3.29.94-9.75.08-19.49.06-29.23,0-.78,0-1.82.1-2.3-.33-2.27-2-4.83-1.08-7.46-1.19ZM52.73,54.21V35.65c-1-.06-1.87-.14-2.74-.14s-1.73.08-2.72.14V54.21Zm-6.9,33.23c0,2-.06,3.81,0,5.57a2.48,2.48,0,0,0,2.55,2.65c3.36.36,5.21-.23,5.7-1.84a.92.92,0,0,0,0-.29l-.06-6.09Zm1.53-24,5.45-1.7-.15-3.41h-5.3ZM52.6,68l-5.37,1.61.17,2.55,5.36-1.72Zm-5.29,8.53,5.46-1.71-.21-2.52L47.31,74Zm5.32,2.72V76.73c-1.41.4-2.61.78-3.83,1.07-1.68.4-1.87,1.37-1.23,3ZM47.34,67.83l5.43-1.74-.11-2.38-5.32,1.55Zm5.52,15.72-.31-2.48-5.41,1.68.29,2.37Zm.76-78.78,0-.26H46.26v.26Zm-.26,51.81v-.15H46.64v.15Z"/><path class="cls-1" d="M25.81,33.1v-28c2.63.11,5.18-.84,7.45,1.19.48.43,1.52.33,2.3.33,9.74,0,19.49,0,29.23,0,1.1,0,2.18-.74,3.3-.94,2-.36,4-.57,6-.84.7,2.4.89,23.5.32,28.09-2.35,0-4.76.93-7-.84a4.11,4.11,0,0,0-2.31-.34q-14.89,0-29.81,0c-.69,0-1.59-.13-2,.24C31,33.81,28.48,32.72,25.81,33.1Zm39.57-7.93a122.44,122.44,0,0,0,.12-12.25H35a69.63,69.63,0,0,0,0,12.25Z"/><path class="cls-1" d="M52.89,54.21H47.43V35.65c1-.06,1.86-.14,2.73-.14s1.74.08,2.73.14Z"/><path class="cls-1" d="M46,87.44h8.24c0,2,.05,4.06.07,6.09a.92.92,0,0,1,0,.29c-.49,1.61-2.34,2.2-5.7,1.84A2.49,2.49,0,0,1,46,93C45.93,91.25,46,89.48,46,87.44Zm6.58,2.73c-2.25-1.46-2.94-1.43-4.56,0C49.43,91.31,50.78,91.14,52.57,90.17Zm-4.86,2.54c2.34,1.41,3,1.38,4.58-.06C50.87,91.78,49.54,91.9,47.71,92.71Z"/><path class="cls-1" d="M47.52,63.48V58.37h5.31L53,61.78Z"/><path class="cls-1" d="M52.76,68l.17,2.44-5.37,1.72-.16-2.55Z"/><path class="cls-1" d="M47.48,76.56V74l5.24-1.65.22,2.52Z"/><path class="cls-1" d="M52.79,79.28l-5,1.5c-.65-1.61-.46-2.58,1.22-3,1.23-.29,2.43-.67,3.83-1.07Z"/><path class="cls-1" d="M47.51,67.83V65.26l5.31-1.55.11,2.38Z"/><path class="cls-1" d="M53,83.55,47.6,85.12l-.29-2.37,5.41-1.68Z"/><path class="cls-1" d="M53.78,4.77H46.43V4.51h7.33Z"/><ellipse class="cls-1" cx="50.16" cy="56.5" rx="4.76" ry="0.1"/><path d="M65.38,25.17H35a69.63,69.63,0,0,1,0-12.25H65.5A122.44,122.44,0,0,1,65.38,25.17ZM36.63,23.46H63.69V14.83c-4.07-.59-25.06-.42-27.06.18Z"/><path d="M52.57,90.17c-1.79,1-3.14,1.14-4.56,0C49.63,88.74,50.32,88.71,52.57,90.17Z"/><path d="M47.71,92.71c1.83-.81,3.16-.93,4.58-.06C50.69,94.09,50.05,94.12,47.71,92.71Z"/><path class="cls-1" d="M36.63,23.46V15c2-.6,23-.77,27.06-.18v8.63Z"/></g></svg>