<svg xmlns="http://www.w3.org/2000/svg" xmlns:xlink="http://www.w3.org/1999/xlink" viewBox="0 0 100 100"><defs><style>.cls-1{fill:url(#linear-gradient);}.cls-2{fill:url(#linear-gradient-2);}.cls-3{fill:url(#linear-gradient-3);}.cls-4{fill:url(#linear-gradient-4);}.cls-5{fill:url(#linear-gradient-5);}.cls-6{fill:url(#linear-gradient-6);}.cls-7{fill:url(#linear-gradient-7);}.cls-8{fill:url(#linear-gradient-8);}</style><linearGradient id="linear-gradient" x1="4.9" y1="15.39" x2="94.41" y2="67.07" gradientUnits="userSpaceOnUse"><stop offset="0" stop-color="#1d1d1b"/><stop offset="0.5" stop-color="#3c3c3b"/><stop offset="1" stop-color="#1d1d1b"/></linearGradient><linearGradient id="linear-gradient-2" x1="58.31" y1="54.35" x2="74.51" y2="63.7" gradientUnits="userSpaceOnUse"><stop offset="0" stop-color="#715336"/><stop offset="0.5" stop-color="#bd9771"/><stop offset="1" stop-color="#715336"/></linearGradient><linearGradient id="linear-gradient-3" x1="30.22" y1="55.94" x2="41.1" y2="62.22" xlink:href="#linear-gradient-2"/><linearGradient id="linear-gradient-4" x1="31.95" y1="34.35" x2="38.85" y2="38.33" xlink:href="#linear-gradient-2"/><linearGradient id="linear-gradient-5" x1="54.41" y1="31.14" x2="71.64" y2="41.09" xlink:href="#linear-gradient-2"/><linearGradient id="linear-gradient-6" x1="42.01" y1="17.48" x2="58.19" y2="26.82" gradientUnits="userSpaceOnUse"><stop offset="0" stop-color="#c6c6c6"/><stop offset="0.5" stop-color="#878787"/><stop offset="1" stop-color="#c6c6c6"/></linearGradient><linearGradient id="linear-gradient-7" x1="49.07" y1="20.97" x2="50.97" y2="22.06" gradientUnits="userSpaceOnUse"><stop offset="0" stop-color="#287130"/><stop offset="0.5" stop-color="#54a149"/><stop offset="1" stop-color="#287130"/></linearGradient><linearGradient id="linear-gradient-8" x1="22.19" y1="25.47" x2="69.07" y2="52.54" gradientUnits="userSpaceOnUse"><stop offset="0" stop-color="#fff"/><stop offset="0.5" stop-color="#c6c6c6"/><stop offset="1" stop-color="#fff"/></linearGradient></defs><title>elf</title><g id="Elf"><path class="cls-1" d="M8.86,38.16v-1c0-11.06.06-14.46.09-25.52A11.4,11.4,0,0,1,20.43,0H79.57A11.54,11.54,0,0,1,91.05,11.6c0,11.2.06,14.35.09,25.55v1c0,.53,0,1.07,0,1.61v1.16q0,8.09,0,16.17l0,.46c0,.19,0,.38,0,.56,0,.53,0,1.07,0,1.6v1.21s-.09,8.81-.08,8.81A11.52,11.52,0,0,1,86,79.34C74.38,86.71,68,90.77,56.45,98.16a11.71,11.71,0,0,1-12.32.17C32.4,90.88,26.24,87,14.48,79.6a11.42,11.42,0,0,1-5.54-9.91c0-4-.06-4.75-.1-8.77V59.63l0-1.51c0-.36,0-.73,0-1.1V41c0-.43,0-.86,0-1.29S8.86,38.67,8.86,38.16Z"/><path class="cls-2" d="M71.8,68.38c-3.42-.08-5-2.27-6.11-5.24-.3.6-.5,1-.72,1.41-.6,1.15-1.2,2.31-1.83,3.45-.11.2-.38.32-.57.48a3.68,3.68,0,0,1-.39-.58,47,47,0,0,1-2.9-11.31c-.14-1-.22-2-.3-3a.88.88,0,0,1,.15-.6,37.47,37.47,0,0,0,4.72-7.08c1.11,3.81,2.05,7.67,3.36,11.39S70.23,64.63,71.8,68.38Z"/><path class="cls-3" d="M36.25,45.9a32.24,32.24,0,0,0,4.58,7,.77.77,0,0,1,.18.48,48.85,48.85,0,0,1-3.29,14.64.51.51,0,0,1-.09.12,1.15,1.15,0,0,1-1-.71c-.62-1.07-1.2-2.17-1.79-3.26-.15-.28-.29-.57-.49-1-.32.63-.61,1.15-.86,1.69A5.69,5.69,0,0,1,29,68.33l-.36,0a1.76,1.76,0,0,1-.31,0c.67-1.38,1.31-2.73,2-4.07a48.62,48.62,0,0,0,4.22-12.37c.39-2,1-4,1.52-6.06Z"/><path class="cls-4" d="M43.16,27.08c-.78.92-1.56,1.75-2.23,2.65A39.69,39.69,0,0,0,35.81,40c-1,2.88-2,5.81-2.91,8.63-.73-3,2.15-19.78,4-22.81Z"/><path class="cls-5" d="M67.12,48.91c-.85-2.62-1.61-5.08-2.46-7.51a45.31,45.31,0,0,0-5-10.81c-.75-1.11-1.69-2.08-2.54-3.12l-.33-.38,6.47-1.29c.44,1.28.94,2.54,1.29,3.85a71.7,71.7,0,0,1,2,11.16c.26,2.41.42,4.83.62,7.25C67.14,48.28,67.12,48.5,67.12,48.91Z"/><path class="cls-6" d="M53.08,21.18c-.41-1.84-1-3.51-3.23-3.56-1.41,0-2.27,1.05-3,3.55-.79-.52-1.57-1-2.32-1.55a.67.67,0,0,0-.91,0c-1.27.88-2.57,1.72-3.86,2.58l-.49.3-.12-.13c.73-.8,1.44-1.62,2.2-2.38a15,15,0,0,1,5.21-3.44,9,9,0,0,1,6.62-.06,16.31,16.31,0,0,1,7.46,6c-.15-.09-.31-.17-.46-.27-1.32-.88-2.65-1.75-4-2.65a.61.61,0,0,0-.81,0C54.68,20.13,53.9,20.63,53.08,21.18Zm-5.32,3.28-3.49-2.35a.36.36,0,0,0-.32,0c-1.07.7-2.14,1.42-3.21,2.13l0,.2,7.41.55A3.64,3.64,0,0,0,47.76,24.46Zm11.45-.23c-1-.7-2.08-1.4-3.14-2.08a.61.61,0,0,0-.52.06c-1,.67-2.08,1.36-3.1,2.06a3.77,3.77,0,0,0-.56.57L52,25l7.24-.54Z"/><path class="cls-7" d="M50.9,21.5a4,4,0,0,1-.23,1.08,1.12,1.12,0,0,1-.7.58c-.2,0-.56-.29-.66-.53a2.69,2.69,0,0,1,.22-2.46c.29-.49.63-.5.9,0A9.15,9.15,0,0,1,50.9,21.5Z"/><path class="cls-8" d="M22.76,24.48c1.21.39,2.44.73,3.64,1.17a31.3,31.3,0,0,1,6.36,3.06.78.78,0,0,1,.38,1C32.53,33,32,36.23,31.38,39.49a.54.54,0,0,1-.09.28c-2.1-5.48-4.56-10.74-8.6-15.1Zm54.37.12A31.8,31.8,0,0,0,67,28.85c-.32.2-.28.43-.22.73.32,1.47.67,2.94.93,4.42.35,1.91.62,3.83,1,5.9,2.09-5.61,4.55-10.87,8.63-15.28A.77.77,0,0,0,77.13,24.6ZM57.91,61.69c-.52-2-.89-5.58-1-6.4-1.9,1.59-3.74,3.07-6.09,3.63a5.1,5.1,0,0,1-1.56,0c-2.4-.55-4.23-2.08-6.21-3.69,0,.63-.61,5.14-.81,6s-1.4,4.84-2.1,7.27H59.87C59.21,66.19,58.43,63.71,57.91,61.69Zm4.72-18.88a27.39,27.39,0,0,1-9.1,12.31c-.35.25-.73.45-1.08.7a4.13,4.13,0,0,1-5,0,24.17,24.17,0,0,1-6.65-6.49,26.71,26.71,0,0,1-3.37-6.27,1.5,1.5,0,0,1,0-1c.68-1.84,1.41-3.67,2.1-5.45.23-.48.63-1.23,1-2a14.89,14.89,0,0,0,2.78,1.93,5.19,5.19,0,0,0,3.13.21c1.09-.2,1.58-1.59,1.72-1.86s-.73-.52-1.51-.83a10.65,10.65,0,0,0-2.42-.57c-.83-.12-2.91-.21-2.91-.21h0l.16-.29c.37-.58.65-1,1-1.48a.73.73,0,0,1,.56-.23,9,9,0,0,1,3.77.88.48.48,0,0,0,.39,0L49,31.53a2.71,2.71,0,0,0-2-1.65c-.85-.27-1.72-.46-2.7-.71,1.16-.94,2.13-2,3.75-2,1.1,0,2.2.09,3.3,0a4.06,4.06,0,0,1,2.78.87c.5.36,1,.78,1.53,1.22-1.67.54-3.52.5-4.5,2.3l1.95.75a.54.54,0,0,0,.39,0,8.34,8.34,0,0,1,3.6-.84.43.43,0,0,1,.35.13c.34.47.65,1,.91,1.37.08.14.17.3.27.46-.27,0-2.07.1-2.83.21a10.45,10.45,0,0,0-2.41.57c-.77.31-1.64.56-1.5.83s.63,1.66,1.7,1.86a5.16,5.16,0,0,0,3.12-.21,14.4,14.4,0,0,0,2.68-1.87l1,1.93c.71,1.83,1.46,3.76,2.2,5.69A.76.76,0,0,1,62.63,42.81ZM48,42.15a1.76,1.76,0,0,0,.89,1.71,2,2,0,0,0,2.25-.08,1.67,1.67,0,0,0,.74-1.64A4.41,4.41,0,0,1,48,42.15ZM57.66,49s-3.87-.39-7.87-.39-7.45.18-7.45.18a29.38,29.38,0,0,0,4.43,1.72,17.06,17.06,0,0,0,6.41,0A24.14,24.14,0,0,0,57.66,49Z"/></g></svg>