<svg xmlns="http://www.w3.org/2000/svg" viewBox="0 0 100 100"><defs><style>.cls-1{fill:#40b0e5;}.cls-1,.cls-2,.cls-3,.cls-4,.cls-5{fill-rule:evenodd;}.cls-2{fill:#fff;}.cls-3{fill:#659fd2;}.cls-4{fill:#0a5ba4;}.cls-5{fill:#010101;}</style></defs><title>elf10</title><g id="Layer_11" data-name="Layer 11"><path class="cls-1" d="M54,99.62,55.69,94a13.08,13.08,0,0,0,.36-1.6,35,35,0,0,1-4.61,4.09l-1,.75-1-.74a35.7,35.7,0,0,1-4.6-4.1,13.13,13.13,0,0,0,.35,1.6l1.71,5.65-.64.38-4.16-4.19a38.22,38.22,0,0,1-7-9.28,16.52,16.52,0,0,1-1.52-4L33.45,82,38.6,69.4c-.05-.28-.1-.55-.16-.82C38,67.82,37.48,67,37,66A21.4,21.4,0,0,1,29.51,64a13.78,13.78,0,0,1-5.85-5.42,14.22,14.22,0,0,1-1-2.15l-.12-.33a13.12,13.12,0,0,1-.78-4.55l.1-3.49,2.84,2a17.28,17.28,0,0,0,10,3.49h0c.4,0,.82,0,1.25-.06L33.56,51l-4.63-.31-.36-.19a20.84,20.84,0,0,1-7.31-6.8A32.13,32.13,0,0,1,17,33.47l-.34-1.31,1,.94c.61.58,1.21,1.2,1.8,1.8,2.41,2.45,4.9,5,8.16,5.9l-.2-5.19A26.16,26.16,0,0,1,20.89,34a21.37,21.37,0,0,1-6.07-3.61c-3-2.55-4.52-5.6-6.13-8.84-.3-.6-.61-1.22-.93-1.84l.61-.44a24.65,24.65,0,0,0,12,6.87,24.81,24.81,0,0,1-4-10.51c-.72-4.49-.27-8.5.2-12.74C16.6,2,16.7,1,16.8.06L17.55,0c.23.89.45,1.81.66,2.71a44.68,44.68,0,0,0,3.44,10.57,42.37,42.37,0,0,0,9,11.13,49,49,0,0,0,5.5,4.42l.8.54.23,12L43,48.18,50.43,46l7.45,2.23,5.79-6.77.23-12,.79-.54a49,49,0,0,0,5.5-4.42,42.17,42.17,0,0,0,9-11.13A44.68,44.68,0,0,0,82.65,2.71c.22-.9.44-1.82.66-2.71l.75.06c.1,1,.21,1.92.31,2.84.47,4.25.92,8.25.21,12.74a25.05,25.05,0,0,1-4,10.52c4.55-1.09,6.46-2.46,10-5l1.13-.81.56.49c-.37.71-.7,1.4-1,2.07-1.31,2.71-2.54,5.27-5.17,7.5A21.45,21.45,0,0,1,80,34a26.24,26.24,0,0,1-6.53,1.6l-.2,5.19a13.12,13.12,0,0,0,5.5-3.2l4.61-4.44.63.41-2.21,6a21.9,21.9,0,0,1-9.49,10.91l-.35.19L67.3,51l-2.38,2.5c.42,0,.85.06,1.25.06h0a17.34,17.34,0,0,0,10-3.49L79,48l.1,3.49a12.92,12.92,0,0,1-.78,4.55l-.11.32a14.54,14.54,0,0,1-1,2.17A13.75,13.75,0,0,1,71.35,64,21.4,21.4,0,0,1,63.86,66c-.48.94-1,1.81-1.44,2.57-.05.27-.11.54-.15.82L67.42,82l-.11.54a17,17,0,0,1-1.53,4,38.16,38.16,0,0,1-7,9.28L54.62,100ZM44.84,86.28a11.64,11.64,0,0,0,1.34,2,28,28,0,0,0,4.25,4.27,28.59,28.59,0,0,0,4.26-4.27,12.27,12.27,0,0,0,1.34-2L58.13,82l1.35,4.56a11.9,11.9,0,0,1,.42,2.33,28.77,28.77,0,0,0,2.45-3.83,15.87,15.87,0,0,0,1.18-2.74l-2.64-6.47a7,7,0,0,0-.78.87,12.08,12.08,0,0,0-2,4.06l-.11.36c-.06.19-.12.38-.17.57-.27.89-.54,1.81-.89,2.66a4.14,4.14,0,0,1-1.3,1.87,5.41,5.41,0,0,1-2.1.77l-.61.1-.64,0a5,5,0,0,1-1.83-.33,5,5,0,0,1-1.82.33c-.22,0-.43,0-.65,0l-.61-.1a5.41,5.41,0,0,1-2.1-.77A4.14,4.14,0,0,1,44,84.39c-.34-.85-.62-1.77-.88-2.66-.06-.19-.12-.38-.17-.57l-.12-.36a12.08,12.08,0,0,0-2-4.06,7,7,0,0,0-.78-.87l-2.64,6.47a16.7,16.7,0,0,0,1.18,2.74A28.89,28.89,0,0,0,41,88.91a11.2,11.2,0,0,1,.42-2.33L42.73,82ZM52,83.42a1.39,1.39,0,0,0,.3,0l.24,0,.25,0h0a2,2,0,0,0,.49-.14,4.72,4.72,0,0,0,.61-1.44A4.64,4.64,0,0,1,52,83.42Zm-4.36-.18a1.9,1.9,0,0,0,.48.14h0l.25,0,.24,0a1.39,1.39,0,0,0,.3,0A4.64,4.64,0,0,1,47,81.8,4.28,4.28,0,0,0,47.59,83.24Zm-4.93-9.92a15.3,15.3,0,0,1,3.68,6.4l.11.36c0,.07,0,.16.08.28s.11.37.16.54L46.37,79H46.2l-.66-4.14L42.9,73.34l-.24-.14ZM54.17,80.9c0-.17.11-.35.16-.54s.06-.21.08-.28l.11-.36a15.41,15.41,0,0,1,3.68-6.4V73.2l-.24.14-2.63,1.49L54.66,79h-.17ZM47.92,77a6.43,6.43,0,0,0,5,0l.68-.34-.39-3.12a28.32,28.32,0,0,1-.3-3.67,19.51,19.51,0,0,1,.78-5.07v-.05l0,0a12.41,12.41,0,0,1,3.54-5l-.58-1.26A10,10,0,0,1,56,55.63a11.61,11.61,0,0,1,.24-4.07l-5.78-1.73-5.77,1.73a11.61,11.61,0,0,1,.23,4.07,10,10,0,0,1-.73,2.78l-.58,1.26a12.41,12.41,0,0,1,3.54,5l0,0v.05a19.51,19.51,0,0,1,.78,5.07,30.11,30.11,0,0,1-.29,3.67l-.39,3.12ZM42.17,68.1a41.61,41.61,0,0,0,2.26,3.55l.75,1.07a11.46,11.46,0,0,0-1.91-4.55Zm15.42.07a11.75,11.75,0,0,0-1.91,4.55l.76-1.07c.77-1.09,1.53-2.29,2.26-3.55Zm6.54-9.58a23,23,0,0,0,7.52-2.16,18.55,18.55,0,0,1-5.44.82h-.55l-.62,0ZM29.21,56.43a23,23,0,0,0,7.52,2.16l-.91-1.38-.61,0h-.56A18.55,18.55,0,0,1,29.21,56.43ZM39.3,57,39,56.69l-.29.08Zm22.26,0,.58-.23-.29-.08ZM35.25,47.37l6,6.28a8.25,8.25,0,0,0-.63-2.53l-7.1-8.31-.22-11.47a61.44,61.44,0,0,1-6.72-5.71,50.62,50.62,0,0,1-5.63-6.5,20.67,20.67,0,0,0,1.58,3.54,16.27,16.27,0,0,0,4,4.74l4.68,3.72-6-.41a32.36,32.36,0,0,1-3.55-.48l-.34-.06A22.45,22.45,0,0,0,29.31,32l1.68.1.5,12.71H29.55a10.47,10.47,0,0,1-2.31-.32c-.23-.05-.45-.1-.67-.17A16,16,0,0,0,30,47Zm25,3.75a8,8,0,0,0-.63,2.53l6-6.28L70.87,47a16,16,0,0,0,3.43-2.67c-.23.07-.45.12-.67.17a10.55,10.55,0,0,1-2.31.32H69.38l.49-12.71,1.69-.1a22.4,22.4,0,0,0,7.93-1.86l-.34.06a32,32,0,0,1-3.55.48l-6,.41,4.68-3.72a16.4,16.4,0,0,0,4-4.74,19.23,19.23,0,0,0,1.58-3.54,49.85,49.85,0,0,1-5.63,6.5,59.62,59.62,0,0,1-6.72,5.71l-.21,11.47Z"/><path class="cls-1" d="M56.75,71.87,55,74.3l.12-.79a12.58,12.58,0,0,1,2.23-5.71l1.91-.13-.06.25A43,43,0,0,1,56.75,71.87Zm1.85.59c0,.35,0,.69,0,1a14.91,14.91,0,0,0-3.7,6.35l-.11.37c-.15.49-.85,3.07-1.29,3.36a2.09,2.09,0,0,1-.67.2l-.29,0a1.7,1.7,0,0,1-1-.16.63.63,0,0,1-.28-.3v-.07a4.21,4.21,0,0,0,2.41-1.77l.09-.14.5-3.06.07.6.7-4.32L57.77,73A8.51,8.51,0,0,0,58.6,72.46ZM43.82,58.25a9.55,9.55,0,0,0,.69-2.67,11,11,0,0,0-.31-4.28l6.23-1.87,6.24,1.87a11.22,11.22,0,0,0-.32,4.28,9.93,9.93,0,0,0,.7,2.67l.7,1.53a12.22,12.22,0,0,0-3.65,5v.07a18.6,18.6,0,0,0-.77,5,29.29,29.29,0,0,0,.3,3.62L54,76.87l-.92.46a6.44,6.44,0,0,1-2.68.56,6.51,6.51,0,0,1-2.68-.56l-.92-.46.43-3.39a29.27,29.27,0,0,0,.29-3.62,18.6,18.6,0,0,0-.77-5v0l0,0a12.13,12.13,0,0,0-3.65-5ZM43.09,73l2.79,1.58.7,4.32.07-.6.5,3.06.09.14a4.24,4.24,0,0,0,2.41,1.77v.07a.63.63,0,0,1-.28.3,1.68,1.68,0,0,1-1,.16l-.29,0a2.25,2.25,0,0,1-.67-.2c-.44-.29-1.14-2.87-1.29-3.36L46,79.83a14.89,14.89,0,0,0-3.69-6.35c0-.33,0-.67,0-1A8.51,8.51,0,0,0,43.09,73Zm-1.46-5.09-.05-.25,1.91.13a12.56,12.56,0,0,1,2.22,5.71l.13.79-1.73-2.43A43,43,0,0,1,41.63,67.92ZM44,65.15l-.46,0c-.22-.61-.46-1.23-.72-1.85A9.9,9.9,0,0,1,44,65.15ZM35.08,47.74l-5.2-.35a17,17,0,0,1-4.58-3.86,14.69,14.69,0,0,0,2,.62,10.51,10.51,0,0,0,2.23.31h1.54l-.47-12-1.33-.07a21.64,21.64,0,0,1-10.56-3.25c1,.27,2,.5,3.05.69a31.81,31.81,0,0,0,3.51.47l4.74.32-3.72-2.95a18.88,18.88,0,0,1-6.39-10.78,47.39,47.39,0,0,0,6.92,8.43,58.12,58.12,0,0,0,6.83,5.78l.22,11.53,7,8.25a8.26,8.26,0,0,1,.71,3.7Zm6,10.59a11.81,11.81,0,0,0-1.76-.91l-1.94-.77a13.77,13.77,0,0,0,1.74-.39ZM30,60.4a26.56,26.56,0,0,0,5.48,1.4c.09.22.18.45.28.68A15.82,15.82,0,0,1,30,60.4ZM36.71,59a23.49,23.49,0,0,1-8.45-2.61,16.7,16.7,0,0,1-2.71-1.79l0-.09a19.34,19.34,0,0,0,9.66,2.37l.83,0,1.47,2.26Zm1.22.94-.18-.45a31,31,0,0,1,2.72,5.12,18.31,18.31,0,0,1,.8,2.18l.25.87h-.05c-.69-1.24-1.33-2.52-1.92-3.8-.1-.22-.2-.44-.29-.66v-.34H39.1C38.69,61.86,38.31,60.91,37.93,59.92Zm26,22.4a15.9,15.9,0,0,1-1.24,2.94A30.24,30.24,0,0,1,59.56,90a12,12,0,0,0-.45-3.28L58,83.06l-1.67,3.39A13,13,0,0,1,55,88.51,29.1,29.1,0,0,1,50.43,93a28.61,28.61,0,0,1-4.55-4.52,13,13,0,0,1-1.38-2.06l-1.68-3.39-1.07,3.62A12,12,0,0,0,41.3,90a31,31,0,0,1-3.13-4.7,15.9,15.9,0,0,1-1.24-2.94l2.88-7.06.11.07a6.58,6.58,0,0,1,1.13,1.17,12.75,12.75,0,0,1,2.1,4.18l.11.37c.32,1,.63,2.18,1.05,3.2A3.73,3.73,0,0,0,45.48,86a5,5,0,0,0,2,.7,5.4,5.4,0,0,0,.58.1,4.77,4.77,0,0,0,2.42-.33,4.79,4.79,0,0,0,2.43.33c.19,0,.38-.06.58-.1a4.92,4.92,0,0,0,1.94-.7,3.75,3.75,0,0,0,1.18-1.7c.41-1,.72-2.15,1-3.2l.11-.37a13,13,0,0,1,2.1-4.18A6.64,6.64,0,0,1,61,75.33l.1-.07Zm-1-22.4c-.38,1-.76,1.94-1.18,2.9h-.17l0,.34-.3.66c-.59,1.28-1.23,2.56-1.91,3.8h-.06l.25-.87a20.24,20.24,0,0,1,.8-2.18,32.57,32.57,0,0,1,2.72-5.12Zm-3.17-1.59,2-2.07a13.61,13.61,0,0,0,1.73.39l-1.93.77A11.44,11.44,0,0,0,59.77,58.33Zm5.3,4.15c.1-.23.19-.46.29-.68a26.63,26.63,0,0,0,5.47-1.4A15.69,15.69,0,0,1,65.07,62.48Zm-.23-5.67.83,0a19.41,19.41,0,0,0,9.67-2.37l0,.09a15.88,15.88,0,0,1-2.71,1.79A23.43,23.43,0,0,1,64.15,59l-.78.09Zm6.74-24.38-1.34.07-.47,12h1.54a10.42,10.42,0,0,0,2.23-.31,14.27,14.27,0,0,0,2-.62A16.81,16.81,0,0,1,71,47.39l-5.19.35-6.56,6.88a8.25,8.25,0,0,1,.7-3.7L67,42.67l.22-11.53A58.85,58.85,0,0,0,74,25.36a47.39,47.39,0,0,0,6.92-8.43,18.82,18.82,0,0,1-6.39,10.78l-3.72,2.95,4.74-.32a31.81,31.81,0,0,0,3.51-.47c1-.19,2-.42,3-.69A21.61,21.61,0,0,1,71.58,32.43Z"/><path class="cls-2" d="M43.39,94.1a18.57,18.57,0,0,1-.61-4.29A15,15,0,0,1,43,87.14a18.84,18.84,0,0,0,3.59,4.69,17.36,17.36,0,0,0,3.81,2.88,22.75,22.75,0,0,0,5-4.49,34.9,34.9,0,0,0,2.37-3.13,29.36,29.36,0,0,1,.46,4.49,15.42,15.42,0,0,1-.15,2.72,41,41,0,0,0,3.73-5.4C63.48,86,64.24,86.13,64.94,84s.15-3.08.15-3.08a42.44,42.44,0,0,0-2.92-6.77,17.79,17.79,0,0,1-1.92-3.93l2.62-6.06s1,.6,5.35-1.21,5.45-2.22,6.46-3.94a16.11,16.11,0,0,0,2-4.54,19.28,19.28,0,0,0,.51-2.93s-5.61,3.94-10.4,3.63a48.56,48.56,0,0,1-5.65-.7c.18.18-1.37-3.54-3.59-4.55a49.56,49.56,0,0,0-7.32-2.07l-7.81,2.4a7.07,7.07,0,0,1,.44,4.47,28.67,28.67,0,0,1-.7,3.33,3.35,3.35,0,0,0-1.62-2.22l-2-1.21s-.92,1-4.2.86a27.38,27.38,0,0,1-9.49-2.83,5.48,5.48,0,0,0-1.11-.71s.2,5.66,3,7.88,5.05,3.53,7.77,4a14.19,14.19,0,0,0,3.44.4l2.37,5.18,0,2.25a10.28,10.28,0,0,0-1.8,3.17c-.81,2.12-3.13,7.47-3.13,7.47S38.24,90.47,43.39,94.1Z"/><path class="cls-3" d="M76.37,56.18A10.53,10.53,0,0,1,76,57.24c-.38.59-.85,1.31-1.33,2l-.1.15c-.13.12-.26.25-.4.36a32.6,32.6,0,0,1-3.06,2.16l-1.39.61A22.13,22.13,0,0,1,63,64.07l.91-3.18L67.61,60c2.28-.56,2.43-1.06,5.1-2.07a23.21,23.21,0,0,0,3.66-1.73ZM54.79,85.46s2.32-5,4.8-7.51a21.09,21.09,0,0,1,.4,8l2-5.36a21.38,21.38,0,0,1-3.53,12s5.35-5.25,6.26-7.67.8-3.24.7-3.34-4.57-10.8-4.74-10.8A26.1,26.1,0,0,0,60,74.32a22.15,22.15,0,0,0-5.2,11.14Zm4.65-21-1.11,4.24L58,67.45s-2.77,2.73-3.18,9a29.28,29.28,0,0,1-.4-7.37C54.79,65.6,57.17,63.71,59.44,64.47Z"/><path class="cls-3" d="M24.59,56.18a10.45,10.45,0,0,0,.4,1.06c.39.59.85,1.31,1.34,2l.09.15c.13.12.27.25.41.36a32.6,32.6,0,0,0,3.06,2.16l1.38.61A22.22,22.22,0,0,0,38,64.07l-.91-3.18L33.34,60c-2.27-.56-2.42-1.06-5.1-2.07a23.44,23.44,0,0,1-3.65-1.73ZM46.17,85.46s-2.32-5-4.8-7.51a21.22,21.22,0,0,0-.41,8l-2-5.36a21.29,21.29,0,0,0,3.53,12s-5.35-5.25-6.26-7.67-.81-3.24-.71-3.34,4.58-10.8,4.75-10.8a26.06,26.06,0,0,1,.7,3.54,22.21,22.21,0,0,1,5.21,11.14Zm-4.65-21,1.11,4.24.3-1.26s2.78,2.73,3.18,9a29.58,29.58,0,0,0,.41-7.37C46.16,65.6,43.79,63.71,41.52,64.47Z"/><path class="cls-1" d="M58.39,57.56a17.3,17.3,0,0,1-.51-5c.16-2.55,1.32-3.23,2.83-5S65.66,42,65.66,42l.1-11.81a95.16,95.16,0,0,0,8.88-7.68c4-4,8.28-11.61,8.28-11.61s-.1,1.42-.6,4.34-.91,6.26-2.12,8.28-3.54,5-3.54,5a32.82,32.82,0,0,0,6.26-1.11c2.43-.81,4-1.31,4-1.31a11.44,11.44,0,0,1-5.55,5.15A42,42,0,0,1,71.61,34l-.1,9.19a28.39,28.39,0,0,0,5.35-1.82,31.06,31.06,0,0,0,3.54-2S74,48,72,48.57a30.43,30.43,0,0,1-5.45.81Z"/><path class="cls-4" d="M59.32,49.14c.41-.48.88-1,1.39-1.58C62.23,45.74,65.66,42,65.66,42v-.23L66,30s11.75-7.27,16.71-18.75h0s-2,11.52-14.84,20.1l-.1,11.56s-6.51,7-9.44,10.29c0,0,.5-3.51,1-4.07ZM78.58,40.7c-.09-.16-1.82,4.87-10.9,6.36l-2.47,2.53s2.27-.41,4.94-1,4.09-.55,4.9-1.92,2.93-3.23,3.53-6Zm8.08-14.24S82.11,31.22,69.9,32l2.51,2.22s13.79-2.36,14.25-7.77Zm-21,15.32Z"/><path class="cls-1" d="M42.58,57.56a17.1,17.1,0,0,0,.5-5c-.15-2.55-1.31-3.23-2.82-5S35.31,42,35.31,42l-.1-11.81a95.16,95.16,0,0,1-8.88-7.68c-4-4-8.28-11.61-8.28-11.61s.1,1.42.6,4.34.91,6.26,2.12,8.28,3.54,5,3.54,5a32.82,32.82,0,0,1-6.26-1.11c-2.43-.81-4-1.31-4-1.31a11.44,11.44,0,0,0,5.55,5.15A42,42,0,0,0,29.35,34l.11,9.19A28.63,28.63,0,0,1,24.1,41.4a31.38,31.38,0,0,1-3.53-2S26.93,48,29,48.57a30.43,30.43,0,0,0,5.45.81Z"/><path class="cls-4" d="M41.65,49.14c-.41-.48-.88-1-1.39-1.58C38.74,45.74,35.31,42,35.31,42v-.23L35,30S23.21,22.74,18.25,11.26h0s2,11.52,14.84,20.1l.1,11.56s6.51,7,9.44,10.29c0,0-.5-3.51-1-4.07ZM22.39,40.7c.08-.16,1.82,4.87,10.9,6.36l2.47,2.53s-2.27-.41-4.94-1-4.09-.55-4.9-1.92-2.93-3.23-3.53-6ZM14.31,26.46S18.86,31.22,31.07,32l-2.51,2.22s-13.79-2.36-14.25-7.77Zm21,15.32Z"/><path class="cls-1" d="M41.62,64.37s1.06,2,1.11,2a2.2,2.2,0,0,1,1.26.25,3.32,3.32,0,0,1,1.37,1.42c.25.45.5,1,.5,1a3.62,3.62,0,0,0-.1-2c-.35-1.37.25-.71-.61-2.43s-.85-2-2-2.87a37,37,0,0,0-3.34-2.23A6.63,6.63,0,0,1,40.46,61c.2.81,1.16,3.38,1.16,3.38Zm14.24-.25a5.53,5.53,0,0,0-.61,1.56,18,18,0,0,0-.5,4.29s.7-1.26,1.31-2.27a5,5,0,0,1,1.06-1.36l.86,0A20.92,20.92,0,0,0,59.74,63c.86-2,2-4.09,2-4.09a18.77,18.77,0,0,0-2.77,2A43.19,43.19,0,0,0,55.86,64.12Z"/><path class="cls-5" d="M34.91,48.7l7.27,7.62a8.91,8.91,0,0,0-.58-5.83l-6.78-7.93-.16-.19v-.25l-.22-11.39c-1.83-1.28-11.67-8.51-15.93-18.09.29,4.33,1.71,11.22,7.31,15.68l1.75,1.39-2.23-.15A34.24,34.24,0,0,1,15,27c2.22,2.41,6.64,5.76,14.29,6.21l.63,0,0,.63L30.25,43l0,.72h-.73a13.47,13.47,0,0,1-6.72-2.27,18.66,18.66,0,0,0,6.82,6.76l4.8.32.27,0,.19.2ZM42,58.11l-7.88-8.26-4.68-.32h-.15l-.14-.07a20.93,20.93,0,0,1-8.95-10.28l-1-2.82,2.17,2.09a13.53,13.53,0,0,0,7.52,3.79l-.3-7.68c-12.43-1-16.65-9.41-16.67-9.43l-1.31-2.54,2.33,1.66c3.26,2.31,7.8,3.29,10.43,3.68-7.43-7.54-6.18-19.35-6.18-19.38l.39-3.94,1,3.84c3.05,12,17,21.33,17,21.35l.29.2v.36L36,41.85l6.68,7.82.07.08,0,.08a10.17,10.17,0,0,1,.28,8.09l-.43.93Z"/><path class="cls-5" d="M39.74,55.21s-6.93,3-15.35-2.28c.41,3,2.58,10,14.06,10.63L38.37,65c-16-.93-15.45-13.36-15.45-13.4l0-1.31L24,51c8.31,6,15.17,2.94,15.19,2.93Z"/><path class="cls-5" d="M24.83,55a21.78,21.78,0,0,0,11.79,4.77l.43,0,.15.4a55.63,55.63,0,0,0,6.28,12.13c-3.41-1.94-5.93-7.62-7.42-11.25A23.18,23.18,0,0,1,23.89,56Z"/><path class="cls-5" d="M40.92,68.35a22.93,22.93,0,0,1,.57,5.47,13.37,13.37,0,0,1,3.73,6.23l.12.37c1.11,3.66,1.15,3.82,2.54,4.11a2.46,2.46,0,0,0,.36.06,2.42,2.42,0,0,0,1.54-.27,1.46,1.46,0,0,0,.65-.83v2.05a3.8,3.8,0,0,1-2.34.43l-.5-.08c-2.18-.46-2.24-.65-3.58-5.07l-.11-.36c-1.27-4.17-3.52-5.76-3.53-5.76l-.31-.23,0-.38a25.76,25.76,0,0,0-.54-5.94Z"/><path class="cls-5" d="M41.18,69.83,36.11,82.26c.22.89,1.4,4.74,6.12,10a13.34,13.34,0,0,1,.27-5.35L43,85.2l.78,1.59S45.4,90.11,50.43,94v1.74A31,31,0,0,1,43.52,89a15.61,15.61,0,0,0,.54,5.33l.8,2.66-2-2c-7.19-7.23-8.2-12.64-8.2-12.65l0-.21.08-.19,5.15-12.63Z"/><polygon class="cls-5" points="42.14 49.65 50.43 47.16 50.43 48.61 42.53 50.98 42.14 49.65"/><path class="cls-5" d="M39,58.15s5.18,2,7,6.94a17.56,17.56,0,0,1,.45,8.29,13.32,13.32,0,0,0-2.55-6.33L42.52,67l-.39,0L42,66.55A30.43,30.43,0,0,0,38.36,59l-1-1.48,1.64.66Zm6,7.33a11.23,11.23,0,0,0-4.63-5.39A32.35,32.35,0,0,1,43,65.87l1.28.09h.26l.15.21a9.23,9.23,0,0,1,1.15,2.29A19,19,0,0,0,45,65.48Z"/><path class="cls-5" d="M47.4,78l.5,3.06a3.4,3.4,0,0,0,2.53,1.51V78.67A7.34,7.34,0,0,1,47.4,78Z"/><path class="cls-5" d="M66,48.7l-7.28,7.62a9,9,0,0,1,.58-5.83L66,42.56l.16-.19v-.25l.22-11.39c1.83-1.28,11.67-8.51,15.94-18.09C82.06,17,80.64,23.86,75,28.32l-1.75,1.39,2.23-.15A34.27,34.27,0,0,0,85.92,27c-2.23,2.41-6.65,5.76-14.3,6.21l-.63,0,0,.63L70.62,43l0,.72h.72A13.49,13.49,0,0,0,78,41.4a18.78,18.78,0,0,1-6.83,6.76l-4.8.32-.27,0-.18.2Zm-7.07,9.41,7.88-8.26,4.69-.32h.15l.13-.07a20.93,20.93,0,0,0,9-10.28l1-2.82-2.16,2.09A13.58,13.58,0,0,1,72,42.23l.3-7.68C84.76,33.56,89,25.14,89,25.12l1.31-2.54L88,24.24c-3.25,2.31-7.79,3.29-10.43,3.68C85,20.38,83.74,8.57,83.73,8.54L83.34,4.6l-1,3.84c-3.05,12-17,21.33-17,21.35l-.3.2v.36l-.22,11.5-6.68,7.82-.07.08,0,.08a10.13,10.13,0,0,0-.28,8.09l.43.93Z"/><path class="cls-5" d="M61.12,55.21s6.93,3,15.35-2.28c-.4,3-2.58,10-14.06,10.63L62.49,65C78.47,64,78,51.59,78,51.55l0-1.31L76.85,51c-8.31,6-15.16,2.94-15.18,2.93Z"/><path class="cls-5" d="M76,55a21.73,21.73,0,0,1-11.79,4.77l-.42,0-.15.4a56.69,56.69,0,0,1-6.28,12.13c3.4-1.94,5.92-7.62,7.42-11.25A23.17,23.17,0,0,0,77,56Z"/><path class="cls-5" d="M60,68.35a21.8,21.8,0,0,0-.57,5.47,13.27,13.27,0,0,0-3.74,6.23l-.11.37c-1.11,3.66-1.16,3.82-2.54,4.11l-.37.06a2.39,2.39,0,0,1-1.53-.27,1.44,1.44,0,0,1-.66-.83v2.05a3.8,3.8,0,0,0,2.34.43l.5-.08c2.19-.46,2.24-.65,3.58-5.07l.11-.36c1.27-4.17,3.52-5.76,3.53-5.76l.31-.23,0-.38a26.39,26.39,0,0,1,.54-5.94Z"/><path class="cls-5" d="M59.68,69.83l5.08,12.43c-.22.89-1.41,4.74-6.13,10a13.34,13.34,0,0,0-.27-5.35l-.5-1.71-.79,1.59S55.46,90.11,50.43,94v1.74A31,31,0,0,0,57.34,89a15.06,15.06,0,0,1-.54,5.33L56,97l2-2c7.19-7.23,8.2-12.64,8.21-12.65l0-.21-.08-.19L61,69.31Z"/><polygon class="cls-5" points="58.73 49.65 50.43 47.16 50.43 48.61 58.33 50.98 58.73 49.65"/><path class="cls-5" d="M61.83,58.15s-5.18,2-7,6.94a17.69,17.69,0,0,0-.45,8.29,13.33,13.33,0,0,1,2.56-6.33l1.4-.1.39,0,.11-.38A30.43,30.43,0,0,1,62.5,59l1-1.48-1.63.66Zm-5.95,7.33a11.18,11.18,0,0,1,4.63-5.39,32.35,32.35,0,0,0-2.62,5.78L56.6,66h-.25l-.16.21a9.23,9.23,0,0,0-1.14,2.29A17.93,17.93,0,0,1,55.88,65.48Z"/><path class="cls-5" d="M53.46,78,53,81.09a3.38,3.38,0,0,1-2.53,1.51V78.67A7.31,7.31,0,0,0,53.46,78Z"/><path class="cls-5" d="M34.91,48.7l7.27,7.62a8.91,8.91,0,0,0-.58-5.83l-6.78-7.93-.16-.19v-.25l-.22-11.39c-1.83-1.28-11.67-8.51-15.93-18.09.29,4.33,1.71,11.22,7.31,15.68l1.75,1.39-2.23-.15A34.24,34.24,0,0,1,15,27c2.22,2.41,6.64,5.76,14.29,6.21l.63,0,0,.63L30.25,43l0,.72h-.73a13.47,13.47,0,0,1-6.72-2.27,18.66,18.66,0,0,0,6.82,6.76l4.8.32.27,0,.19.2ZM42,58.11l-7.88-8.26-4.68-.32h-.15l-.14-.07a20.93,20.93,0,0,1-8.95-10.28l-1-2.82,2.17,2.09a13.53,13.53,0,0,0,7.52,3.79l-.3-7.68c-12.43-1-16.65-9.41-16.67-9.43l-1.31-2.54,2.33,1.66c3.26,2.31,7.8,3.29,10.43,3.68-7.43-7.54-6.18-19.35-6.18-19.38l.39-3.94,1,3.84c3.05,12,17,21.33,17,21.35l.29.2v.36L36,41.85l6.68,7.82.07.08,0,.08a10.17,10.17,0,0,1,.28,8.09l-.43.93Z"/><path class="cls-5" d="M39.74,55.21s-6.93,3-15.35-2.28c.41,3,2.58,10,14.06,10.63L38.37,65c-16-.93-15.45-13.36-15.45-13.4l0-1.31L24,51c8.31,6,15.17,2.94,15.19,2.93Z"/><path class="cls-5" d="M24.83,55a21.78,21.78,0,0,0,11.79,4.77l.43,0,.15.4a55.63,55.63,0,0,0,6.28,12.13c-3.41-1.94-5.93-7.62-7.42-11.25A23.18,23.18,0,0,1,23.89,56Z"/><path class="cls-5" d="M40.92,68.35a22.93,22.93,0,0,1,.57,5.47,13.37,13.37,0,0,1,3.73,6.23l.12.37c1.11,3.66,1.15,3.82,2.54,4.11a2.46,2.46,0,0,0,.36.06,2.42,2.42,0,0,0,1.54-.27,1.46,1.46,0,0,0,.65-.83v2.05a3.8,3.8,0,0,1-2.34.43l-.5-.08c-2.18-.46-2.24-.65-3.58-5.07l-.11-.36c-1.27-4.17-3.52-5.76-3.53-5.76l-.31-.23,0-.38a25.76,25.76,0,0,0-.54-5.94Z"/><path class="cls-5" d="M41.18,69.83,36.11,82.26c.22.89,1.4,4.74,6.12,10a13.34,13.34,0,0,1,.27-5.35L43,85.2l.78,1.59S45.4,90.11,50.43,94v1.74A31,31,0,0,1,43.52,89a15.61,15.61,0,0,0,.54,5.33l.8,2.66-2-2c-7.19-7.23-8.2-12.64-8.2-12.65l0-.21.08-.19,5.15-12.63Z"/><polygon class="cls-5" points="42.14 49.65 50.43 47.16 50.43 48.61 42.53 50.98 42.14 49.65"/><path class="cls-5" d="M39,58.15s5.18,2,7,6.94a17.56,17.56,0,0,1,.45,8.29,13.32,13.32,0,0,0-2.55-6.33L42.52,67l-.39,0L42,66.55A30.43,30.43,0,0,0,38.36,59l-1-1.48,1.64.66Zm6,7.33a11.23,11.23,0,0,0-4.63-5.39A32.35,32.35,0,0,1,43,65.87l1.28.09h.26l.15.21a9.23,9.23,0,0,1,1.15,2.29A19,19,0,0,0,45,65.48Z"/><path class="cls-5" d="M47.4,78l.5,3.06a3.4,3.4,0,0,0,2.53,1.51V78.67A7.34,7.34,0,0,1,47.4,78Z"/><path class="cls-5" d="M66,48.7l-7.28,7.62a9,9,0,0,1,.58-5.83L66,42.56l.16-.19v-.25l.22-11.39c1.83-1.28,11.67-8.51,15.94-18.09C82.06,17,80.64,23.86,75,28.32l-1.75,1.39,2.23-.15A34.27,34.27,0,0,0,85.92,27c-2.23,2.41-6.65,5.76-14.3,6.21l-.63,0,0,.63L70.62,43l0,.72h.72A13.49,13.49,0,0,0,78,41.4a18.78,18.78,0,0,1-6.83,6.76l-4.8.32-.27,0-.18.2Zm-7.07,9.41,7.88-8.26,4.69-.32h.15l.13-.07a20.93,20.93,0,0,0,9-10.28l1-2.82-2.16,2.09A13.58,13.58,0,0,1,72,42.23l.3-7.68C84.76,33.56,89,25.14,89,25.12l1.31-2.54L88,24.24c-3.25,2.31-7.79,3.29-10.43,3.68C85,20.38,83.74,8.57,83.73,8.54L83.34,4.6l-1,3.84c-3.05,12-17,21.33-17,21.35l-.3.2v.36l-.22,11.5-6.68,7.82-.07.08,0,.08a10.13,10.13,0,0,0-.28,8.09l.43.93Z"/><path class="cls-5" d="M61.12,55.21s6.93,3,15.35-2.28c-.4,3-2.58,10-14.06,10.63L62.49,65C78.47,64,78,51.59,78,51.55l0-1.31L76.85,51c-8.31,6-15.16,2.94-15.18,2.93Z"/><path class="cls-5" d="M76,55a21.73,21.73,0,0,1-11.79,4.77l-.42,0-.15.4a56.69,56.69,0,0,1-6.28,12.13c3.4-1.94,5.92-7.62,7.42-11.25A23.17,23.17,0,0,0,77,56Z"/><path class="cls-5" d="M60,68.35a21.8,21.8,0,0,0-.57,5.47,13.27,13.27,0,0,0-3.74,6.23l-.11.37c-1.11,3.66-1.16,3.82-2.54,4.11l-.37.06a2.39,2.39,0,0,1-1.53-.27,1.44,1.44,0,0,1-.66-.83v2.05a3.8,3.8,0,0,0,2.34.43l.5-.08c2.19-.46,2.24-.65,3.58-5.07l.11-.36c1.27-4.17,3.52-5.76,3.53-5.76l.31-.23,0-.38a26.39,26.39,0,0,1,.54-5.94Z"/><path class="cls-5" d="M59.68,69.83l5.08,12.43c-.22.89-1.41,4.74-6.13,10a13.34,13.34,0,0,0-.27-5.35l-.5-1.71-.79,1.59S55.46,90.11,50.43,94v1.74A31,31,0,0,0,57.34,89a15.06,15.06,0,0,1-.54,5.33L56,97l2-2c7.19-7.23,8.2-12.64,8.21-12.65l0-.21-.08-.19L61,69.31Z"/><polygon class="cls-5" points="58.73 49.65 50.43 47.16 50.43 48.61 58.33 50.98 58.73 49.65"/><path class="cls-5" d="M61.83,58.15s-5.18,2-7,6.94a17.69,17.69,0,0,0-.45,8.29,13.33,13.33,0,0,1,2.56-6.33l1.4-.1.39,0,.11-.38A30.43,30.43,0,0,1,62.5,59l1-1.48-1.63.66Zm-5.95,7.33a11.18,11.18,0,0,1,4.63-5.39,32.35,32.35,0,0,0-2.62,5.78L56.6,66h-.25l-.16.21a9.23,9.23,0,0,0-1.14,2.29A17.93,17.93,0,0,1,55.88,65.48Z"/><path class="cls-5" d="M53.46,78,53,81.09a3.38,3.38,0,0,1-2.53,1.51V78.67A7.31,7.31,0,0,0,53.46,78Z"/></g></svg>