<svg xmlns="http://www.w3.org/2000/svg" xmlns:xlink="http://www.w3.org/1999/xlink" viewBox="0 0 100 100"><defs><style>.cls-1{fill:url(#linear-gradient);}</style><linearGradient id="linear-gradient" x1="4.9" y1="15.39" x2="94.41" y2="67.07" gradientUnits="userSpaceOnUse"><stop offset="0" stop-color="#18381d"/><stop offset="0.5" stop-color="#61b457"/><stop offset="1" stop-color="#18381d"/></linearGradient></defs><title>elf2</title><g id="Elf_2" data-name="Elf 2"><path class="cls-1" d="M91.14,57.51l0-.46q0-8.09,0-16.17V39.72c0-.54,0-1.08,0-1.61v-1c0-11.2-.06-14.35-.09-25.55A11.54,11.54,0,0,0,79.57,0H20.43A11.4,11.4,0,0,0,9,11.6c0,11.06-.06,14.46-.09,25.52v1c0,.51,0,1,0,1.53s0,.86,0,1.29V57c0,.37,0,.74,0,1.1l0,1.51v1.29c0,4,.12,4.75.1,8.77a11.42,11.42,0,0,0,5.54,9.91C26.24,87,32.4,90.88,44.13,98.33a3.37,3.37,0,0,0,.32.19c1.4-7,3.43-16.32,4-20.3l-.63-.75A9.63,9.63,0,0,1,36.69,77c-2.26.54-4,1.28-5.82,1.27a4.94,4.94,0,0,1-3.1-1.91c-1.45-1.74-2.45-3.92-3.92-5.62-3-3.52-2.42-7.4-1.24-11.21-4.4-8-3.1-13.52,7.45-18.72C30.89,29.32,31.93,28,42.9,24.56a20,20,0,0,1,1.77-2.92c2-2.41,4.31-4.31,7.59-3.79a8.68,8.68,0,0,1,7.21,5.8c.8,2,2.4,3.53,3.57,5.33,1.52,2.34,3,4.74,4.83,7.73,6.64,3.35,8.38,5.29,7.39,14,3.29,3.07,4,6.81,1.8,11.35-.65,1.36-.08,3.45,0,5.2.22,3.42-1,5.82-3.93,7.29A7.8,7.8,0,0,0,70.64,77c-4,5.51-11.55,4.81-14.6-1.37-.64-1.28-1.48-2.43-2.23-3.64l-1.48.54c.52,5.7,2,17.65,3,26.27a10.8,10.8,0,0,0,1.1-.63C68,90.77,74.38,86.71,86,79.34a11.52,11.52,0,0,0,5.1-9.65s.07-8.81.08-8.81V59.67c0-.53,0-1.07,0-1.6C91.13,57.89,91.13,57.7,91.14,57.51Z"/></g></svg>