<svg xmlns="http://www.w3.org/2000/svg" xmlns:xlink="http://www.w3.org/1999/xlink" viewBox="0 0 100 100"><defs><style>.cls-1{fill:url(#linear-gradient);}</style><linearGradient id="linear-gradient" x1="4.9" y1="15.39" x2="94.41" y2="67.07" gradientUnits="userSpaceOnUse"><stop offset="0" stop-color="#18381d"/><stop offset="0.5" stop-color="#61b457"/><stop offset="1" stop-color="#18381d"/></linearGradient></defs><title>elf3</title><g id="Elf_2" data-name="Elf 2"><path class="cls-1" d="M91.14,57.51l0-.46q0-8.09,0-16.17V39.72c0-.54,0-1.08,0-1.61v-1c0-11.2-.06-14.35-.09-25.55A11.54,11.54,0,0,0,79.57,0H20.43A11.4,11.4,0,0,0,9,11.6c0,11.06-.06,14.46-.09,25.52v1c0,.51,0,1,0,1.53s0,.86,0,1.29V57c0,.37,0,.74,0,1.1l0,1.51v1.29c0,4,.12,4.75.1,8.77a11.42,11.42,0,0,0,5.54,9.91C26.24,87,32.4,90.88,44.13,98.33a10.62,10.62,0,0,0,1.72.86c.27-6.58.74-18.31.74-20.29-8,1.78-15.85,1.46-24.24-3.89l12.74-7.94C32.52,66,25.66,63,25.66,63l4.42-2.22c3.42-2.14,4.6-3.36,8.81-6l-8.77-4.22L41.5,42.42l-6.89-3.6,11-8.35-6-3.08c4.5-3.71,9.07-7.14,11.28-13.14L63,27.19l-4,3.6,9.19,7.78-5.43,4.3L72,49.46c-.27,3.87-3.65,3.34-6.21,4.32C67.62,58.87,73.3,59,76.36,62.9L69.1,67.34l11,7.53C75.47,79.21,60.29,79,55.34,77.43c.2,2.16,1.43,12.45,2.34,19.95,10.79-6.9,17.13-10.94,28.29-18a11.52,11.52,0,0,0,5.1-9.65s.07-8.81.08-8.81V59.67c0-.53,0-1.07,0-1.6C91.13,57.89,91.13,57.7,91.14,57.51Z"/></g></svg>