<svg xmlns="http://www.w3.org/2000/svg" viewBox="0 0 100 100"><defs><style>.cls-1{fill:#1d2319;}.cls-2{fill:#635c35;}.cls-3{fill:#494425;}.cls-4{fill:#6d663f;}.cls-5{fill:#504b28;}.cls-6{fill:#9a9678;}.cls-7{fill:#807954;}.cls-8{fill:#bebba0;}.cls-9{fill:#e3e9be;}.cls-10{fill:#122c1a;}.cls-11{fill:#104521;}.cls-12{fill:#0a5f2d;}.cls-13{fill:#13391e;}.cls-14{fill:#0c582a;}.cls-15{fill:#11672f;}.cls-16{fill:#20341f;}.cls-17{fill:#0f4f26;}.cls-18{fill:#d4dcaf;}.cls-19{fill:#0e7032;}.cls-20{fill:#243f24;}.cls-21{fill:#1f5530;}.cls-22{fill:#c6cda3;}.cls-23{fill:#b2b892;}.cls-24{fill:#b9bf99;}.cls-25{fill:#cfd6a9;}.cls-26{fill:#0f7734;}.cls-27{fill:#0e8037;}.cls-28{fill:#267a41;}.cls-29{fill:#d8e1b3;}</style></defs><title>elf4</title><g id="Elf_2" data-name="Elf 2"><g id="Layer_1" data-name="Layer 1"><path class="cls-1" d="M63.37,89.89H63l-.94-.81.47,1.2-1.29.78a2.46,2.46,0,0,0-3.77-.91c-2,1.43-3.77,3.07-5.65,4.62l-2.79,2-2.44-2.48-.49-.71a1.35,1.35,0,0,0-.4,0h0l-1.7-2-9.6-4.15a1.59,1.59,0,0,1-.3-.06c-1.63-1.76-3.25-3.53-4.88-5.3l-.78-6.14c.53.89,1.11,1.76,1.6,2.67A21.22,21.22,0,0,1,31,80.77c1.09,2.8,3.84,3.76,6,5.25,3.58,2.46,7.43,4.53,11,7a2.82,2.82,0,0,0,3.81,0c3.8-2.64,7.79-5,11.53-7.75a15.44,15.44,0,0,0,3.52-4.05c.57-.86.48-2.15,1-3.08a3.68,3.68,0,0,1,1.93-1.59c.37-.12,1.24.62,1.56,1.17,1,1.76,1.72,1.89,3.22.42.43-.43.92-.8,1.39-1.19,3.15-2.66,6.28-5.53,7.4-9.54.88-3.17.66-6.65.93-10,0-1.22,0-2.45,0-3.67l-.78-.85c-.32-2.64-.65-5.27-1-7.9-.13-.89-.27-1.79-.4-2.68l0-6.75-.38-.74.46-3.34,1.62.77c-.23,2.2-.45,4.4-.68,6.59.24,1.26.48,2.52.71,3.77L84.13,45l1.05,5.8.37,0v3.26L86.06,59c.25,3.79.49,7.53-2.27,10.72-1.37,1.59-2.48,3.4-3.8,5-1.11,1.37-2.34,2.64-3.51,4-1.09.66-2.15,1.37-3.27,2-.79.43-1.65.72-2.48,1.07v-3L70,78.71l-2.58,6.58C65,85.87,63,86.86,63.37,89.89Z"/><path class="cls-2" d="M11.68,61.92c-.09-2.05-.54-4.16-.19-6.12,1.49-8.48,3.32-16.9,4.84-25.37.88-4.87,2.21-9.75,1.09-14.77-.36-1.58-.84-3.14-1.27-4.7a7.14,7.14,0,0,1-.44-1.72,9.75,9.75,0,0,1,.32-2c3.1,1.69,3.26,4.81,3.8,7.75a18,18,0,0,0-.34,1.9c-.21,2.7-.39,5.41-.54,8.11,0,.81.05,1.63.07,2.44l.21.75c-.37.41-.95.76-1.07,1.23-.6,2.41-1.13,4.83-1.55,7.28-.09.51.4,1.12.62,1.68L16.07,41l-1.6,2.88,0,0-.83,8.64-.95,9.44Z"/><path class="cls-3" d="M16.46,1.26C19.53.81,22.63-.1,25.69,0c7.88.28,15.74,1,23.6,1.58a70.53,70.53,0,0,1,7.77,1.23A9.86,9.86,0,0,1,59.34,3.9a5.27,5.27,0,0,0-1.8-.1c-.63.17-1.93.13-1.12,1.49L54.91,5,49,3.9a6.52,6.52,0,0,0-5.65-1.69c-1.42-.37-2.84-.8-4.28-1.08-.34-.07-.78.37-1.17.58-1.24-.07-2.48-.16-3.72-.21-3.73-.14-7.46-.31-11.19-.37a23.52,23.52,0,0,0-3.51.49H18.13l-1.57.1Z"/><path class="cls-4" d="M11.68,61.92h1l.07.44.37,2,1,.42-.07.82s-.08.12-.07.14a1.89,1.89,0,0,0,.2.2l4.62,7.23.54.73c.81,1,1.62,1.94,2.45,2.89,1.26,1.45,2.55,2.87,3.83,4.31l0,.89,0,1c-1.1-.88-2.19-1.77-3.28-2.66l-1.64-1.07-.06-.06-3.09-3.59-.14.35,0,0c.15-.94,0-1.57-1.2-1.28L11.67,66c0-.69-.05-1.38-.07-2.07v-.81s.12-.09.11-.13a1.72,1.72,0,0,0-.11-.29Z"/><path class="cls-4" d="M16.46,1.26c0,.16.06.32.1.47,0,1.72,1.32,1.6,2.42,1.83L22.4,6a10.62,10.62,0,0,0-2.35-.28,16.56,16.56,0,0,0-2.65.66L16,7.27a9.75,9.75,0,0,0-.32,2A7.14,7.14,0,0,0,16.15,11a44.85,44.85,0,0,0-3.51-3.77A9.4,9.4,0,0,0,9.94,6L7.25,4.13c1-.34,1.62-.56,2.24-.76l6.32-2.08Z"/><path class="cls-5" d="M76.48,78.7c1.17-1.31,2.4-2.58,3.51-4,1.32-1.65,2.43-3.46,3.8-5,2.76-3.19,2.52-6.93,2.27-10.72l1.46-.72A20.8,20.8,0,0,1,84.5,72c-.11.18-.22.36-.34.54l.68-.2a1.14,1.14,0,0,1,.37,0,13,13,0,0,1-5.36,6.13A4.71,4.71,0,0,0,78.12,78a4.75,4.75,0,0,0-1.55.85Z"/><path class="cls-4" d="M88,14.4C91,16,93.77,17.78,95,21.17c-.17.42-.26,1.16-.51,1.23-1.58.39-3.19.63-4.79.92l-.84-.42-.05,0c.15-.54.29-1.09.43-1.63a14.55,14.55,0,0,0,1.25-1.59,4.07,4.07,0,0,0,.31-1.2l-1.16.32a1.93,1.93,0,0,1,0-.34l-.93-.8L85.53,15.5Z"/><path class="cls-4" d="M46.14,93.58l.49.71v.87l-1.74.17c-.87-.55-1.72-1.13-2.59-1.66-2.21-1.34-4.47-2.59-6.59-4-.63-.43-.86-1.45-1.27-2.21L44,91.56c-.18,1.3.71,1.68,1.7,2h0Z"/><path class="cls-4" d="M87.52,58.26,86.06,59l-.51-4.86c0-.28,0-.55,0-.83,0-.81,0-1.62,0-2.43l-.37,0L84.13,45l2.19,1.25A45.48,45.48,0,0,1,88.1,57.71Zm-1.2-7.71-.12-.15a2.73,2.73,0,0,0-.14.31s.07.1.11.14Z"/><path class="cls-5" d="M51.86,94.77c1.88-1.55,3.69-3.19,5.65-4.62a2.46,2.46,0,0,1,3.77.91,50.66,50.66,0,0,0-5.16,2.86,42.15,42.15,0,0,0-3.8,3.54,5.23,5.23,0,0,1-1.25.63l1-1.52C52.57,95.89,53.16,95.2,51.86,94.77Z"/><path class="cls-2" d="M25.56,83l0-1c1.22.88,2.45.25,3.67,0,1.63,1.77,3.25,3.54,4.88,5.3l-1.37,1Z"/><path class="cls-2" d="M88,14.4l-2.46,1.1-.88-.2a5.19,5.19,0,0,0-1-1.45,31.8,31.8,0,0,0-3-1.66,6.13,6.13,0,0,0-1.21-1.79,18.09,18.09,0,0,0-2.88-1.46c.24-.09.57-.32.73-.24,3.13,1.66,6.24,3.35,9.35,5l.53.1Z"/><path class="cls-4" d="M67.39,85.29,70,78.71l.76.05v3c.14.79.29,1.57.44,2.36l-.34.09.12.19.26-.24h.86l-3.38,2.41Z"/><path class="cls-3" d="M15.81,1.29,9.49,3.37c-.62.2-1.23.42-2.24.76L9.94,6l-7-1.15A33.22,33.22,0,0,1,15.81,1.29Z"/><path class="cls-4" d="M56.42,5.29c-.81-1.36.49-1.32,1.12-1.49a5.27,5.27,0,0,1,1.8.1L63,4.77l1,.29.69.11L65.44,7Z"/><path class="cls-4" d="M89.3,24.15q-2,3.45-4.09,6.9l-.42.09-1.08-1.26c.09-.55.17-1.09.26-1.64q1.84-2.46,3.68-4.93l1-.42.18,0,.05,0,.45.51Z"/><path class="cls-5" d="M71.17,84.09c-.15-.79-.3-1.57-.44-2.36a24.64,24.64,0,0,0,2.48-1.06c1.12-.6,2.18-1.31,3.27-2l.09.1-.87,1.6-.41.87.13.09-.09-.14.4-.78,1.25.43c-.68.54-1.35,1.09-2,1.64l-.51-.18.49.19L72.41,84l-.39.12h-.81Zm1.06-1.42.19.54,1.18-.41-.19-.55Z"/><path class="cls-2" d="M83.17,38.83c.23-2.19.45-4.39.68-6.59l.84-.35c0,1.77,0,3.56.13,5.32.05.6.64,1.14,1,1.71.18,1.12.4,2.23.5,3.35,0,.25-.42.53-.65.79l-1.35-1.3Z"/><path class="cls-6" d="M87.52,58.26l.58-.55c1.25,3,.56,6-.25,8.86a36.87,36.87,0,0,1-2.64,5.68,1.14,1.14,0,0,0-.37,0L84.5,72A20.8,20.8,0,0,0,87.52,58.26Z"/><path class="cls-3" d="M67.39,85.29l1.3,1.25c-.37.28-.72.58-1.11.82-1.4.86-2.81,1.69-4.21,2.53C63,86.86,65,85.87,67.39,85.29Z"/><path class="cls-4" d="M70.41,6.82l2.85.88,1.24,2.48L68.68,8.12Z"/><path class="cls-5" d="M70.41,6.82l-1.73,1.3L65.44,7l-.81-1.82Z"/><path class="cls-4" d="M51.86,94.77c1.3.43.71,1.12.25,1.8l-1,1.52L49.75,99.3l-.31.35c-.58-.64-1.15-1.28-1.72-1.93l1.35-1Z"/><path class="cls-4" d="M76.56,8.94a18.09,18.09,0,0,1,2.88,1.46,6.13,6.13,0,0,1,1.21,1.79l-2.44,0L76.54,11l-.37-1-.45.53-.46-.32.6-1.45Z"/><path class="cls-7" d="M89.3,24.15c0-.25,0-.49,0-.75l.39-.08c1.6-.29,3.21-.53,4.79-.92.25-.07.34-.81.51-1.23l2,1.7Z"/><path class="cls-7" d="M84.3,41.76l1.35,1.3c.22,1.08.45,2.15.67,3.23L84.13,45c-.08-.81-.16-1.62-.25-2.44Z"/><path class="cls-5" d="M49.07,96.77l-1.35,1-1.19-.9-.39-.37c-.42-.37-.84-.74-1.25-1.12l1.74-.17v-.87Z"/><path class="cls-8" d="M85.8,38.92c-.34-.57-.93-1.11-1-1.71-.15-1.76-.1-3.55-.13-5.32l.1-.75.42-.09.39,4.88C85.67,36.93,85.73,37.92,85.8,38.92Z"/><path class="cls-4" d="M77,80.87l-1.25-.43,0,0,.87-1.6A4.91,4.91,0,0,1,78.12,78a4.71,4.71,0,0,1,1.73.42l-.41.41L77,80.86Z"/><path class="cls-9" d="M17.35,76l.14-.35,3.09,3.59Z"/><path class="cls-2" d="M75.86,8.79l-.6,1.45-.76-.06L73.26,7.7Z"/><path class="cls-5" d="M77,80.86l2.47-2.07Z"/><path class="cls-2" d="M11.6,64c0,.69,0,1.38.07,2.07C11.64,65.35,11.62,64.66,11.6,64Z"/><path class="cls-9" d="M20.64,79.26l1.64,1.07Z"/><path class="cls-9" d="M16.11,74.63c1.17-.29,1.35.34,1.2,1.28Z"/><path class="cls-3" d="M62.57,90.28l-.47-1.2.94.81Z"/><path class="cls-5" d="M63.94,5.06l-1-.29Z"/><path class="cls-5" d="M49.44,99.65l.31-.35c0,.24,0,.47,0,.7Z"/><path class="cls-4" d="M87.17,13.84l-.53-.1Z"/><path class="cls-4" d="M72,84.14l.39-.12A1.46,1.46,0,0,1,72,84.14Z"/><path class="cls-2" d="M11.61,62.74a1.72,1.72,0,0,1,.11.29s-.07.09-.11.13Z"/><path class="cls-4" d="M46.14,96.45l.39.37Z"/><path class="cls-10" d="M84.35,57.4c-.27,3.35,0,6.83-.93,10-1.12,4-4.25,6.88-7.4,9.54-.47.39-1,.76-1.39,1.19-1.5,1.47-2.19,1.34-3.22-.42-.32-.55-1.19-1.29-1.56-1.17a3.68,3.68,0,0,0-1.93,1.59c-.51.93-.42,2.22-1,3.08a15.44,15.44,0,0,1-3.52,4.05C59.67,88,55.68,90.37,51.88,93a2.82,2.82,0,0,1-3.81,0c-3.58-2.47-7.43-4.54-11-7-2.2-1.49-5-2.45-6-5.25a21.22,21.22,0,0,0-.94-2.19c-.49-.91-1.07-1.78-1.6-2.67l-.37,0-.48,0,2-2.21c-.45-.32-.78-.73-1.19-.83-2.65-.65-5.3-1.27-8-1.78-.42-.08-1,.47-1.45.73-1.22-2.57-3-5-3.52-7.74-.54-3.07.12-6.35.26-9.53.27.45.76.91.75,1.35C16.42,58.65,18.19,60.47,20,62c4.45,3.84,9,7.63,14.32,10.22,2,1,4.57.82,6.88,1.18.16,2.23,1.83,3.31,3.38,4.49,1.31,1,2.59,2,3.91,3a10.89,10.89,0,0,0,1.35.72c.14.18.27.36.41.53l.41-.53c1.49-1.13,2.94-2.3,4.47-3.37,1.81-1.28,3.7-2.46,4.17-4.88h.38c1.1.56,2,.53,2.49-.79H63a6.54,6.54,0,0,0,2,.38,69.22,69.22,0,0,0,7.19-1.07A56.35,56.35,0,0,0,77.84,70l.68-.46A8.39,8.39,0,0,1,77,68.94c-2.07-1.36-2-2,.06-3.39a8,8,0,0,0,2.21-2c1.2-1.7,2.15-3.58,3.34-5.29C82.94,57.8,83.76,57.68,84.35,57.4Z"/><path class="cls-11" d="M63,72.61h-.82c-1.08-.53-2-.48-2.49.79h-.38c-.94-2.8-.57-3.22,2.19-3a6.47,6.47,0,0,0,2.29-.75l0-1.12.08-1.32,2.19,3.06,4.15-2.66c-2.22-2.61-2.3-3.24.2-5.48,2.22-2,4.78-3.57,7-5.48a7,7,0,0,0,1.91-2.86c.38-1,0-2.35.46-3.36a31.15,31.15,0,0,1,2.45-4.15l0-1.26.32-.07c.32,2.63.65,5.26,1,7.9,0,.27,0,.55,0,.83a20.06,20.06,0,0,1-1.79,2.64c-1.92,2.08-4,4-5.9,6.1-1.13,1.23-2.38,2.44-1.87,4.47.1.38-.79,1.48-1.14,1.44-2.14-.25-2.92,1.77-4.45,2.47a16.55,16.55,0,0,1-1.79.89C65.4,72.08,64.19,72.32,63,72.61Z"/><path class="cls-12" d="M82.23,31.47l-.45,3.34c-.54.36-1.1.7-1.62,1.09L74.5,40.15c0-2.61,0-5.14,3.31-5.93.25-.06.5-1,.39-1.5-.59-2.31-2-3.15-5-3.28-.13-2-.25-4.09-.38-6.13.73-.48,2-.89,2.09-1.46.26-2.08,1.48-2.61,3.25-2.66l1.22.42.41.78v.46c-.31.92-.59,1.85-.92,2.76-.13.37-.57.88-.46,1,1.18,1.66,2.44,3.26,3.69,4.88l.11,1.22Z"/><path class="cls-13" d="M63,72.61c1.21-.29,2.42-.53,3.61-.89a16.55,16.55,0,0,0,1.79-.89c1.53-.7,2.31-2.72,4.45-2.47.35,0,1.24-1.06,1.14-1.44-.51-2,.74-3.24,1.87-4.47,1.92-2.08,4-4,5.9-6.1a20.06,20.06,0,0,0,1.79-2.64l.8,0c0,1.22,0,2.45,0,3.67-.59.28-1.41.4-1.73.86-1.19,1.71-2.14,3.59-3.34,5.29a8,8,0,0,1-2.21,2c-2.08,1.37-2.13,2-.06,3.39a8.39,8.39,0,0,0,1.51.62l-.68.46a56.35,56.35,0,0,1-5.72,1.9A69.22,69.22,0,0,1,64.93,73,6.54,6.54,0,0,1,63,72.61Z"/><path class="cls-14" d="M74.5,40.15l5.66-4.25c.52-.39,1.08-.73,1.62-1.09.12.24.24.49.37.74-.36.48-1,1-1,1.45,0,1.73.21,3.47.34,5.21-1.64-.19-3.37-.67-4.41,1.26-.15-.57-.29-1.14-.43-1.71l.15-.91-1.5.11h-.78Z"/><path class="cls-15" d="M77.05,43.47c1-1.93,2.77-1.45,4.41-1.26l.72.09c.13.89.27,1.79.4,2.68l-.32.07c-1.89.12-3.77.92-5.65,0Z"/><path class="cls-7" d="M28.11,75.93l.37,0,.78,6.14c-1.22.21-2.45.84-3.67,0l0-.89,1.69-.25.18-1.3Z"/><path class="cls-11" d="M82.18,42.3l-.72-.09c-.13-1.74-.35-3.48-.34-5.21,0-.49.67-1,1-1.45Z"/><path class="cls-16" d="M84.3,41.76l-.42.84c-.23-1.25-.47-2.51-.71-3.77Z"/><path class="cls-16" d="M82.23,31.47v-.74l1.48-.85,1.08,1.26c0,.25-.06.5-.1.75l-.84.35Z"/><path class="cls-5" d="M45.74,93.55c-1-.31-1.88-.69-1.7-2Z"/><path class="cls-10" d="M84.33,53.73l-.8,0c0-.28,0-.56,0-.83Z"/><path class="cls-3" d="M85.56,53.29c0,.28,0,.55,0,.83C85.55,53.84,85.55,53.57,85.56,53.29Z"/><path class="cls-3" d="M85.18,50.84l.37,0Z"/><path class="cls-5" d="M46.14,93.58l-.4,0A1.35,1.35,0,0,1,46.14,93.58Z"/><path class="cls-1" d="M15.73,54.53c-.14,3.18-.8,6.46-.26,9.53.48,2.7,2.3,5.17,3.52,7.74,0,.15.05.3.08.45V73l-.27.21L14.18,66a.83.83,0,0,1-.13-.34l.07-.82q.11-6.15.2-12.31c.26-1.25.57-2.49.75-3.74.37-2.59.67-5.18,1-7.77.38-.86.77-1.71,1.16-2.57q1-5.1,2-10.19L19,27.47c.41-2.38,1-4.75,1.16-7.15a35.21,35.21,0,0,0-.35-5.3c-.54-2.94-.7-6.06-3.8-7.75l1.37-.92L23.76,7.5,24,7.06,22.4,6,19,3.56c1.39-.41,2.78-1.16,4.18-1.17,4.93-.06,9.86.13,14.8.23l3.69.08L49,3.9,54.91,5l1.51.33,9,1.69,3.24,1.14,5.82,2.06.76.06.46.32.82.47,1.67,1.13,6.44,3.14.88.2,3.22,2.13.93.8a1.93,1.93,0,0,0,0,.34l-.77.45H84l-.92,1.18c-1-1.16-1.63-.18-2.37.33a3.54,3.54,0,0,0-.16-.34l.09-.79a17.79,17.79,0,0,0,1.79-.93c.52-.34,1.39-.91,1.32-1.2a2.92,2.92,0,0,0-1.25-1.63c-1.25-.77-2.62-1.35-3.93-2a2.43,2.43,0,0,0-.38,0l-3.36-1.55-1.14-.12L65.05,8.89c-9-2.87-18.21-4-27.55-4.51l-4.09,0-.85,0c-2.91-1.16-5.6.21-8.54.29l.8,2.9a19.29,19.29,0,0,1-3,.45c-1.61,0-2.19.47-1.65,1.65L20.64,11l0,.82,0,.78.74,1.28-.31,1.57L21.46,18l.05,1.24-.29,3.35c.07,1.07.15,2.14.22,3.21-.13.69-.26,1.37-.38,2.06l-.36.84-.47,3.27-.64,1.27,0,.78-.1,1.25a2.26,2.26,0,0,0-.11.37l-.33.86-.11,1.6-.68,2.1-.06,2c-.14.28-.27.56-.4.84l-.36,1.64L17,45.92l0,.8-.38.84,0,1.63Z"/><path class="cls-6" d="M16.07,41c-.33,2.59-.63,5.18-1,7.77-.18,1.25-.49,2.49-.75,3.74l-.65,0q.4-4.32.83-8.64l.11.07-.14,0Z"/><path class="cls-8" d="M13.67,52.47l.65,0q-.09,6.15-.2,12.31l-1-.42-.37-2-.07-.44Z"/><path class="cls-6" d="M19.23,28.22q-1,5.1-2,10.19c-.22-.56-.71-1.17-.62-1.68.42-2.45.95-4.87,1.55-7.28C18.28,29,18.86,28.63,19.23,28.22Z"/><path class="cls-8" d="M19.83,15a35.21,35.21,0,0,1,.35,5.3c-.19,2.4-.75,4.77-1.16,7.15,0-.81-.11-1.63-.07-2.44.15-2.7.33-5.41.54-8.11A18,18,0,0,1,19.83,15Z"/><path class="cls-7" d="M38,2.62c-4.94-.1-9.87-.29-14.8-.23-1.4,0-2.79.76-4.18,1.17-1.1-.23-2.46-.11-2.42-1.83l1.57-.1h1.34A23.52,23.52,0,0,1,23,1.13c3.73.06,7.46.23,11.19.37,1.24.05,2.48.14,3.72.21C37.91,2,37.94,2.32,38,2.62Z"/><path class="cls-4" d="M38,2.62c0-.3-.05-.6-.07-.91.39-.21.83-.65,1.17-.58,1.44.28,2.86.71,4.28,1.08l-1.69.49Z"/><path class="cls-7" d="M41.65,2.7l1.69-.49A6.52,6.52,0,0,1,49,3.9Z"/><path class="cls-4" d="M19.47,1.62h0Z"/><path class="cls-1" d="M28.11,75.93c-.21,1.21-.41,2.43-.62,3.64l-.18,1.3-1.69.25c-1.28-1.44-2.57-2.86-3.83-4.31-.83-1-1.64-1.93-2.45-2.89l.19-.18,1.54.49C24,77.71,25,78,27.63,75.89Z"/><path class="cls-2" d="M12.79,62.35l.37,2Z"/><path class="cls-1" d="M19.34,73.92l-.54-.73.27-.21.46.75Z"/><path class="cls-2" d="M14.05,65.62a.83.83,0,0,0,.13.34,1.89,1.89,0,0,1-.2-.2S14,65.67,14.05,65.62Z"/><path class="cls-7" d="M22.4,6,24,7.06l-.22.44L17.4,6.35a16.56,16.56,0,0,1,2.65-.66A10.62,10.62,0,0,1,22.4,6Z"/><path class="cls-6" d="M84.84,72.29l-.68.2c.12-.18.23-.36.34-.54C84.62,72.06,84.73,72.18,84.84,72.29Z"/><path class="cls-2" d="M84,19.23h4.88c.12.67.25,1.35.37,2-.14.54-.28,1.09-.43,1.63l-.18,0L88,22.62,84.2,20.84Z"/><path class="cls-7" d="M89.28,21.24c-.12-.67-.25-1.35-.37-2l.77-.45,1.16-.32a4.07,4.07,0,0,1-.31,1.2A14.55,14.55,0,0,1,89.28,21.24Z"/><path class="cls-7" d="M89.68,18.43l-.93-.8Z"/><path class="cls-2" d="M89.74,23.32l-.39.08-.45-.5Z"/><path class="cls-3" d="M86.32,50.55l-.15.3s-.12-.1-.11-.14a2.73,2.73,0,0,1,.14-.31Z"/><path class="cls-8" d="M84.65,15.3l-6.44-3.14,2.44,0a31.8,31.8,0,0,1,3,1.66A5.19,5.19,0,0,1,84.65,15.3Z"/><path class="cls-5" d="M71.21,84.13l-.26.24-.12-.19.34-.09Z"/><path class="cls-16" d="M87.65,23.31Q85.82,25.79,84,28.24c-.13-.44-.26-.88-.38-1.33l.31-.25.92-1.35-.51-2.8c1.2-.18,1.86,2,3.3.75Z"/><path class="cls-1" d="M83.59,26.91c.12.45.25.89.38,1.33-.09.55-.17,1.09-.26,1.64l-1.48.85c0-.4-.07-.81-.11-1.21Z"/><path class="cls-16" d="M88,22.62l.68.27-1,.42,0,0Z"/><path class="cls-4" d="M72.23,82.67l1.18-.42.19.55-1.18.41Z"/><path class="cls-4" d="M75.73,80.44l-.4.78,0,0,.41-.87Z"/><path class="cls-4" d="M74.94,82.52l-.49-.19.51.18Z"/><polygon class="cls-4" points="75.33 81.22 75.42 81.36 75.29 81.27 75.33 81.22"/><path class="cls-2" d="M76.54,11l-.82-.47.45-.53Z"/><path class="cls-13" d="M15.73,54.53q.42-2.67.83-5.34c.69,1.67,1.38,3.35,2.08,5s1.91,3.15,1.82,4.65c-.17,2.63,1.07,3,3.07,3.06h.4c.27.37.53,1,.81,1,2.45.07,3.84,1.88,5.54,3.2s3.57,2.52,5.93,2.29c0,2,1.39,2.13,3,2.1,2.62,0,2.82.29,2,2.85-2.31-.36-4.87-.2-6.88-1.18C29,69.65,24.44,65.86,20,62c-1.8-1.55-3.57-3.37-3.51-6.14C16.49,55.44,16,55,15.73,54.53Z"/><path class="cls-13" d="M27.63,75.89C25,78,24,77.71,21.07,74.23a7.8,7.8,0,0,1,2.21.76c1.39,1,1.82,1,3.14-.83-2.81.14-4.52-2.57-7.35-1.91,0-.15-.05-.3-.08-.45.49-.26,1-.81,1.45-.73,2.67.51,5.32,1.13,8,1.78.41.1.74.51,1.19.83Z"/><path class="cls-1" d="M41.19,73.42c.8-2.56.6-2.9-2-2.85-1.57,0-2.91-.07-3-2.1,0-.14,0-.27,0-.41l.69.45c-.16,1.07.39,1.22,1.3,1.12,1.39-.17,2.79-.23,4.18-.33,0,.89.07,1.78.08,2.67s0,1.78,0,2.68l.65.74,5.49,3.38,1.27,2.81-.07.08a10.89,10.89,0,0,1-1.35-.72c-1.32-1-2.6-2-3.91-3C43,76.73,41.35,75.65,41.19,73.42Z"/><path class="cls-1" d="M63.77,69.68a6.47,6.47,0,0,1-2.29.75c-2.76-.24-3.13.18-2.19,3-.47,2.42-2.36,3.6-4.17,4.88-1.53,1.07-3,2.24-4.47,3.37l-.09-.1c-.07-1.85,1.22-2.72,2.54-3.62,1.54-1,3-2.16,4.55-3.24V72.15a.67.67,0,0,0,0-.37L58,69.31Z"/><path class="cls-13" d="M59.67,73.4c.51-1.27,1.41-1.32,2.49-.79C61.67,73.93,60.77,74,59.67,73.4Z"/><path class="cls-1" d="M50.65,81.66l-.41.53c-.14-.17-.27-.35-.41-.53l.07-.08.66,0Z"/><path class="cls-17" d="M82.29,46.31a31.15,31.15,0,0,0-2.45,4.15c-.42,1-.08,2.32-.46,3.36a7,7,0,0,1-1.91,2.86c-2.27,1.91-4.83,3.5-7,5.48-2.5,2.24-2.42,2.87-.2,5.48L66.07,70.3l-2.19-3.06L61.7,63.6c2,.64,4.09,1.25,5.18-1.49.06-.15.35-.19.52-.32l5.85-4.39h.82a6.65,6.65,0,0,0,3.4-4.73C78,49.88,79,47.14,82.29,46.31Z"/><path class="cls-14" d="M82.29,46.31c-3.29.83-4.31,3.57-4.82,6.36a6.65,6.65,0,0,1-3.4,4.73,6.73,6.73,0,0,1,.67-2c1.74-2.22,1.16-4.66-1.48-5.77l3.35-4.53c1.88.9,3.76.1,5.65,0Z"/><path class="cls-16" d="M76.61,45.07,73.26,49.6,72,51.22l-5.68,3.87-4.55,3.6-1.64,2c-1,.67-1,1.35,0,2h0l1.23.83.36,0,2.18,3.64c0,.44-.05.88-.08,1.32-.39-.59-.78-1.17-1.16-1.76v0l-.49-.67a.41.41,0,0,0-.34-.14c-1.23-1-2.47-1.87-3.67-2.86C58,63,58,62.61,58,62.33A22.24,22.24,0,0,1,64.64,55l5.8-4.14.79-.75.88-.88,3.14-4.16,1.37-3.3c.14.57.28,1.14.43,1.71C76.9,44,76.76,44.53,76.61,45.07Z"/><path class="cls-18" d="M62.64,66.8c.38.59.77,1.17,1.16,1.76l0,1.12L58,69.31v0a5.77,5.77,0,0,1,1.44-.51c1-.08,2.05,0,3.17,0Z"/><path class="cls-19" d="M78.17,19.19c-1.77,0-3,.58-3.25,2.66-.08.57-1.36,1-2.09,1.46h0L72,22.05c-1.3-1.48-2-3.64-4.42-3.85l-4.18-.15-1.26-.93h0a5.09,5.09,0,0,0-5.32-3.69,11.81,11.81,0,0,1-2.45-.11c-3.17-.61-6.32-1.29-9.48-1.94l-3.3-1.24,0-2a17,17,0,0,0,9.64,1.74A5.61,5.61,0,0,1,55,11.11a4.71,4.71,0,0,0,4.19,1,12.79,12.79,0,0,1,8.48,1.23,9.73,9.73,0,0,0,2.76.52c1.93,1.42,3.85,2.85,5.79,4.25a3,3,0,0,0,.76.3Z"/><path class="cls-15" d="M74.5,40.15V41h0L72,43.81l-2,1.74-1.26-.89,2.55-7,1.53-5,.41-3.29c3,.13,4.4,1,5,3.28.11.46-.14,1.44-.39,1.5C74.51,35,74.45,37.54,74.5,40.15Z"/><path class="cls-20" d="M71.27,37.69l-2.55,7c-.59.87-1.49,1.74.06,2.56l-1.26,1.19-.84,0,0-2h0l.41-.85h0l.42-1.25v0l.5-.82,0,.06.34-.91.5-1.16-.08-.08.08.08c.77-2.36,1.54-4.71,2.32-7.07l.15-.78.27-2.91.33-4.52c-.22-3.39-1.31-6.22-4.84-7.47l.56-.51c2.41.21,3.12,2.37,4.42,3.85l.79,1.25h0c.13,2,.25,4.09.38,6.13-.14,1.1-.27,2.19-.41,3.29Z"/><path class="cls-17" d="M83.59,26.91l-1.47,2.61c-1.25-1.62-2.51-3.22-3.69-4.88-.11-.15.33-.66.46-1,.33-.91.61-1.84.92-2.76h.53l.43.45.3.35.74,0,2.5.81.51,2.8-.92,1.35Z"/><path class="cls-14" d="M78.17,19.19l-1.24-.79a4.32,4.32,0,0,0-.46-1.12c-1.46-1.84-3-3.65-4.46-5.46l1.71.32,1.14.12,2.5,1.59,2,5.76Z"/><path class="cls-17" d="M79.39,19.61l-2-5.76.86,0a2.43,2.43,0,0,1,.38,0c1.25,1.72,2.48,3.45,2.07,5.77l-.09.79H79.8Z"/><path class="cls-11" d="M79.8,20.39h.78a3.54,3.54,0,0,1,.16.34l-.4.12h-.53C79.81,20.7,79.8,20.54,79.8,20.39Z"/><path class="cls-9" d="M76.62,41.76l-1.37,3.3-2.56-.45.81-1.18.57-.65.68-.7v0L75.27,41l1.5-.11Z"/><path class="cls-16" d="M75.27,41l-.53,1.15c-.09-.38-.17-.76-.25-1.14h.78Z"/><path class="cls-4" d="M27.31,80.87l.18-1.3Z"/><path class="cls-15" d="M21.44,25.75c-.07-1.07-.15-2.14-.22-3.21l.32,0c1.47,2.1,2.54,4.77,5.94,4l.83.5v1.14c-1.32,2.54-.58,5.07.2,7.51,1.16,3.59,2.54,7.1,4,11.12-2.82-1.43-4.39-3.53-6.1-5.48-.28-.6-.55-1.2-.84-1.8-1.18-2.44-2.28-4.89-1.42-7.72C24.74,29.9,23.34,26.84,21.44,25.75Z"/><path class="cls-14" d="M18.9,38.05l.11-1.6.33-.86a2.26,2.26,0,0,1,.11-.37c.88-.35,1-.76.1-1.25,0-.26,0-.52,0-.78l.64-1.27c.16-1.09.32-2.18.47-3.27h.79A49.57,49.57,0,0,1,21.28,35c-.39,2.67-.1,3.52,2.32,4.6a5.13,5.13,0,0,1,1.15,1L23.48,41a11.29,11.29,0,0,0,.13,2.86,22,22,0,0,0,1.55,3.26c-1.76-.29-3.27.65-3.14,2.34.08,1.17,1,2.27,1.51,3.41-.66-.38-1.66-.6-1.93-1.17-.75-1.54-1.17-3.24-1.78-4.86-.49-1.28-1.08-2.53-1.62-3.8l0-.87.06-2C18.45,39.45,18.68,38.75,18.9,38.05Z"/><path class="cls-14" d="M21.54,22.58l-.32,0c.1-1.12.19-2.23.29-3.35l5.16-5.64L24.32,9.67c.43-.52.86-1.05,1.3-1.57.56-.36,1.11-.75,1.7-1.06s1.42-.94,1.82-.76c2.09,1,2.76-.34,3.42-1.83l.85,0,1.24.43-.48,2C33.1,7.2,32,7.51,31,7.92c-.65.24-1.74.63-1.75,1,0,1.07-.87,2.75,1.31,2.89v.41c-.33,1.07-.35,2.44-1,3.15a52.36,52.36,0,0,1-5.12,4.24l-2.06,2.07Z"/><path class="cls-11" d="M23.53,61.92c-2,0-3.24-.43-3.07-3.06.09-1.5-1.18-3.1-1.82-4.65s-1.39-3.35-2.08-5c0-.54,0-1.08,0-1.63l.39-.84c0-.27,0-.53,0-.8l.77,0a9.12,9.12,0,0,1,.84,1.22c.84,1.76,1.49,3.63,2.48,5.3C22.82,55.38,24.09,58.4,23.53,61.92Z"/><path class="cls-12" d="M24.75,40.58a5.13,5.13,0,0,0-1.15-1c-2.42-1.08-2.71-1.93-2.32-4.6a49.57,49.57,0,0,0,.21-6.34l-.43-.83c.12-.69.25-1.37.38-2.06,1.9,1.09,3.3,4.15,2.72,6.05-.86,2.83.24,5.28,1.42,7.72.29.6.56,1.2.84,1.8L25,40.9Z"/><path class="cls-17" d="M23.53,61.92c.56-3.52-.71-6.54-2.45-9.5-1-1.67-1.64-3.54-2.48-5.3a9.12,9.12,0,0,0-.84-1.22l-.36-1.24L17.76,43l.44,0c.54,1.27,1.13,2.52,1.62,3.8.61,1.62,1,3.32,1.78,4.86.27.57,1.27.79,1.93,1.17l.42.41,1.65,9-1.67-.38Z"/><path class="cls-17" d="M37.5,4.38C46.84,4.93,56.09,6,65.05,8.89l0,.45h-.81L58.46,8.08l-3.7-.81-1.22,0L52.3,6.85H51.06L37.51,5.21l0-.35Z"/><path class="cls-21" d="M32.56,4.45c-.66,1.49-1.33,2.81-3.42,1.83-.4-.18-1.23.45-1.82.76s-1.14.7-1.7,1.06l-.8-.46L24,4.74C27,4.66,29.65,3.29,32.56,4.45Z"/><path class="cls-17" d="M24.31,9.67l2.36,3.88-5.16,5.64c0-.41,0-.83-.05-1.24.14-.82.27-1.64.41-2.46,2.3-1.25,2.62-2.17,1.59-4.46a8.67,8.67,0,0,1-.37-1.35Z"/><path class="cls-11" d="M23.09,9.68A8.67,8.67,0,0,0,23.46,11c1,2.29.71,3.21-1.59,4.46l-.75-.07c.1-.52.21-1.05.31-1.57-.24-.43-.49-.85-.74-1.28,0-.26,0-.52,0-.78l0-.82c-.16-.41-.31-.82-.46-1.23Z"/><path class="cls-11" d="M80.67,19.61c.41-2.32-.82-4-2.07-5.77,1.31.66,2.68,1.24,3.93,2a2.92,2.92,0,0,1,1.25,1.63c.07.29-.8.86-1.32,1.2A17.79,17.79,0,0,1,80.67,19.61Z"/><path class="cls-21" d="M19.07,72.25c2.83-.66,4.54,2,7.35,1.91C25.1,76,24.67,76,23.28,75a7.8,7.8,0,0,0-2.21-.76l-1.54-.49c-.15-.26-.31-.51-.46-.76Z"/><path class="cls-10" d="M23.09,9.68l-2.91.06c-.54-1.18,0-1.65,1.65-1.65a19.29,19.29,0,0,0,3-.45l.8.46c-.44.52-.87,1.05-1.3,1.57Z"/><path class="cls-11" d="M65,9.34l0-.45,8.67,3.25L72,11.82Z"/><path class="cls-16" d="M80.34,20.86l.4-.12c.74-.51,1.41-1.49,2.37-.33h0L81.81,21.7l-.74,0-.3-.35Z"/><path class="cls-21" d="M37.5,4.38c0,.16,0,.32,0,.48l-2.83,0-1.24-.43Z"/><path class="cls-11" d="M78.22,13.81l-.86,0-2.5-1.59Z"/><path class="cls-10" d="M21.12,15.42l.75.07c-.14.82-.27,1.64-.41,2.46C21.35,17.11,21.23,16.26,21.12,15.42Z"/><path class="cls-16" d="M84,19.23c.06.53.11,1.07.17,1.61l-1.08-.42h0Z"/><path class="cls-13" d="M18.9,38.05c-.22.7-.45,1.4-.68,2.1C18.45,39.45,18.68,38.75,18.9,38.05Z"/><path class="cls-17" d="M20.23,31.92l-.64,1.27C19.81,32.77,20,32.34,20.23,31.92Z"/><path class="cls-13" d="M17.4,44.66l.36,1.24-.77,0C17.12,45.5,17.26,45.08,17.4,44.66Z"/><path class="cls-17" d="M19.55,34c.89.49.78.9-.1,1.25C19.48,34.8,19.52,34.38,19.55,34Z"/><path class="cls-10" d="M20.69,12.57c.25.43.5.85.74,1.28Z"/><path class="cls-13" d="M18.2,43.05l-.44,0c.13-.28.26-.56.4-.84C18.17,42.47,18.19,42.76,18.2,43.05Z"/><path class="cls-13" d="M17,46.72l-.39.84Z"/><path class="cls-17" d="M21.06,27.81l.43.83H20.7Z"/><path class="cls-10" d="M20.64,11l0,.82Z"/><path class="cls-13" d="M19.34,35.59l-.33.86Z"/><path class="cls-2" d="M14.47,43.86l.14,0-.11-.07Z"/><path class="cls-1" d="M83.12,20.42l1.08.42L88,22.62l-.38.64c-1.44,1.23-2.1-.93-3.3-.75l-2.5-.81Z"/><path class="cls-1" d="M83.9,26.66l.92-1.35Z"/><path class="cls-11" d="M23.93,61.93l1.67.38h1.2l4.95,2.07,4.92,2-.41,1.63c0,.14,0,.27,0,.41-2.36.23-4.2-.94-5.93-2.29s-3.09-3.13-5.54-3.2C24.46,63,24.2,62.3,23.93,61.93Z"/><path class="cls-22" d="M58,62.33c0,.28,0,.69.15.82,1.2,1,2.44,1.91,3.67,2.86-1.57.29-3.25,1.09-4.35-1.05l-1.66,1.75-1.32,1.36a13.27,13.27,0,0,1,1.68.57c.26.12.44.44.66.67l-2.48.84h0l-1.64-.82h-.83l-.83-2.1.82-2.34c-1.89-.37-2.27.21-1.63,2.38-.62,1.89-1,2-2.47.7-.61-.54-1.26-1-2-1.59L43.7,70.57l-1.21,4.08c0-.9,0-1.79,0-2.68s0-1.78-.08-2.67A7.42,7.42,0,0,1,43,67.41c1-1.6,2.09-3.12,3.15-4.67,1.13,1.27,2.45.74,3.74.38l2.45-2.06,2.43-2Z"/><path class="cls-23" d="M51.88,69.34h.83l1.64.82h0l2.85,1.24.4.39a.67.67,0,0,1,0,.37V74.7c-1.52,1.08-3,2.19-4.55,3.24-1.32.9-2.61,1.77-2.54,3.62l-.66,0-1.27-2.81a16.62,16.62,0,0,0,1.81-1.85,3.43,3.43,0,0,0,.88-2.06c-.09-.65-.81-1.3-1.39-1.78a4.48,4.48,0,0,0-1.42-.54c-.84.45-1.6,1.21-2.14,1.08-1.75-.44-2.55.46-3.23,1.77l-.65-.74c.4-1.36.8-2.72,1.21-4.08l3.56-.86,1,1.39Z"/><path class="cls-18" d="M46.13,62.74C45.07,64.29,44,65.81,43,67.41a7.42,7.42,0,0,0-.55,1.89c-1.39.1-2.79.16-4.18.33-.91.1-1.46,0-1.3-1.12q1.27-2.06,2.53-4.13l.45-.48A4,4,0,0,0,44.27,63c.77-.71,1-2.38,2.68-1.87Z"/><path class="cls-24" d="M43.14,75.39c.68-1.31,1.48-2.21,3.23-1.77.54.13,1.3-.63,2.14-1.08a4.48,4.48,0,0,1,1.42.54c.58.48,1.3,1.13,1.39,1.78a3.43,3.43,0,0,1-.88,2.06,16.62,16.62,0,0,1-1.81,1.85Z"/><path class="cls-13" d="M39.48,64.38Q38.22,66.45,37,68.51l-.69-.45c.13-.54.27-1.09.41-1.63.56-.67,1.11-1.35,1.67-2Z"/><path class="cls-18" d="M57.6,71.78l-.4-.39c0-.69,0-1.38,0-2.06l.82,0v0Z"/><path class="cls-18" d="M57.65,74.7v0Z"/><path class="cls-14" d="M61.7,63.6l-.36,0-1.23-.83h0c0-.67,0-1.35,0-2l1.64-2c0,1.24.25,2.42,1.82,1.77,2.86-1.18,5.63-2.57,8.44-3.88h.82l.41.82L67.4,61.79c-.17.13-.46.17-.52.32C65.79,64.85,63.75,64.24,61.7,63.6Z"/><path class="cls-12" d="M73.25,57.4c-.13-.27-.27-.55-.41-.82,1.78-2.12.39-3.73-.85-5.36l1.27-1.62c2.64,1.11,3.22,3.55,1.48,5.77a6.73,6.73,0,0,0-.67,2Z"/><path class="cls-9" d="M66.68,48.38l.84,0,2.17,2.53.75-.09L64.64,55l-.46-1.18c-1.52-.07-2.76-.11-4-.2s-2.2-.21-3.29-.32c.22-1.38.45-2.76.67-4.13l2,.54.15-1.81,2-2.83c.69,1.43,2.68,2.32,2,4.63l1.81-1.3.29.49Z"/><path class="cls-18" d="M56.89,53.29c1.09.11,2.19.25,3.29.32s2.48.13,4,.2L64.64,55A22.24,22.24,0,0,0,58,62.33c-1.08-1.11-2.17-2.21-3.25-3.31Q55.82,56.16,56.89,53.29Z"/><path class="cls-12" d="M72,56.58c-2.81,1.31-5.58,2.7-8.44,3.88-1.57.65-1.84-.53-1.82-1.77l4.55-3.6a5.12,5.12,0,0,0,1.47.88C69.18,56.26,70.61,56.39,72,56.58Z"/><path class="cls-15" d="M72,56.58c-1.41-.19-2.84-.32-4.24-.61a5.12,5.12,0,0,1-1.47-.88L72,51.22c1.24,1.63,2.63,3.24.85,5.36Z"/><path class="cls-18" d="M70.44,50.85l-.75.09-2.17-2.53,1.26-1.19h0l.2,0,.2,0,.7.47.51-1,0,0,.44-.39,1.92-1.69,2.56.45c-1,1.39-2.09,2.77-3.14,4.16l-.88.88Z"/><path class="cls-25" d="M58,69.29l-.82,0-.38,0c-.22-.23-.4-.55-.66-.67a13.27,13.27,0,0,0-1.68-.57l1.32-1.36L57.47,65c1.1,2.14,2.78,1.34,4.35,1.05a.41.41,0,0,1,.34.14l.49.67v1.93c-1.12,0-2.15,0-3.17,0A5.77,5.77,0,0,0,58,69.29Z"/><path class="cls-17" d="M60.12,60.71c0,.68,0,1.36,0,2C59.09,62.06,59.12,61.38,60.12,60.71Z"/><path class="cls-17" d="M60.11,62.74l1.23.83Z"/><path class="cls-9" d="M71.23,50.1l.88-.88Z"/><path class="cls-18" d="M62.65,66.82l-.49-.67Z"/><path class="cls-26" d="M44.92,11.37c3.16.65,6.31,1.33,9.48,1.94a11.81,11.81,0,0,0,2.45.11,5.09,5.09,0,0,1,5.32,3.69c-.58-.13-1.51-.1-1.68-.43-1-2.14-3.18-.86-4.55-1.85.61,1.53,4.25,3.38,5.6,3,.26-.07.43-.46.64-.71l1.26.92L60.1,20.83c-3-1.26-6-2.56-8.15-5.69l-3.36,2c1,.77,1.52,1.23,2.09,1.58a48.21,48.21,0,0,0,5.21,3.09c1.61.75,1.52,1.48.51,2.58a16.27,16.27,0,0,0-1.57,1.86,4.09,4.09,0,0,0-.36,1.3l.49.34c1.38-1.39,3.8-1.15,4.66-3.42.14-.36.86-.5,1.31-.75l3.65-.93c.68.5,1.74.87,2,1.52a10.36,10.36,0,0,1-.78,8.09l-5.25-.49c-1.49.35-1.68.66-1.15,1.89l.11.14.09.95c-.4-.11-1-.08-1.18-.34-1.94-2.75-4.63-3.38-7.67-2.57a3.33,3.33,0,0,1-3.8-1.12c-1.42-1.7-2.77-3.45-4.22-5.11A3.53,3.53,0,0,0,41.16,25c-1.21-.44-2.44-.82-3.67-1.22l.42-.41.93.17c1.68.57,2.15-.24,1.85-1.72s-.86-2.89-2.74-3v0l-.83-.81-.83-.4V12.66l1.63-.46L38,14.61,46.57,18c1.77-2.87.86-4.66-1.7-5.89C44.8,12,44.9,11.61,44.92,11.37Z"/><path class="cls-15" d="M58.46,8.08l5.75,1.26c1.49.95,3,1.86,4.47,2.87a13.13,13.13,0,0,1,1.7,1.64,9.73,9.73,0,0,1-2.76-.52,12.79,12.79,0,0,0-8.48-1.23,4.71,4.71,0,0,1-4.19-1,5.61,5.61,0,0,0-3.71-1.28A17,17,0,0,1,41.6,8.09c0-.14,0-.28,0-.42.86,0,2.08-.4,2.53,0,2.75,2.61,4.72.16,6.92-.84H52.3l1.24.39,1.22,0C55.82,8.34,56.94,9.11,58.46,8.08Z"/><path class="cls-27" d="M44.92,11.37c0,.24-.12.65-.05.69,2.56,1.23,3.47,3,1.7,5.89L38,14.61c0-.68-.07-1.55-.11-2.41,0-.13,0-.26,0-.4l1.49.47c.67.8,1.14,1.82,1.58,1.8a10.83,10.83,0,0,0,2.89-.8l-2.24-3.14Z"/><path class="cls-28" d="M41.62,10.13l2.24,3.14a10.83,10.83,0,0,1-2.89.8c-.44,0-.91-1-1.58-1.8L37.9,11.8H34.61l0-.8-.37,0c-.13-.4-.26-.81-.4-1.22h0l1.62-.85,2.89-.8,3.29-.42c0,.14,0,.28,0,.42C41.61,8.77,41.61,9.45,41.62,10.13Z"/><path class="cls-12" d="M70.38,13.85a13.13,13.13,0,0,0-1.7-1.64c-1.45-1-3-1.92-4.47-2.87H65l7,2.48c1.49,1.81,3,3.62,4.46,5.46a4.32,4.32,0,0,1,.46,1.12,3,3,0,0,1-.76-.3C74.23,16.7,72.31,15.27,70.38,13.85Z"/><path class="cls-17" d="M60.1,20.83,63.44,18l4.18.16-.56.51c-3.77,0-5.36,1-6,4.3l1.45-.61,2.1.37-3.65.93C60.65,22.75,60.37,21.79,60.1,20.83Z"/><path class="cls-12" d="M72.83,23.3,72,22.05Z"/><path class="cls-16" d="M72.69,44.61,70.77,46.3l-.44.39,0,0-.78.1L70,45.55l2-1.74,1.5-.38Z"/><path class="cls-14" d="M73.5,43.43l-1.5.38L74.49,41c.08.38.16.76.25,1.14v0l-.68.7Z"/><path class="cls-14" d="M70,45.55l-.41,1.22,0,0-.85.49h0c-1.55-.82-.65-1.69-.06-2.56Z"/><path class="cls-12" d="M71.27,37.69l1.53-5Z"/><path class="cls-29" d="M66.68,48.38l-.85.5-.29-.49-1.81,1.3c.67-2.31-1.32-3.2-2-4.63.18-2.35.47-4.69.51-7,0-1.9-.54-3.62-2.76-4.1a1.21,1.21,0,0,1-.1-.14c.39-.36.78-.74,1.16-1.11,3.24-.56,4.45,1.41,5,4.54.81-1.91,1.45-3.39,2.08-4.87A15.3,15.3,0,0,0,67.75,34c.13.67.35,1.32.52,2l.55-.13L69,34l1,.77c-.38,2.22-.75,4.44-1.13,6.66l-.08-.08.08.08-2.5.51c-2.13.4-1.19,2-1.3,3.24-.13,1.44.73,1.34,1.68,1.14Z"/><path class="cls-9" d="M62.48,22.4,61,23c.67-3.29,2.26-4.34,6-4.3,3.53,1.25,4.62,4.08,4.84,7.47a10.31,10.31,0,0,1-.71-1.06c-.38-.75-.72-1.52-1.07-2.28l-1,.17-.36,5.22v1.23l0,1.23-.88.44a4.25,4.25,0,0,1-.32-1.26c.07-1.39.37-2.78.34-4.17C67.81,22.44,65.57,21.11,62.48,22.4Z"/><path class="cls-29" d="M68.73,30.69c0-.41,0-.82,0-1.23l2.16-.35L70.55,27l-1.79,1.19L69.12,23l1-.17c.35.76.69,1.53,1.07,2.28a10.31,10.31,0,0,0,.71,1.06l-.33,4.52H68.73Z"/><path class="cls-18" d="M68.73,30.69H70l1.33,2.92-.15.78L70,34.8,69,34l-.18,1.83-.55.13c-.17-.67-.39-1.32-.52-2a15.3,15.3,0,0,1-.17-1.66l.27-1.21Z"/><path class="cls-25" d="M66.71,46.35c-.95.2-1.81.3-1.68-1.14.11-1.22-.83-2.84,1.3-3.24l2.5-.51-.5,1.16-.34.91,0-.06-.5.82v0l-.42,1.25h0c-.14.28-.27.56-.41.85Z"/><path class="cls-25" d="M70,34.8l1.19-.41c-.78,2.36-1.55,4.71-2.32,7.07C69.21,39.24,69.58,37,70,34.8Z"/><path class="cls-25" d="M71.3,33.61,70,30.69h1.6Z"/><path class="cls-29" d="M67.12,45.51l.42-1.25Z"/><path class="cls-29" d="M68,43.53l.34-.91Z"/><path class="cls-29" d="M66.71,46.35c.14-.29.27-.57.41-.85C67,45.78,66.85,46.06,66.71,46.35Z"/><path class="cls-29" d="M67.53,44.29l.5-.82Z"/><path class="cls-1" d="M80.77,21.31l.3.35Z"/><path class="cls-16" d="M74.07,42.78l.68-.7Z"/><path class="cls-20" d="M25,40.9l1.42.42c1.71,2,3.28,4,6.1,5.48-1.46-4-2.84-7.53-4-11.12-.78-2.44-1.52-5-.2-7.51L29,32.73,29.27,34l1.3,3.7L31,38.91l.69,1.68,3,8.19-.06.79-1.78-.79a18.84,18.84,0,0,1-1.69-1.41C29.08,45.23,27.05,43.06,25,40.9Z"/><path class="cls-28" d="M21.54,22.58l.75-.92a11,11,0,0,0,1.63.7,10.22,10.22,0,0,0,1.74.23l2.73-.49-.91,4.43C24.08,27.35,23,24.68,21.54,22.58Z"/><path class="cls-9" d="M29,32.73l-.63-4.56c0-.38,0-.76,0-1.14q1.2-3.29,2.39-6.57A5.12,5.12,0,0,0,30.4,22c.17,1.56,0,3.31,1.82,4.16l0,1.23c-.55.39-1.34.65-1.61,1.18A40.14,40.14,0,0,0,29,32.73Z"/><path class="cls-20" d="M30.7,20.46Q29.52,23.74,28.31,27l-.83-.5c.31-1.47.61-3,.91-4.43.19-.54.38-1.09.58-1.63L31.82,18l2.39-.41,2.88.78.85.36v0c.24.58.48,1.16.73,1.74-1.62-1-3.17-2.27-5.3-1.61L31.26,20l0,0-.58.53Z"/><path class="cls-12" d="M24,53.29l-.42-.41C23,51.74,22.1,50.64,22,49.47c-.13-1.69,1.38-2.63,3.14-2.34l1.38.29-.11.06.44.46v-.06c-.05.3-.09.6-.14.9h-.38l-2.51.61c-.22,1.74.57,2.48,2.06,3.07a4.6,4.6,0,0,1,2.31,2.25,55.3,55.3,0,0,1,1.87,6c-3.41-.84-4.37-1.91-4.48-5.28C25.57,54.21,25.2,53.46,24,53.29Z"/><path class="cls-29" d="M25,40.9c2.05,2.16,4.08,4.33,6.15,6.47a18.84,18.84,0,0,0,1.69,1.41c-1.26.65-3.12-.58-4,1.28L27.58,48.8l-.7-.92v.06l-.44-.46.11-.06c-.24-.44-.51-.87-.72-1.33C25,44.41,24.26,42.71,23.48,41l1.27-.43Z"/><path class="cls-16" d="M23.48,41c.78,1.7,1.55,3.4,2.34,5.08.21.46.48.89.72,1.33l-1.38-.29a22,22,0,0,1-1.55-3.26A11.29,11.29,0,0,1,23.48,41Z"/><path class="cls-12" d="M31.82,18,29,20.47c-.83-1.62-1.67-2.15-3-.32-.7,1-1.39.54-1.63-.56a52.36,52.36,0,0,0,5.12-4.24c.69-.71.71-2.08,1-3.15.41.49,1.22,1,1.16,1.44a31.49,31.49,0,0,1-1.19,4.08Z"/><path class="cls-15" d="M31.82,18l-1.34-.28a31.49,31.49,0,0,0,1.19-4.08c.06-.41-.75-1-1.16-1.44v-.41a2.89,2.89,0,0,0,.17-1.17A9,9,0,0,0,29.8,9l4,.73c.14.41.27.82.4,1.22l.37,0,0,.8a5.7,5.7,0,0,0-.39,5.34v.46Z"/><path class="cls-15" d="M24.35,19.59c.24,1.1.93,1.53,1.63.56,1.32-1.83,2.16-1.3,3,.32-.2.54-.39,1.09-.58,1.63l-2.73.49a10.22,10.22,0,0,1-1.74-.23,11,11,0,0,1-1.63-.7Z"/><path class="cls-19" d="M38.32,8.09l-2.89.8L34.22,8.5l0-1.66.48-2,2.83,0,0,.35Z"/><path class="cls-12" d="M34.17,6.84c0,.55,0,1.11,0,1.66-.14.41-.27.83-.41,1.24h0L29.8,9a9,9,0,0,1,.88,1.61,2.89,2.89,0,0,1-.17,1.17C28.33,11.65,29.16,10,29.2,8.9c0-.35,1.1-.74,1.75-1C32,7.51,33.1,7.2,34.17,6.84Z"/><path class="cls-14" d="M24,53.29c1.25.17,1.62.92,1.66,2.13.11,3.37,1.07,4.44,4.48,5.28l1.25.41c1.51,1.28,3,2.59,4.59,3.81.09.07.76-.61,1.16-.94l1.25.42c-.56.68-1.11,1.36-1.67,2l-4.92-2c-.58-1.93-2.38-2-3.88-2.55-.27-.09-.71.31-1.07.48H25.6Z"/><path class="cls-12" d="M38.32,8.09l-.81-2.88L51.06,6.86c-2.2,1-4.17,3.45-6.92.84-.45-.43-1.67,0-2.53,0Z"/><path class="cls-12" d="M58.46,8.08c-1.52,1-2.64.26-3.7-.81Z"/><path class="cls-12" d="M53.54,7.24,52.3,6.85Z"/><path class="cls-17" d="M26.8,62.32c.36-.17.8-.57,1.07-.48,1.5.51,3.3.62,3.88,2.55Z"/><path class="cls-20" d="M56.89,53.29Q55.81,56.16,54.75,59l-2.43,2L49,60.74a.54.54,0,0,0-.33-.07,5.84,5.84,0,0,1-3.9-3.3c-.39-.8-.72-1.63-1.08-2.45l-.52-4.1L44,45.48l.14-.78.7-1.5L45,45.91l-.19,1.24,0,.43a1.6,1.6,0,0,0,0,.31h0a2.74,2.74,0,0,0,0,3.89L45,54.51l.3.84,1.25,2.46L48.2,59c3.52.94,5.48,0,6.61-3.2l.65-1.34c0-.25.08-.49.11-.74.06-.54.11-1.07.17-1.61l.14-3.72,0-.41-.29-.85L55.5,46,56,44.22l1.61,4.94Z"/><path class="cls-24" d="M51.88,69.34,48.26,71.1l-1-1.39-3.56.86,2.11-4.18c.7.56,1.35,1,2,1.59,1.45,1.3,1.85,1.19,2.47-.7l.81,0Z"/><path class="cls-25" d="M48.68,60.67a.54.54,0,0,1,.33.07c1.14.49,1,1.43.86,2.38-1.29.36-2.61.89-3.74-.38.27-.55.55-1.09.82-1.64Z"/><path class="cls-24" d="M56.83,69.31l.38,0c0,.68,0,1.37,0,2.06l-2.85-1.24Z"/><path class="cls-9" d="M49.87,63.12c.15-.95.28-1.89-.86-2.38l3.31.32Z"/><path class="cls-25" d="M51.05,67.24l-.81,0c-.64-2.17-.26-2.75,1.63-2.38Z"/><path class="cls-24" d="M54.35,70.15l-1.64-.82Z"/><path class="cls-9" d="M48.68,60.67,47,61.1C45.29,60.59,45,62.26,44.27,63a4,4,0,0,1-4.34.93l.9-.74c.32-.47,1-1.18.89-1.36-1-1.55-2.19-3-3.32-4.48l0,.06L37.93,57h0l-1.75-1.53-6.88-4.59-.5-.76c.87-1.86,2.73-.63,4-1.28l1.78.79c-.13,3.23,2.37,1.09,3.63,1.56l-.72,2.58h3.26l2.91,1.21c.36.82.69,1.65,1.08,2.45A5.84,5.84,0,0,0,48.68,60.67Z"/><path class="cls-15" d="M40.83,63.16l-.9.74-.45.48-1.14,0L37.09,64l-1.64-1.62c.55-.09,1.48-.43,1.61-.23,1.19,1.77,2.41,1.07,3.67.19Z"/><path class="cls-20" d="M59.47,33.92c2.22.48,2.78,2.2,2.76,4.1,0,2.35-.33,4.69-.51,7l-2,2.83q-1.26-2.25-2.54-4.49l3.38,1.83.72-4.73.06-2-1.26-3.25-.51-.38Z"/><path class="cls-29" d="M57.17,43.4q1.28,2.24,2.54,4.49c0,.56-.09,1.13-.15,1.81l-2-.54q-.8-2.47-1.61-4.94C55.83,43.15,56.32,43,57.17,43.4Z"/><path class="cls-9" d="M69.57,46.77l.78-.1-.51,1-.7-.47.45-.48Z"/><path class="cls-16" d="M69.59,46.74l-.45.48-.2,0-.2,0Z"/><path class="cls-9" d="M70.33,46.69l.44-.39Z"/><path class="cls-27" d="M61.33,38.5l-.06,2-2.69-.15.47,2-3.47-.53c-2.35.4-4-.61-5.38-2.45-.59-.76-1.52-.66-2.18.62-.43.82-1.67,1.31-2.64,1.73a16.56,16.56,0,0,1-2.39.36c-2,.47-2.91-.2-3-2.28-.06-1.29,0-2.58,0-3.87l.77-.79c1.78.2,2.06-.79,1.31-2-.38-.61-1.41-.81-2.15-1.2l-2.69-.35-1,.27-1.86,0-.25-1.05-.61-2.21,0-1.6,0-.82.07-.75,1-1.77,0,0,2.92.1c1.23.4,2.46.78,3.67,1.22a3.53,3.53,0,0,1,1.53.78c1.45,1.66,2.8,3.41,4.22,5.11A3.33,3.33,0,0,0,50.71,32c3-.81,5.73-.18,7.67,2.57.19.26.78.23,1.18.34l.51.38Z"/><path class="cls-27" d="M60.1,20.83c.27,1,.55,1.92.83,2.87-.45.25-1.17.39-1.31.75-.86,2.27-3.28,2-4.66,3.42l-.49-.34a4.09,4.09,0,0,1,.36-1.3,16.27,16.27,0,0,1,1.57-1.86c1-1.1,1.1-1.83-.51-2.58a48.21,48.21,0,0,1-5.21-3.09c-.57-.35-1.08-.81-2.09-1.58l3.36-2C54.15,18.27,57.11,19.57,60.1,20.83Z"/><path class="cls-10" d="M67.85,31.13l-.27,1.21L65.5,37.21c-.52-3.13-1.73-5.1-5-4.54,0-.26,0-.52,0-.78l5.25.49a10.36,10.36,0,0,0,.78-8.09c-.22-.65-1.28-1-2-1.52l-2.1-.37c3.09-1.29,5.33,0,5.39,3.3,0,1.39-.27,2.78-.34,4.17A4.25,4.25,0,0,0,67.85,31.13Z"/><path class="cls-20" d="M33.44,27l0,1.6c.2.74.41,1.47.61,2.21.08.35.17.7.25,1.05-.32,1.9.89,1.5,2,1.31a.64.64,0,0,0,0,.41L34.87,37l-1-1.79-.51-2-.05-.41-.24-.65-.86-4.69,0-1.23a3.7,3.7,0,0,1,2.23-4,3.59,3.59,0,0,1,4.29.7l.1.61-.93-.17c-1.17-.54-2.34-1-3.34.31l0,0-1,1.77c0,.25-.05.5-.07.75S33.45,26.72,33.44,27Z"/><path class="cls-19" d="M34.22,17.13a5.7,5.7,0,0,1,.39-5.34H37.9c0,.14,0,.27,0,.4l-1.63.46v4.86Z"/><path class="cls-27" d="M62.18,17.12c-.21.25-.38.64-.64.71-1.35.38-5-1.47-5.6-3,1.37,1,3.52-.29,4.55,1.85.17.33,1.1.3,1.68.43Z"/><path class="cls-15" d="M38.84,23.49c0-.2-.06-.41-.1-.61l.78-.17c.82-1.16.42-1.88-.85-2.26v0c-.25-.58-.49-1.16-.73-1.74,1.88.13,2.44,1.5,2.74,3S40.52,24.06,38.84,23.49Z"/><path class="cls-15" d="M34.57,23.63c1-1.3,2.17-.85,3.34-.31l-.42.41Z"/><path class="cls-12" d="M34.22,17.13l2.06.39.83.4c0,.15,0,.3,0,.45l-2.88-.78Z"/><path class="cls-20" d="M60.51,31.89c0,.26,0,.52,0,.78-.38.37-.77.75-1.16,1.11C58.83,32.55,59,32.24,60.51,31.89Z"/><path class="cls-15" d="M37.09,18.37c0-.15,0-.3,0-.45l.83.81Z"/><path class="cls-15" d="M33.81,9.74c.14-.41.27-.83.41-1.24l1.21.39Z"/><path class="cls-19" d="M34.58,11l-.37,0Z"/><path class="cls-18" d="M68.76,28.23,70.55,27l.36,2.07-2.16.35C68.75,29.05,68.76,28.64,68.76,28.23Z"/><path class="cls-18" d="M33.85,35.19l1,1.79,1.41-3.41c1.23-.36,2.52-.86,3,1h0c-1.86.86-1.88,2.75-1.71,4.18.38,3.1,1.27,6.14,2,9.2-.23.37-.45,1.06-.67,1.06-1.41,0-2.81-.13-4.21-.22l-3-8.19c.77-1,.55-1.53-.69-1.68l-.41-1.23Z"/><path class="cls-29" d="M34.68,48.78c1.4.09,2.8.23,4.21.22.22,0,.44-.69.67-1.06l1.22,0c-.46,1.64-1,3.27.26,4.84.12.14-.16.59-.25.9H37.53l.72-2.58c-1.26-.47-3.76,1.67-3.63-1.56Z"/><path class="cls-25" d="M33.85,35.19l-3.28,2.49L29.27,34c.68-1.75,1.75-2.13,3.31-1,.19.14.5.11.76.16Z"/><path class="cls-29" d="M33.34,33.15c-.26,0-.57,0-.76-.16C31,31.85,30,32.23,29.27,34L29,32.73a40.14,40.14,0,0,1,1.63-4.15c.27-.53,1.06-.79,1.61-1.18.29,1.56.57,3.13.86,4.69l.24.65Z"/><path class="cls-25" d="M31,38.91c1.24.15,1.46.71.69,1.68Z"/><path class="cls-29" d="M39.52,22.71l-.78.17a3.59,3.59,0,0,0-4.29-.7,3.7,3.7,0,0,0-2.23,4c-1.83-.85-1.65-2.6-1.82-4.16a5.12,5.12,0,0,1,.3-1.55h0l.58-.53,0,0,2.12-1.07c2.13-.66,3.68.6,5.3,1.61v0Z"/><path class="cls-9" d="M33.38,18.88,31.26,20Z"/><path class="cls-9" d="M31.28,19.93l-.58.53Z"/><path class="cls-15" d="M29.35,50.82l6.89,4.59c0,1.13.49,1.78,1.74,1.53h0l.44.43,0-.06L39,59.1c-1.57-.13-3.12-.25-4.31,1.18-.24.3-.86.29-1.3.42l-2.08.41-1.25-.41a55.3,55.3,0,0,0-1.87-6,4.6,4.6,0,0,0-2.31-2.25c-1.49-.59-2.28-1.33-2.06-3.07l2.51-.61Z"/><path class="cls-14" d="M29.35,50.82l-3-2h.38l.84,0,1.27,1.26Z"/><path class="cls-16" d="M27.58,48.8l-.84,0c.05-.3.09-.6.14-.9Z"/><path class="cls-16" d="M26.43,47.48l.44.46Z"/><path class="cls-12" d="M31.34,61.11l2.07-.41c0,.27,0,.53,0,.8l.45.78,1.57.08L37.09,64c-.4.33-1.07,1-1.16.94C34.36,63.7,32.85,62.39,31.34,61.11Z"/><path class="cls-26" d="M39.93,36c0,1.29,0,2.58,0,3.87.1,2.08,1.06,2.75,3,2.28a16.56,16.56,0,0,0,2.39-.36c1-.42,2.21-.91,2.64-1.73.66-1.28,1.59-1.38,2.18-.62,1.42,1.84,3,2.85,5.38,2.44l-.85,2.43c-2.2.3-4.4.53-6.58.93-1.39.26-1.88,1.12-.79,2.3s2.46,2.5,3.7,3.74a8.24,8.24,0,0,1-1.86,0c-1.45-.34-2.87-.79-4.3-1.2l-.09-2.11h0l.15-.08-.15-.23,0-.43c.07-.41.13-.82.19-1.24l-.12-2.71c-1.66-.9-2.57.16-3.35,1.35-.62,1-1.16,1.59-2,.27-.2-1.53-.42-3-.59-4.58S38.49,37.12,39.93,36Z"/><path class="cls-19" d="M44.9,50c1.43.41,2.85.86,4.3,1.2a8.24,8.24,0,0,0,1.86,0h0l4.1,1.23.41,1.24c0,.25-.07.49-.11.74-.22.45-.44.89-.65,1.34C53.68,59,51.72,59.93,48.2,59l-1.64-1.18-1.25-2.46-.3-.84-.21-2.72C44.83,51.19,44.87,50.6,44.9,50Z"/><path class="cls-27" d="M51.06,51.24c-1.24-1.24-2.51-2.45-3.7-3.74s-.6-2,.79-2.3c2.18-.4,4.38-.63,6.58-.93L55.5,46c0,.39.07.78.11,1.17s.19.56.29.85c0,.13,0,.27,0,.41-1.17.68-2.35,1.36-3.51,2-.44.26-.87.54-1.31.81Z"/><path class="cls-18" d="M40.79,53.71c.09-.31.37-.76.25-.9-1.3-1.57-.72-3.2-.26-4.84a17.28,17.28,0,0,1,1.63-2.73c.34-.39,1.15-.37,1.75-.54l-.14.78a4.57,4.57,0,0,0-.84,5.34l.52,4.1Z"/><path class="cls-25" d="M44.16,44.7c-.6.17-1.41.15-1.75.54A17.28,17.28,0,0,0,40.78,48l-1.22,0c-.68-3.06-1.57-6.1-2-9.2-.17-1.43-.15-3.32,1.71-4.18a10.6,10.6,0,0,0,.17,10.26c.86,1.32,1.4.68,2-.27.78-1.19,1.69-2.25,3.35-1.35Z"/><path class="cls-15" d="M55.5,46l-.77-1.68.85-2.43,3.47.54-.47-2,2.69.15c-.24,1.57-.48,3.13-.72,4.73L57.17,43.4c-.85-.38-1.34-.25-1.22.82Z"/><path class="cls-26" d="M51.06,51.24c.44-.27.87-.55,1.31-.81,1.16-.69,2.34-1.37,3.51-2-.05,1.24-.09,2.48-.14,3.72l-.58.37Z"/><path class="cls-25" d="M43.18,50.82A4.57,4.57,0,0,1,44,45.48Z"/><path class="cls-15" d="M44.9,50c0,.59-.07,1.18-.1,1.78a2.74,2.74,0,0,1,0-3.89Z"/><path class="cls-14" d="M55.16,52.47l.58-.37c-.06.54-.11,1.07-.17,1.61C55.44,53.3,55.3,52.88,55.16,52.47Z"/><path class="cls-15" d="M46.56,57.81,48.2,59Z"/><path class="cls-15" d="M45,45.91c-.06.42-.12.83-.19,1.24C44.86,46.74,44.92,46.33,45,45.91Z"/><path class="cls-14" d="M54.81,55.79c.21-.45.43-.89.65-1.34C55.24,54.89,55,55.34,54.81,55.79Z"/><path class="cls-26" d="M55.9,48c-.1-.29-.19-.57-.29-.85C55.71,47.4,55.8,47.68,55.9,48Z"/><path class="cls-15" d="M45,54.51l.3.84Z"/><path class="cls-15" d="M44.82,47.58l.15.23-.15.08A1.6,1.6,0,0,1,44.82,47.58Z"/><path class="cls-20" d="M39,59.1l-.63-1.78c1.13,1.48,2.3,2.93,3.32,4.48.12.18-.57.89-.89,1.36,0-.28-.07-.56-.1-.84Z"/><path class="cls-20" d="M38,56.94c-1.25.25-1.71-.4-1.74-1.53Z"/><path class="cls-20" d="M38.37,57.38,37.93,57Z"/><path class="cls-28" d="M39,59.1l1.7,3.22c-1.26.88-2.48,1.58-3.67-.19-.13-.2-1.06.14-1.61.23l-1.57-.08-.45-.78c0-.27,0-.53,0-.8.45-.13,1.07-.12,1.31-.42C35.91,58.85,37.46,59,39,59.1Z"/><path class="cls-15" d="M61.33,38.5l-1.26-3.25Z"/><path class="cls-16" d="M39.49,44.82a10.6,10.6,0,0,1-.17-10.26h0L41,34l-.3,1.2-.77.79c-1.44,1.16-1.19,2.74-1,4.28S39.29,43.29,39.49,44.82Z"/><path class="cls-25" d="M41,34l-1.67.58c-.53-1.84-1.82-1.34-3-1a.64.64,0,0,1,0-.41l0,0,.89-1.57,2.69.35Z"/><path class="cls-26" d="M41,34l-1.14-2c.74.39,1.77.59,2.15,1.2.75,1.22.47,2.21-1.31,2Z"/><path class="cls-15" d="M36.3,33.16c-1.08.19-2.29.59-2-1.31l1.86,0,.09,1.3Z"/><path class="cls-15" d="M33.53,25.42l1-1.77Z"/><path class="cls-15" d="M34.08,30.8c-.2-.74-.41-1.47-.61-2.21C33.67,29.33,33.88,30.06,34.08,30.8Z"/><path class="cls-20" d="M36.28,33.18l-.09-1.3,1-.27Z"/><path class="cls-15" d="M33.44,27c0-.27,0-.54,0-.82C33.45,26.45,33.45,26.72,33.44,27Z"/><path class="cls-25" d="M33.29,32.74l-.24-.65Z"/><path class="cls-20" d="M39.52,22.71l-.85-2.26C39.94,20.83,40.34,21.55,39.52,22.71Z"/><path class="cls-15" d="M33.43,61.5l.45.78Z"/></g></g></svg>