<svg xmlns="http://www.w3.org/2000/svg" xmlns:xlink="http://www.w3.org/1999/xlink" viewBox="0 0 100 100"><defs><style>.cls-1{fill:url(#linear-gradient);}.cls-2{fill:url(#linear-gradient-2);}</style><linearGradient id="linear-gradient" x1="27.5" y1="36.27" x2="75.95" y2="64.24" gradientUnits="userSpaceOnUse"><stop offset="0" stop-color="#1d1d1b"/><stop offset="0.5" stop-color="#3c3c3b"/><stop offset="1" stop-color="#1d1d1b"/></linearGradient><linearGradient id="linear-gradient-2" x1="11.67" y1="27.75" x2="88.4" y2="72.05" gradientUnits="userSpaceOnUse"><stop offset="0" stop-color="#18381d"/><stop offset="0.5" stop-color="#61b457"/><stop offset="1" stop-color="#18381d"/></linearGradient></defs><title>elf5</title><g id="Elf_2" data-name="Elf 2"><path class="cls-1" d="M49.74,30.3c.2,13.36,8.5,22.65,21.69,24.24,2.33.28,4.67.37,7,.67a8,8,0,0,1,2,.92,7.66,7.66,0,0,1-1,1.94c-1.19,1.33-2.72,2.4-3.7,3.86a13.82,13.82,0,0,0-2.29,5.16,7.51,7.51,0,0,1-6.55,6.6,7.71,7.71,0,0,1-7.78-4.63c-1.26-3.3,2-7.44,5.52-6.84a1.84,1.84,0,0,1,1.28,1.18,1.92,1.92,0,0,1-1,1.48c-1.54.75-4.13,1.05-2.76,3.43.73,1.26,3,2.16,4.68,2.24a3.41,3.41,0,0,0,3.58-4c-.28-1.91-1.26-4.28-2.73-5.35A30.56,30.56,0,0,0,50.05,55c-6.45-.1-10.92,3.39-14.49,8.29-1.51,2.07-2.63,4.41-4.06,6.54a7.65,7.65,0,0,1-1.94,1.46c-.38-.61-1.07-1.21-1.08-1.82,0-4.11-2.22-6.13-6-7.31a6.61,6.61,0,0,1-4.79-6.92c.07-3.17,2.16-6.29,5.35-6.88,1.84-.34,4.69,0,5.68,1.2,1.14,1.37.82,4,.9,6.12,0,.44-1,.91-1.6,1.37-.35-.61-1-1.2-1-1.82-.12-1.65,1.1-4.19-1.53-4.26C24,50.89,21.91,52.55,21,54c-1.39,2.18,0,4.33,2.09,5.17a8,8,0,0,0,5.42.27A27.6,27.6,0,0,0,43.74,45.13c3.38-7.39.35-13.67-3.92-19.61a14.64,14.64,0,0,1-1.46-1.83c-.26-.52-.44-1.58-.19-1.76a2.28,2.28,0,0,1,2-.35c4,2.46,7.52,2.2,11.25-1,2.58-2.18,6.52-1.31,8.84,1.1S63.37,28,61.36,30.6A6,6,0,0,1,57,32.91c-1.66-.12-3.23-1.62-4.76-2.65-.23-.15-.12-1.38,0-1.43a3.15,3.15,0,0,1,2.08-.13c1.49.77,3.15,2.89,4.37.38.66-1.34.2-3.76-.64-5.18-1.14-1.93-3.3-2-5.33-.85C50.44,24.41,49.69,26.18,49.74,30.3Zm-7,22.23H56.87c-2.73-4.11-5.79-8.7-8.37-12.57C46.74,43.81,44.79,48.07,42.74,52.53Zm28.75,8.08L74,57.87l-7.71-1.41ZM47,26.38H43.81L47,32.69Z"/><path class="cls-2" d="M70.56,16.59q12.5,12.6,25,25.2c5.79,5.83,5.83,10.57,0,16.37q-18.93,19-37.89,37.9c-5.27,5.25-10.17,5.25-15.39,0Q23,76.81,3.69,57.48c-4.74-4.75-4.8-10-.13-14.68Q17.9,28.49,32.31,14.26C33,14.24,44.22.78,46.34.31a12.79,12.79,0,0,1,9,1.26C58.69,3.47,69.65,15.44,70.56,16.59ZM49.74,30.3c-.05-4.12.7-5.89,3.06-7.25,2-1.17,4.19-1.08,5.33.85.84,1.42,1.3,3.84.64,5.18-1.22,2.51-2.88.39-4.37-.38a3.15,3.15,0,0,0-2.08.13c-.16.05-.27,1.28,0,1.43,1.53,1,3.1,2.53,4.76,2.65a6,6,0,0,0,4.32-2.31c2-2.64,1.32-6.34-1.12-8.88S54,18.44,51.4,20.62c-3.73,3.16-7.22,3.42-11.25,1a2.28,2.28,0,0,0-2,.35c-.25.18-.07,1.24.19,1.76a14.64,14.64,0,0,0,1.46,1.83c4.27,5.94,7.3,12.22,3.92,19.61A27.6,27.6,0,0,1,28.48,59.44a8,8,0,0,1-5.42-.27c-2.12-.84-3.48-3-2.09-5.17.94-1.45,3-3.11,4.5-3.07,2.63.07,1.41,2.61,1.53,4.26,0,.62.65,1.21,1,1.82.56-.46,1.61-.93,1.6-1.37-.08-2.1.24-4.75-.9-6.12-1-1.2-3.84-1.54-5.68-1.2-3.19.59-5.28,3.71-5.35,6.88a6.61,6.61,0,0,0,4.79,6.92c3.8,1.18,6,3.2,6,7.31,0,.61.7,1.21,1.08,1.82a7.65,7.65,0,0,0,1.94-1.46c1.43-2.13,2.55-4.47,4.06-6.54,3.57-4.9,8-8.39,14.49-8.29a30.56,30.56,0,0,1,17.69,6.28c1.47,1.07,2.45,3.44,2.73,5.35a3.41,3.41,0,0,1-3.58,4c-1.64-.08-4-1-4.68-2.24-1.37-2.38,1.22-2.68,2.76-3.43a1.92,1.92,0,0,0,1-1.48,1.84,1.84,0,0,0-1.28-1.18c-3.48-.6-6.78,3.54-5.52,6.84a7.71,7.71,0,0,0,7.78,4.63,7.51,7.51,0,0,0,6.55-6.6,13.82,13.82,0,0,1,2.29-5.16c1-1.46,2.51-2.53,3.7-3.86a7.66,7.66,0,0,0,1-1.94,8,8,0,0,0-2-.92c-2.32-.3-4.66-.39-7-.67C58.24,53,49.94,43.66,49.74,30.3Zm7.13,22.23c-2.73-4.11-5.79-8.7-8.37-12.57-1.76,3.85-3.71,8.11-5.76,12.57ZM74,57.87l-7.71-1.41,5.21,4.15ZM43.81,26.38,47,32.69V26.38Z"/></g></svg>