<svg xmlns="http://www.w3.org/2000/svg" xmlns:xlink="http://www.w3.org/1999/xlink" viewBox="0 0 100 100"><defs><style>.cls-1{fill:url(#linear-gradient);}.cls-2{fill:url(#linear-gradient-2);}</style><linearGradient id="linear-gradient" x1="0.16" y1="49.86" x2="99.98" y2="49.86" gradientUnits="userSpaceOnUse"><stop offset="0" stop-color="#797879"/><stop offset="0.5" stop-color="#010101"/><stop offset="1" stop-color="#797879"/></linearGradient><linearGradient id="linear-gradient-2" x1="12.16" y1="49.86" x2="87.98" y2="49.86" xlink:href="#linear-gradient"/></defs><title>finances</title><g id="Group_2" data-name="Group 2"><g id="finances"><path class="cls-1" d="M50.07,0A49.91,49.91,0,1,0,100,49.86,49.91,49.91,0,0,0,50.07,0Zm0,93.82A43.91,43.91,0,1,1,94,49.86,44,44,0,0,1,50.07,93.77Z"/><path class="cls-2" d="M50.07,12A37.91,37.91,0,1,0,88,49.86,38,38,0,0,0,50.07,12ZM60.39,70.5a13.2,13.2,0,0,1-7.32,3.43V81h-6V73.83a14.06,14.06,0,0,1-5.17-2.07,18.8,18.8,0,0,1-6.15-7.46L43,59.93q3.27,6,7.53,6a5.49,5.49,0,0,0,3.73-1.3,3.85,3.85,0,0,0,1.52-3,5.13,5.13,0,0,0-1.15-3.08,32.59,32.59,0,0,0-5-4.71q-7.4-6-9.56-9.32A11.85,11.85,0,0,1,37.88,38a10.7,10.7,0,0,1,3.59-8.09,12.11,12.11,0,0,1,5.6-3V19.25h6v7.57A13.86,13.86,0,0,1,56.8,28.1a23.64,23.64,0,0,1,6.65,5.73l-6.39,5.64c-2.24-3.12-4.53-4.68-6.85-4.68a4.16,4.16,0,0,0-2.78.91,2.64,2.64,0,0,0-1.08,2,3.52,3.52,0,0,0,.77,2.15,57.9,57.9,0,0,0,6.33,5.83q4.94,4.13,6,5.2A18.26,18.26,0,0,1,63.15,56a12.64,12.64,0,0,1,1.1,5.28A12.14,12.14,0,0,1,60.39,70.5Z"/></g></g></svg>