<svg id="Group_1" data-name="Group 1" xmlns="http://www.w3.org/2000/svg" xmlns:xlink="http://www.w3.org/1999/xlink" viewBox="0 0 100 100"><defs><style>.cls-1{fill:url(#linear-gradient);}</style><linearGradient id="linear-gradient" y1="50" x2="100" y2="50" gradientUnits="userSpaceOnUse"><stop offset="0" stop-color="#797879"/><stop offset="0.5" stop-color="#010101"/><stop offset="1" stop-color="#797879"/></linearGradient></defs><title>games</title><g id="games"><path class="cls-1" d="M88,14.25H77.5v-9a3.5,3.5,0,0,0-7,0v9H29.63V5.62a3.5,3.5,0,0,0-7,0v8.63H12a12,12,0,0,0-12,12v60a12,12,0,0,0,12,12H88a12,12,0,0,0,12-12v-60A12,12,0,0,0,88,14.25Zm0,78H12a6,6,0,0,1-6-6V40.5H94V86.25A6,6,0,0,1,88,92.25ZM77,46.17H71v9.21H61V46.17H55v9.21H45V46.17H39v9.21H29V46.17H23v9.21H12.17v6H23v10H12.17v6H23v9.2h6v-9.2H39v9.2h6v-9.2H55v9.2h6v-9.2H71v9.2h6v-9.2H87.83v-6H77v-10H87.83v-6H77ZM29,71.38v-10H39v10Zm16,0v-10H55v10Zm26,0H61v-10H71Z"/></g></svg>