<svg xmlns="http://www.w3.org/2000/svg" xmlns:xlink="http://www.w3.org/1999/xlink" viewBox="0 0 100 100"><defs><style>.cls-1{fill:url(#linear-gradient);}</style><linearGradient id="linear-gradient" x1="5.14" y1="50" x2="94.86" y2="50" gradientUnits="userSpaceOnUse"><stop offset="0" stop-color="#797879"/><stop offset="0.5" stop-color="#010101"/><stop offset="1" stop-color="#797879"/></linearGradient></defs><title>guru</title><g id="Group_4" data-name="Group 4"><path id="guru" class="cls-1" d="M94.8,30.45a10.82,10.82,0,0,0-5.64-9.66C78.58,14.61,67.94,8.53,57.34,2.38A17.43,17.43,0,0,0,51.64,0H48.32c-4.15.86-7.42,3.5-11,5.51-8.74,4.94-17.41,10-26.1,15.05A11.49,11.49,0,0,0,5.16,31.09q0,18.94,0,37.9A11.2,11.2,0,0,0,11,79.15c11.15,6.49,22.32,13,33.54,19.35A11,11,0,0,0,50,100a11.21,11.21,0,0,0,5.47-1.49C61.22,95.33,66.9,92,72.61,88.66c5.46-3.15,10.94-6.28,16.37-9.48a11.14,11.14,0,0,0,5.83-10.05C94.86,56.24,94.89,43.35,94.8,30.45Zm-80.56-4.7,4.65-2.7c7-4.07,14.24-8.27,21.39-12.31,1-.58,2-1.19,2.95-1.77A23.49,23.49,0,0,1,49,6h2a15.05,15.05,0,0,1,3.31,1.57l12.3,7.11c6.4,3.69,13,7.5,19.5,11.29a4.83,4.83,0,0,1,2.67,4.52c0,.46,0,.92,0,1.39H11.16V31.1A5.53,5.53,0,0,1,14.24,25.75Zm45.4,37h-3c-1.2,0-2.59.32-3.55-.17S51.62,60.81,51,59.85l-3.71-5.38c-1-1.53-1-1.53-3.07-1.34v9.6H38.43V38.18a1.55,1.55,0,0,1,.41-.09c3.19,0,6.38-.06,9.56,0a7.33,7.33,0,0,1,7.06,6c.55,3.3-.7,5.84-3.64,7.65ZM58.29,50.29c0-7.29,5.78-12.8,13.39-12.8a12.88,12.88,0,0,1,13.23,13c0,7.35-5.7,12.87-13.29,12.9S58.28,57.77,58.29,50.29ZM35.61,46a7.39,7.39,0,0,1-6.72,6.94c-1.48.12-3,0-4.58,0v9.76H18.62V38c3.75.11,7.44,0,11.07.38S35.79,42.19,35.61,46ZM85.94,74c-4.15,2.44-8.4,4.89-12.51,7.26l-3.82,2.2-4.68,2.71c-4.05,2.36-8.24,4.79-12.38,7.08A5.38,5.38,0,0,1,50,94a5,5,0,0,1-2.48-.72C36,86.73,24.59,80.12,14,74a5.2,5.2,0,0,1-2.84-5H88.81v.14A5.17,5.17,0,0,1,85.94,74ZM49.83,45.79a2.73,2.73,0,0,1-2.47,2.48,5.19,5.19,0,0,1-.68,0H44.21V42.71a27.79,27.79,0,0,1,3.6.28A2.47,2.47,0,0,1,49.83,45.79Zm-19.95-.2a2.67,2.67,0,0,1-2.57,2.68c-.74.07-1.49,0-2.24,0-.22,0-.44,0-.72-.06V42.81c1,0,2-.08,3,0A2.65,2.65,0,0,1,29.88,45.59Zm34.48,5.22a7.54,7.54,0,0,1,5.07-7.75,7.18,7.18,0,0,1,8.08,2.82,7.39,7.39,0,0,1,1.32,4.51c0,5.11-4.38,8.69-9.1,7.45A7.56,7.56,0,0,1,64.36,50.81Z"/></g></svg>