<svg xmlns="http://www.w3.org/2000/svg" viewBox="0 0 100 100"><defs><style>.cls-1{fill:#1b1b1b;}.cls-2{fill:#f2f2f2;}.cls-3{fill:#fff;}.cls-4{fill:#45ace2;}.cls-5{fill:#2080bc;}.cls-6{fill:#96d4eb;}.cls-7{fill:#d1eaf0;}</style></defs><title>human30</title><g id="Layer_13" data-name="Layer 13"><path class="cls-1" d="M48.32,98c-.15-.1-3.76-2.55-7.66-5.64C35.09,88,31.94,84.57,31,82.06a10.14,10.14,0,0,1,0-6.68,17.11,17.11,0,0,1,2.15-4.29l-2.08-2.65h0L30.8,68l-.65-.83-.94-1.21h0c-2.22-2.9-4-5.34-5.38-7.27-3.06-4.34-3.48-5.5-3.18-6.78.42-1.82,3.05-5.23,4.58-7.11l.54-.66-.91-5,4-6.58A21.17,21.17,0,0,0,31.24,23l-.12-1.55L35.35,19a16.38,16.38,0,0,1-3-4.54,12.88,12.88,0,0,1-1.16-5.75,14,14,0,0,1,2.4-7.12L34,1l3.57,2.65c.7.52,6.9,5.19,9,9.12a8.34,8.34,0,0,1,1.06,3.89h4.74a8.34,8.34,0,0,1,1.06-3.89c2.15-3.93,8.35-8.6,9-9.12L66.05,1l.4.61a14,14,0,0,1,2.4,7.12,12.88,12.88,0,0,1-1.16,5.75,16.38,16.38,0,0,1-3,4.54l4.23,2.45L68.76,23a21.13,21.13,0,0,0,2.39,9.53l4,6.58-.91,5,.54.66c1.53,1.88,4.16,5.29,4.58,7.11.3,1.28-.12,2.44-3.18,6.78C74.81,60.6,73,63,70.78,65.94h0l-.49.64-.44.57-1,1.29h0l-2.08,2.65c1.63,2.39,3.77,6.64,2.2,11-.91,2.51-4.06,5.89-9.63,10.33-3.9,3.09-7.51,5.54-7.66,5.64L50,99.17h0Z"/><path class="cls-2" d="M65.88,2c6.28,9.7-2.35,17.18-2.35,17.18l4.63,2.69L68.07,23a21.67,21.67,0,0,0,2.48,9.9l3.86,6.39-.92,5.05.74.9c1.2,1.48,4,5.09,4.44,6.84.22,1,0,1.87-3.07,6.23-1.45,2.06-3.42,4.71-5.85,7.87h0l-.45.57-.64.84h0l-.21.27c-1,1.32-1.92,2.45-2.54,3.24,1.49,2.06,4,6.41,2.42,10.75-.87,2.4-4,5.68-9.42,10-3.87,3.08-7.46,5.51-7.61,5.61L50,98.34h0l-1.29-.88c-.15-.1-3.74-2.53-7.61-5.61-5.47-4.35-8.55-7.63-9.42-10-1.57-4.34.93-8.69,2.42-10.75-.62-.79-1.52-1.92-2.54-3.24l-.21-.27h0l-.64-.84-.45-.57h0c-2.43-3.16-4.4-5.81-5.85-7.87-3.06-4.36-3.29-5.28-3.07-6.23.4-1.75,3.24-5.36,4.44-6.84l.74-.9-.92-5.05,3.86-6.39A21.67,21.67,0,0,0,31.93,23l-.09-1.13,4.63-2.69S27.84,11.67,34.12,2l3,2.22c.69.51,6.78,5.1,8.86,8.9a7.75,7.75,0,0,1,1,4.25h6.14a7.75,7.75,0,0,1,1-4.25c2.08-3.8,8.17-8.39,8.86-8.9l3-2.22m.35-2L65.06.87l-3,2.22c-.33.24-2.08,1.56-4,3.29a25.52,25.52,0,0,0-5.24,6.05A9.14,9.14,0,0,0,51.72,16H48.28a9.14,9.14,0,0,0-1.1-3.53,25.52,25.52,0,0,0-5.24-6c-1.93-1.73-3.68-3-4-3.29l-3-2.22L33.77,0,33,1.23a13.62,13.62,0,0,0-1.28,13.52,17.07,17.07,0,0,0,2.58,4.08l-3.12,1.82-.74.43.06.86.09,1.11a14.54,14.54,0,0,1-.22,2.69,23.16,23.16,0,0,1-2.1,6.47l-3.82,6.34-.27.44.09.51.81,4.43-.34.42c-.68.83-1.68,2.09-2.59,3.39a13.55,13.55,0,0,0-2.13,4,3.94,3.94,0,0,0,.39,2.73,33.48,33.48,0,0,0,2.89,4.61c1.27,1.79,2.92,4,4.94,6.67h0l1,1.25.44.57.64.83.7.91h0l1.42,1.83a17.29,17.29,0,0,0-2,4,10.74,10.74,0,0,0-.05,7.12c1,2.68,4.1,6.06,9.86,10.63,3.88,3.09,7.51,5.55,7.69,5.68l1.29.87L50,100h0l.77-.53,1.29-.87c.18-.13,3.81-2.59,7.69-5.68,5.76-4.57,8.89-8,9.86-10.63a10.74,10.74,0,0,0-.05-7.12,17.29,17.29,0,0,0-1.95-4L69,69.3h0l.7-.91.64-.83.44-.57,1-1.25h0c2-2.63,3.67-4.88,4.94-6.67a33.48,33.48,0,0,0,2.89-4.61A3.94,3.94,0,0,0,80,51.73a13.55,13.55,0,0,0-2.13-4c-.91-1.3-1.91-2.56-2.59-3.39L75,43.93l.81-4.43.09-.51-.27-.44-3.82-6.34a23.16,23.16,0,0,1-2.1-6.47,14.54,14.54,0,0,1-.22-2.69l.09-1.11.06-.86-.74-.43-3.12-1.82a17.07,17.07,0,0,0,2.58-4.08A13.62,13.62,0,0,0,67,1.23L66.23,0Z"/><path class="cls-3" d="M62.94,49.57s-1.6,1.86-2.49,8.8v.34C65.77,57.53,66,51.94,62.94,49.57Z"/><path class="cls-4" d="M76.77,52.45c-.36-1.52-4.08-6.09-4.08-6.09l-2.63,6,0,.06,2.31-12.69-8-9.65.07.06,4.36,3.5a22.86,22.86,0,0,1-2.66-10.83l-3.88-2.26-.2-.11-2.13.5V19.79H58.68s-1.51-1.44,2-4.82c3-2.87,3.34-7.57,3.37-8.93V5.66S57.71,10.4,55.76,14c-1.76,3.2.08,6.41.46,7l.07.1L56.23,21l-1.89-1.8H45.66l-1.95,1.86c.06-.08,2.46-3.6.53-7.11s-8.33-8.29-8.33-8.29-.18,5.92,3.37,9.31,2,4.82,2,4.82H40.08V21L38,20.47l-4.08,2.37a22.86,22.86,0,0,1-2.66,10.83l4.43-3.56-8,9.65L30,52.45l-2.66-6.09s-3.72,4.57-4.08,6.09c-.21.93,4.75,7.61,8.68,12.71,6.19-3.2,4.62-4.59,4.62-4.59l-2.3-1.86,2.3.68s-6.91-4.57-1.42-11.34A4.52,4.52,0,0,0,31,46.53c2.49-1.53,9-.68,9.93,10.83l2.59-.87L50,30.65l6.45,25.84,2.59.87C59.92,45.85,66.48,45,69,46.53a4.18,4.18,0,0,0-2.71.47,5.23,5.23,0,0,0-1.37,1c5.49,6.77-1.42,11.34-1.42,11.34l2.29-.68h0l-2.29,1.85S61.9,62,68.09,65.16C72,60.06,77,53.38,76.77,52.45ZM55.31,25.71l-4.08.85-1.23,4-1.23-4-4.08-.85-1.77,2.37,1.59-3.72L50,23.85l5.49.51,1.6,3.72Z"/><path class="cls-4" d="M63.47,71.06s1.46-1.82,3.41-4.34c-2-1.12-5.42-3.34-5.54-5.81l-6-2.26A29.37,29.37,0,0,1,56,66.49c-.17,4.67-5.85,8.35-6,8.46h0c-.26-.17-5.84-3.83-6-8.46,0-.21,0-.41,0-.62a29.21,29.21,0,0,1,.7-7.22l-6,2.26c-.12,2.47-3.49,4.69-5.54,5.81,2,2.52,3.41,4.34,3.41,4.34s-4.79,5.25-3,10.16S49.83,95.94,49.83,95.94h.34s4.59-3.1,8.93-6.69c3.38-2.79,6.61-5.88,7.38-8,1.69-4.68-2.58-9.66-3-10.12Zm-20,14.56-.71-1.86c-5.14-.34-4.79-6.1-3.55-8.13L38,74.11C46.11,77,43.45,85.62,43.45,85.62ZM42.21,67.17a6.07,6.07,0,0,0,3.54,6.94C40.61,73.77,40.26,69.37,42.21,67.17Zm15.58,0c2,2.2,1.6,6.6-3.54,6.94A6.07,6.07,0,0,0,57.79,67.17ZM56.55,85.61h0v0h0a11.46,11.46,0,0,1-.26-1.27c-.38-2.52-.42-8,5.72-10.19l0,0-.06.07-1.18,1.45c1.24,2,1.59,7.79-3.55,8.13l-.68,1.79Z"/><path class="cls-5" d="M66.45,76.35c-.83,2.14-4,5.19-7.35,8C54.76,87.89,50.17,91,50.17,91h-.34S35.45,81.28,33.55,76.35a7.63,7.63,0,0,0,0,4.93C35.29,86.19,49.83,96,49.83,96h.34s4.59-3.1,8.93-6.69c3.38-2.79,6.61-5.89,7.38-8A7.63,7.63,0,0,0,66.45,76.35Z"/><path class="cls-3" d="M37.06,49.57s1.6,1.86,2.49,8.8v.34C34.23,57.53,34.05,51.94,37.06,49.57Z"/><path class="cls-6" d="M53.51,67.87l-.65-3.08-.74-3.54v8.21A6.14,6.14,0,0,1,50,70.55h0a4.76,4.76,0,0,1-.68-.24,6.32,6.32,0,0,1-1.43-.85V61.25l-1.39,6.62a6,6,0,0,1-.74-3.27c0-.48.08-1.12.16-1.87.76-6.45,3.84-21.3,4.08-22.47v0c.27,1.3,4,19.32,4.23,24.22,0,0,0,.08,0,.12A6,6,0,0,1,53.51,67.87Z"/><path class="cls-7" d="M64.09,6c-1.55,4-4.77,5.81-6.65,7.85S56.08,20.17,56.22,21c-.38-.6-2.22-3.81-.46-7,2-3.55,8.33-8.29,8.33-8.29Z"/><path class="cls-5" d="M68.79,33.67l-4.36-3.5-4.91-4.91,3.57.76c1.39-2.28-1.09-5.4-1.09-5.4l.25,0,3.88,2.26A22.86,22.86,0,0,0,68.79,33.67Z"/><path class="cls-5" d="M65.76,58.71l-2.29.68s6.91-4.57,1.42-11.34a5.23,5.23,0,0,1,1.37-1c6.64,6.87-.49,11.69-.49,11.69Z"/><path class="cls-5" d="M68.09,65.16c-6.19-3.2-4.62-4.59-4.62-4.59l2.29-1.85-.88,2s2.18,2.08,4.57-1.8.59-6.44.59-6.44l0,0,2.63-6s3.72,4.57,4.08,6.09C77,53.38,72,60.06,68.09,65.16Z"/><path class="cls-7" d="M52.18,33.69,57,53.2s.89-7,6.25-8.24c0,0-4.66-.85-6.25,2.08Z"/><path class="cls-7" d="M35.89,6c1.54,4,4.76,5.81,6.64,7.85s1.36,6.28,1.22,7.07c.38-.6,2.23-3.81.47-7-1.95-3.55-8.34-8.29-8.34-8.29S35.88,5.8,35.89,6Z"/><path class="cls-5" d="M31.18,33.67l4.36-3.5,4.91-4.91L36.88,26c-1.39-2.28,1.09-5.4,1.09-5.4l-.24,0-3.89,2.26A22.86,22.86,0,0,1,31.18,33.67Z"/><path class="cls-5" d="M34.21,58.71l2.29.68s-6.91-4.57-1.41-11.34a5.43,5.43,0,0,0-1.38-1c-6.63,6.87.49,11.69.49,11.69Z"/><path class="cls-5" d="M31.88,65.16c6.19-3.2,4.62-4.59,4.62-4.59l-2.29-1.85.88,2s-2.18,2.08-4.56-1.8-.6-6.44-.6-6.44l0,0-2.63-6s-3.72,4.57-4.08,6.09C23,53.38,28,60.06,31.88,65.16Z"/><path class="cls-7" d="M47.79,33.69,42.93,53.2s-.89-7-6.25-8.24c0,0,4.66-.85,6.25,2.08Z"/><path class="cls-4" d="M50.69,67.88,50,61.82l-.89,1.89-.79-7.48-2.09,6.63-.31-.13c-.08.75-.14,1.39-.16,1.87a6,6,0,0,0,.74,3.27l1.39-6.62v8.21a6.32,6.32,0,0,0,1.43.85h0a4.76,4.76,0,0,0,.68.24h0a6.14,6.14,0,0,0,2.11-1.09V64.19l-.54,3Z"/><path class="cls-4" d="M54.24,64.48a9.94,9.94,0,0,1-.77,1.12l-.61-.81.65,3.08a6,6,0,0,0,.74-3.27S54.24,64.52,54.24,64.48Z"/><path class="cls-5" d="M62.2,82.37C61.11,84.93,57,86.44,57,86.44s-.19,0-.46-.89l.68-1.79c5.14-.34,4.79-6.1,3.55-8.13L62,74.18,61.71,76C63.19,77.54,63.29,79.81,62.2,82.37Z"/><path class="cls-5" d="M37.86,82.37C39,84.93,43,86.44,43,86.44s.19,0,.46-.89l-.68-1.79c-5.14-.34-4.79-6.1-3.55-8.13l-1.18-1.45L38.35,76C36.87,77.54,36.77,79.81,37.86,82.37Z"/></g></svg>