<svg xmlns="http://www.w3.org/2000/svg" xmlns:xlink="http://www.w3.org/1999/xlink" viewBox="0 0 100 100"><defs><style>.cls-1{fill:url(#linear-gradient);}.cls-2{fill:url(#linear-gradient-2);}.cls-3{fill:url(#linear-gradient-3);}</style><linearGradient id="linear-gradient" x1="4.9" y1="15.39" x2="94.41" y2="67.07" gradientUnits="userSpaceOnUse"><stop offset="0" stop-color="#1d1d1b"/><stop offset="0.5" stop-color="#3c3c3b"/><stop offset="1" stop-color="#1d1d1b"/></linearGradient><linearGradient id="linear-gradient-2" x1="30.66" y1="48.18" x2="65.37" y2="68.22" gradientUnits="userSpaceOnUse"><stop offset="0" stop-color="#fff"/><stop offset="0.5" stop-color="#b2b2b2"/><stop offset="1" stop-color="#fff"/></linearGradient><linearGradient id="linear-gradient-3" x1="28.55" y1="34.99" x2="72.23" y2="60.21" gradientUnits="userSpaceOnUse"><stop offset="0" stop-color="#cfc732"/><stop offset="0.5" stop-color="#fff3b1"/><stop offset="1" stop-color="#cfc732"/></linearGradient></defs><title>human</title><g id="Human"><path class="cls-1" d="M8.86,38.16v-1c0-11.06.06-14.46.09-25.52A11.4,11.4,0,0,1,20.43,0H79.57A11.54,11.54,0,0,1,91.05,11.6c0,11.2.06,14.35.09,25.55v1c0,.53,0,1.07,0,1.61v1.16q0,8.09,0,16.17l0,.46c0,.19,0,.38,0,.56,0,.53,0,1.07,0,1.6v1.21s-.09,8.81-.08,8.81A11.52,11.52,0,0,1,86,79.34C74.38,86.71,68,90.77,56.45,98.16a11.71,11.71,0,0,1-12.32.17C32.4,90.88,26.24,87,14.48,79.6a11.42,11.42,0,0,1-5.54-9.91c0-4-.06-4.75-.1-8.77V59.63l0-1.51c0-.36,0-.73,0-1.1V41c0-.43,0-.86,0-1.29S8.86,38.67,8.86,38.16Z"/><path class="cls-2" d="M66,47.75a35.88,35.88,0,0,1-6.21,1.73c-1.87.25-8,.05-8.15,0a22,22,0,0,1-7.21-2.06c-2.88-1.28-5.36-4.52-7-4.76-1.91-.27-3-.25-3.88.55,0,.13-.07,4.84-.08,5-.14,3.14-.42,6.29-.37,9.43a61.89,61.89,0,0,0,.68,8.49,9.61,9.61,0,0,0,7.62,8.5,32.78,32.78,0,0,0,17.14-.15A9.17,9.17,0,0,0,64.82,69a16.71,16.71,0,0,0,1.24-5.64q.24-5.28.26-10.56C66.32,51.13,66.08,49.47,66,47.75ZM54.41,50.94h0C54.43,50.74,54.45,50.7,54.41,50.94Zm-6.66,10.7a4.28,4.28,0,0,0,2,.52c1.93,0,2.59-.73,3.16-3.16h2.41a5.51,5.51,0,0,1-5.55,5.71A5.61,5.61,0,0,1,44,59h2.45C46.64,60,46.79,61.09,47.75,61.64ZM38,54a1.38,1.38,0,0,1,.08-1.12c-1.07-.41-3.53-1.3-4.58-1.7.32-.82.61-1.57.91-2.32A37.24,37.24,0,0,0,46.94,51.7c.06,1,0,2.36,0,2.36s-2.23,0-2.43-.08a1.3,1.3,0,0,1-.18,1A2.54,2.54,0,0,1,42.56,56a4.58,4.58,0,0,1-3.11-.52A2.85,2.85,0,0,1,38,54Zm2.3,14.85.81-2.4a23,23,0,0,0,17.09,0c.29.88.54,1.62.8,2.39A26,26,0,0,1,40.34,68.82Zm20.87-16a1.8,1.8,0,0,1-.71,2.26,4.56,4.56,0,0,1-4.13.82c-1-.3-1.74-1.09-1.52-2L53.5,54l-.8.06a8.35,8.35,0,0,1,0-2.27A26.93,26.93,0,0,0,65,48.83l.87,2.33C64.73,51.58,62.39,52.48,61.21,52.83Z"/><path class="cls-3" d="M74.26,35.39a4.19,4.19,0,0,1-1.77.59c-.88,0-2-1.62-3.32-2.84-1.64-1.55-3-3.43-4.53-5.09a11.19,11.19,0,0,0-10.46-3.72c-3,.5-5.82,1.57-8.73,2.32a4.22,4.22,0,0,1-2.27.12c-4.25-1.54-7.69-.86-10.73,2.47-5.22,5.71-6.12,12.6-5.33,20a7.12,7.12,0,0,1-.24,3.45,8.28,8.28,0,0,0,1.08,9,4.11,4.11,0,0,1,1,2.07l1.15.4c-.09-3.6,0-7.25,0-11.41,0-.55,0-1.84,0-2.51,0-2.67-.09-5.16.06-7.64a4.23,4.23,0,0,1,1.13-2.38c1.81-1.95,7.63-1.52,9.37.5,3.13,3.66,7.34,5.19,11.94,5.86A26,26,0,0,0,69,43.62v9.67s.38,6.5.14,9.8l1.34-.43.09-.12c1.89-2,2.94-4.52,2.28-7.09-.74-2.9-.2-5.66-.15-8.49a10,10,0,0,0-.15-2.26,10.42,10.42,0,0,1,.9-6.18C74,37.61,74,36.25,74.26,35.39Z"/></g></svg>