<svg id="Group_1" data-name="Group 1" xmlns="http://www.w3.org/2000/svg" xmlns:xlink="http://www.w3.org/1999/xlink" viewBox="0 0 100 100"><defs><style>.cls-1{fill:url(#linear-gradient);}</style><linearGradient id="linear-gradient" x1="9.3" y1="50" x2="90.7" y2="50" gradientUnits="userSpaceOnUse"><stop offset="0" stop-color="#797879"/><stop offset="0.5" stop-color="#010101"/><stop offset="1" stop-color="#797879"/></linearGradient></defs><title>league</title><g id="league"><path id="Isolation_Mode" data-name="Isolation Mode" class="cls-1" d="M29.9,100V94.31H71V100ZM88.18,2.6H75.1V2.43A21.9,21.9,0,0,0,74.87,0H25.08c0,.79-.09,1.54-.14,2.36v.21H11.8A2.23,2.23,0,0,0,9.32,4.51a2.31,2.31,0,0,0,.07.91c.24,1.4.51,2.79.79,4.19a143.29,143.29,0,0,0,6.59,24,31.73,31.73,0,0,0,5.87,10.17A9.35,9.35,0,0,0,27.39,47c1.93.45,6.4,1.63,8.77,2.22h0q4.5,4.7,9,9.45a2.52,2.52,0,0,1,.7,1.55c.11,5.12.14,10.25.19,15.38a1,1,0,0,1-.06.48,16.36,16.36,0,0,1-3.54,5.58,3,3,0,0,1-1.74.7c-.63,0-1.26,0-1.89,0H35.65c-.84,0-1.23.32-1.23,1v5.16a.83.83,0,0,0,.75.9.6.6,0,0,0,.19,0H65.15a.91.91,0,0,0,1-.82.34.34,0,0,0,0-.1v-5.3c0-.36,0-.87-.91-.87H60.67a1.1,1.1,0,0,1-.79-.26c-1.41-1.6-2.81-3.22-4.14-4.89a2.8,2.8,0,0,1-.58-1.57q-.09-7.69,0-15.38A2,2,0,0,1,55.63,59a82.61,82.61,0,0,0,8.51-9.33,6.75,6.75,0,0,1,.51-.65c2.47-.63,6.22-1.61,7.94-2a9.34,9.34,0,0,0,4.75-3.18,31.36,31.36,0,0,0,5.87-10.17,141.41,141.41,0,0,0,6.59-24c.28-1.4.55-2.79.79-4.19a2.23,2.23,0,0,0-1.45-2.8A2.4,2.4,0,0,0,88.18,2.6ZM22.82,36.22c-3.4-5.56-8.58-29.11-8.58-29.11H24.83A105.46,105.46,0,0,0,27.19,30a53.57,53.57,0,0,0,5.17,13.67C27.7,42.93,26.06,41.52,22.82,36.22Zm54.34,0c-3.2,5.23-4.84,6.67-9.36,7.41A63.43,63.43,0,0,0,72.37,30.3,114.62,114.62,0,0,0,75.13,7.11H85.74S80.56,30.66,77.16,36.22Z"/></g></svg>