<svg xmlns="http://www.w3.org/2000/svg" xmlns:xlink="http://www.w3.org/1999/xlink" viewBox="0 0 100 100"><defs><style>.cls-1{fill:url(#linear-gradient);}</style><linearGradient id="linear-gradient" x1="15.44" y1="50" x2="84.56" y2="50" gradientUnits="userSpaceOnUse"><stop offset="0" stop-color="#797879"/><stop offset="0.5" stop-color="#010101"/><stop offset="1" stop-color="#797879"/></linearGradient></defs><title>magician3</title><g id="Layer_1" data-name="Layer 1"><path class="cls-1" d="M84.56,52.65c0-2.17-4.41-4.12-11.42-5.47l-11-32.53L68,9,80.68,5.63,57,0,37.73,12.88,27.05,47.15c-7.12,1.35-11.61,3.31-11.61,5.5s4.1,4,10.68,5.32v13.9a20.13,20.13,0,0,0,7.73,16.35,44.42,44.42,0,0,0,4.48,2.87c2.93,1.71,6,3.48,6.91,5.8l1.28,3.1,2.94-1.6c1-.55,2.06-1.09,3.14-1.65,5.4-2.77,11.51-5.91,16.18-12,2.58-3.33,4.59-10.11,4.59-15.43V58.08C80.25,56.73,84.56,54.8,84.56,52.65Zm-17.62-5,1.8,5.16A129,129,0,0,1,50,54,129.41,129.41,0,0,1,31.55,52.8l1.63-5.19c5,.48,10.71.76,16.82.76S61.93,48.09,66.94,47.6ZM65.11,65.69A9.79,9.79,0,0,1,59,74.44a24.91,24.91,0,0,1-18.78,0c-5-2-6-7.78-6-9.23v-6A146.06,146.06,0,0,0,50,60a149.13,149.13,0,0,0,15.11-.74ZM37,35.56,42.83,16.7,58.17,6.45l3.08.74L58,10.3,55.23,13l1.22,3.62L65,41.86c-4.2.37-9.21.62-15,.62s-10.81-.25-15-.62l2-6.3Zm16,28.8a3,3,0,1,1,3,3A3,3,0,0,1,53,64.36Zm-6.27,0a3,3,0,1,1-3-3A3,3,0,0,1,46.74,64.36Z"/></g></svg>