<svg xmlns="http://www.w3.org/2000/svg" xmlns:xlink="http://www.w3.org/1999/xlink" viewBox="0 0 100 100"><defs><style>.cls-1{fill:url(#linear-gradient);}</style><linearGradient id="linear-gradient" x1="0.16" y1="49.86" x2="99.98" y2="49.86" gradientUnits="userSpaceOnUse"><stop offset="0" stop-color="#797879"/><stop offset="0.5" stop-color="#010101"/><stop offset="1" stop-color="#797879"/></linearGradient></defs><title>marketplace</title><g id="Group_2" data-name="Group 2"><path class="cls-1" d="M50.07,0A49.91,49.91,0,1,0,100,49.86,49.91,49.91,0,0,0,50.07,0Zm0,93.82A43.91,43.91,0,1,1,94,49.86,44,44,0,0,1,50.07,93.77Zm0-81.82A37.91,37.91,0,1,0,88,49.86,38,38,0,0,0,50.07,12ZM36.67,33.67h30.6L62.64,29l4.24-4.24L78.75,36.67,67,48.45l-4.24-4.24,4.55-4.54H36.67c-5.44,0-9.09,3.65-9.09,9.08h-6C21.58,40,27.93,33.67,36.67,33.67Zm27,32.71H33.07L37.7,71l-4.25,4.24L21.58,63.38,33.37,51.59l4.24,4.24-4.54,4.55h30.6c5.43,0,9.08-3.65,9.08-9.08h6C78.75,60,72.41,66.38,63.67,66.38Z"/></g></svg>