<svg xmlns="http://www.w3.org/2000/svg" xmlns:xlink="http://www.w3.org/1999/xlink" viewBox="0 0 100 100"><defs><style>.cls-1{fill:url(#linear-gradient);}</style><linearGradient id="linear-gradient" y1="50" x2="100" y2="50" gradientUnits="userSpaceOnUse"><stop offset="0" stop-color="#797879"/><stop offset="0.5" stop-color="#010101"/><stop offset="1" stop-color="#797879"/></linearGradient></defs><title>messages2</title><g id="Group_2" data-name="Group 2"><path class="cls-1" d="M92.3,14.56H7.7A7.72,7.72,0,0,0,0,22.26V77.74a7.72,7.72,0,0,0,7.7,7.7H92.3a7.72,7.72,0,0,0,7.7-7.7V22.26A7.72,7.72,0,0,0,92.3,14.56ZM6.52,72.32V27.08C12.73,33,23,42.71,30.19,49.56Zm2.54,6.6L34.94,54.05c1.39,1.3,2.46,2.31,3.07,2.87,4.72,4.36,8.42,6.3,12,6.3,2.83,0,6-.57,10.4-4.7L65,54.11,91,78.92Zm84.42-6.64L69.78,49.62l23.7-22.49Z"/></g></svg>