<svg xmlns="http://www.w3.org/2000/svg" xmlns:xlink="http://www.w3.org/1999/xlink" viewBox="0 0 100 100"><defs><style>.cls-1{fill:url(#linear-gradient);}</style><linearGradient id="linear-gradient" y1="50.01" x2="100" y2="50.01" gradientUnits="userSpaceOnUse"><stop offset="0" stop-color="#797879"/><stop offset="0.5" stop-color="#010101"/><stop offset="1" stop-color="#797879"/></linearGradient></defs><title>notes</title><g id="Group_4" data-name="Group 4"><path class="cls-1" d="M84.06,18.26,68.57,45.06V15a5,5,0,0,0-4.93-4.93H42.54V8.29h0a8.31,8.31,0,0,0-16.61,0h0v1.8h-21A5,5,0,0,0,0,15V94.83a5,5,0,0,0,4.93,4.93H63.64a5,5,0,0,0,4.93-4.93v-13L100,27.35Zm-49.84-12a2.33,2.33,0,1,1-2.33,2.33A2.34,2.34,0,0,1,34.22,6.26ZM62.6,93.79H6V16.06H18v6H50.54v-6H62.6V55.38L51.3,74.94v18.4l11.3-6.78Zm.6-14.54-.5.29-5.42-3,22.8-39.45,5.62,3.13ZM83.06,31.91l3.2-5.52,5.57,3.17L88.68,35ZM56.63,35H23.88V29H56.63ZM17.91,32a3,3,0,1,1-3-3A3,3,0,0,1,17.91,32ZM56.63,47.94H23.88V42H56.63ZM17.91,45a3,3,0,1,1-3-3A3,3,0,0,1,17.91,45Zm0,12.93a3,3,0,1,1-3-3A3,3,0,0,1,17.91,57.89Zm0,12.94a3,3,0,1,1-3-3A3,3,0,0,1,17.91,70.83Zm0,12.94a3,3,0,1,1-3-3A3,3,0,0,1,17.91,83.77ZM52.58,60.88H23.88v-6H56.42Zm-28.7,7H48.09l-2.84,4.42v1.56H23.88Zm0,12.94H45.25v6H23.88Z"/></g></svg>