<svg xmlns="http://www.w3.org/2000/svg" xmlns:xlink="http://www.w3.org/1999/xlink" viewBox="0 0 100 100"><defs><style>.cls-1{fill:url(#linear-gradient);}.cls-2{fill:url(#linear-gradient-2);}.cls-3{fill:url(#linear-gradient-3);}</style><linearGradient id="linear-gradient" x1="4.9" y1="15.39" x2="94.41" y2="67.07" gradientUnits="userSpaceOnUse"><stop offset="0" stop-color="#1d1d1b"/><stop offset="0.5" stop-color="#3c3c3b"/><stop offset="1" stop-color="#1d1d1b"/></linearGradient><linearGradient id="linear-gradient-2" x1="40.07" y1="51.96" x2="59.07" y2="62.93" gradientUnits="userSpaceOnUse"><stop offset="0" stop-color="#fff"/><stop offset="0.5" stop-color="#b2b2b2"/><stop offset="1" stop-color="#fff"/></linearGradient><linearGradient id="linear-gradient-3" x1="23.91" y1="35.72" x2="69.54" y2="62.06" gradientUnits="userSpaceOnUse"><stop offset="0" stop-color="#5e7d38"/><stop offset="0.5" stop-color="#b1d392"/><stop offset="1" stop-color="#5e7d38"/></linearGradient></defs><title>orc</title><g id="Orc"><path class="cls-1" d="M8.86,38.16v-1c0-11.06.06-14.46.09-25.52A11.4,11.4,0,0,1,20.43,0H79.57A11.54,11.54,0,0,1,91.05,11.6c0,11.2.06,14.35.09,25.55v1c0,.53,0,1.07,0,1.61v1.16q0,8.09,0,16.17l0,.46c0,.19,0,.38,0,.56,0,.53,0,1.07,0,1.6v1.21s-.09,8.81-.08,8.81A11.52,11.52,0,0,1,86,79.34C74.38,86.71,68,90.77,56.45,98.16a11.71,11.71,0,0,1-12.32.17C32.4,90.88,26.24,87,14.48,79.6a11.42,11.42,0,0,1-5.54-9.91c0-4-.06-4.75-.1-8.77V59.63l0-1.51c0-.36,0-.73,0-1.1V41c0-.43,0-.86,0-1.29S8.86,38.67,8.86,38.16Z"/><path class="cls-2" d="M43.24,59.68c-1.14.41-2.14.78-3.16,1.12a.53.53,0,0,1-.44-.2,12,12,0,0,1-1.86-4.67Zm13.52,0c1.13.4,2.13.78,3.15,1.11a.58.58,0,0,0,.48-.24,13.88,13.88,0,0,0,1.93-4.68Z"/><path class="cls-3" d="M63.11,65.07c-.53,2.24-1,4.5-1.6,6.75a.81.81,0,0,1-.48.4,47.13,47.13,0,0,1-13.44,1.27,53.09,53.09,0,0,1-8.5-1.23.79.79,0,0,1-.67-.69c-.49-2.18-1-4.34-1.53-6.5C42.92,61.58,56.89,61.5,63.11,65.07Zm4.83-15.85c-.48-5.49-1.36-10.92-2.37-16.33a1.57,1.57,0,0,0-.51-.82,24.74,24.74,0,0,0-5.78-3.63,35.25,35.25,0,0,0-3.88-1.5A33.23,33.23,0,0,0,50,26.45a28.68,28.68,0,0,0-5.31.58c-.2,0-.34.06-.48.1a26,26,0,0,0-9.26,4.94,1.58,1.58,0,0,0-.5.83,136.45,136.45,0,0,0-2.71,22.53,50.63,50.63,0,0,0,.66,9.84.86.86,0,0,0,.33.53c.65.27,1.32.47,2.18.77L34,64l3.4-2c-2-4-2.64-8.46-4.14-12.65,1.36,1.06,2.62,2.22,4,3.22,3,2.19,6.08,4.26,9.07,6.47a5.3,5.3,0,0,0,3.06,1,6.14,6.14,0,0,0,5.1-1.67,1.44,1.44,0,0,1,.25-.18c2.68-1.89,5.38-3.74,8-5.68,1.35-1,2.59-2.14,3.88-3.21-1.45,4.23-2.09,8.73-4.09,12.69L66,64l-.87,2.62c.86-.3,1.53-.51,2.17-.77a.65.65,0,0,0,.32-.47c.18-1.25.37-2.5.47-3.75A76.13,76.13,0,0,0,67.94,49.22ZM61.36,47h0a3.23,3.23,0,0,1,.1.76,3,3,0,0,1-2.89,3.06A2.94,2.94,0,0,1,55.67,48l-.64,0,1.84,5.24h0a.62.62,0,0,1-.11.64,6,6,0,0,1-4.68,2.88,14.52,14.52,0,0,1-5.83-.37,6.19,6.19,0,0,1-3.2-2.65.77.77,0,0,1,.08-.65L45,47.93h0l-.69-.06a2.9,2.9,0,1,1-5.79-.14,3.42,3.42,0,0,1,.11-.79c-2.75-1.51-4-5.55-4-5.55l1.8-1.71.59.6a17.17,17.17,0,0,0,6.63,4.66,34,34,0,0,0,3.74.77.7.7,0,0,0,.39,0c-.69,3.37-1.36,6.67-2,7.69,1.7,1.55,6.9,1.56,8.33,0-.67-1-1.34-4.36-2-7.74a1.11,1.11,0,0,0,.43.07A13.52,13.52,0,0,0,61,42.11c.9-.79,1.76-1.64,2.63-2.44l1.64,1.8S63.92,45.22,61.36,47ZM28.67,49.88c0-.61.19-2.31.29-3,.12-1.06.27-2.17.45-3.32l-.28-.16a13.46,13.46,0,0,0-5.08-1.52c-1.15-.13-2.31-.17-3.55-.25a4.79,4.79,0,0,0,.31.69c.8,1.32,1.63,2.62,2.41,4,1.66,2.85,3.3,5.72,5,8.57a3.6,3.6,0,0,0,.28.4C28.46,53.72,28.51,51.93,28.67,49.88ZM79.4,41.52c-1.87.25-3.77.38-5.61.8a17.49,17.49,0,0,0-3.36,1.41c.13,1,.26,2.12.38,3.36.09.68.18,2.14.26,3,.12,1.75.21,3.61.23,5.5a6,6,0,0,0,.51-.73c.74-1.36,1.39-2.78,2.18-4.1,1.51-2.5,3.1-4.94,4.64-7.41.33-.52.58-1.09.87-1.64Z"/></g></svg>