<svg xmlns="http://www.w3.org/2000/svg" viewBox="0 0 100 100"><defs><style>.cls-1{fill:#fff;}.cls-2{fill:#291c10;}.cls-3{fill:#9f7b2d;}.cls-4{fill:#6e4d1d;}.cls-5{fill:#e9b053;}.cls-6{fill:#c2c1c1;}</style></defs><title>orc10</title><g id="LOGO"><path id="_Path_" data-name="&lt;Path&gt;" class="cls-1" d="M48.63,97.92c-.55-1.78-2-2.64-3.81-3.72l-1.15-.7a7.92,7.92,0,0,1-3.13-4.88L38.84,88a7.51,7.51,0,0,1-2-1l-.12.82-1.94-1.48a15.74,15.74,0,0,1-5.9-11.4l-1,.51A20.73,20.73,0,0,1,23,65.79L22.13,65a16.63,16.63,0,0,1-4.94-12.53l-.77-1a6.9,6.9,0,0,1-1.32-2.55C6.68,48.6,4.26,41.35,4.17,37.47l0-1.52L5.66,36h.09a8.6,8.6,0,0,0,3.13-.9c-3.87-9.82-1.54-17.33,1.18-22a26.11,26.11,0,0,1,7.35-8.06l2.94-1.91-.76,3.42c-2.25,10.18.86,14.64,3.21,16.49A11.71,11.71,0,0,1,26.12,16l2.65-2.58h0a13.54,13.54,0,0,1,5.47-4.2L37.36,8l-.42,1a20.55,20.55,0,0,1,7.19-3l1.78-.34.52-.34c1.26-.83,2-3,2.18-3.66L50,0l1.42,1.63a7,7,0,0,0,2.18,3.66l.52.34L55.87,6a20.55,20.55,0,0,1,7.19,3l-.42-1,3.12,1.18a13.61,13.61,0,0,1,5.47,4.2h0L73.88,16a11.7,11.7,0,0,1,3.32,7.16c2.35-1.84,5.47-6.28,3.21-16.52l-.76-3.42,2.94,1.91a26.11,26.11,0,0,1,7.35,8.06c2.72,4.64,5,12.15,1.18,22a8.6,8.6,0,0,0,3.13.9h.09L95.86,36l0,1.52c-.09,3.88-2.5,11.13-10.93,11.42a6.9,6.9,0,0,1-1.32,2.55l-.77,1A16.63,16.63,0,0,1,77.87,65l-.89.84a20.73,20.73,0,0,1-4.85,9.64l-1-.52a15.74,15.74,0,0,1-5.9,11.41L63.3,87.8,63.18,87a7.51,7.51,0,0,1-2,1l-1.7.59a7.92,7.92,0,0,1-3.13,4.88l-1.15.7c-1.82,1.08-3.26,1.93-3.81,3.72L50,100Z"/><path class="cls-2" d="M89.29,35.79C97.71,16.66,81.8,6.28,81.8,6.28c3.72,16.79-6.43,19.4-6.43,19.4C77.05,21,72.88,17,72.88,17A4,4,0,0,1,72,19.44c-.49-6.54-6.78-8.92-6.78-8.92a8.61,8.61,0,0,1,.53,3.35c-3-5.17-10.18-6.5-10.18-6.5.89,1.46.73,2.1.73,2.1a12.69,12.69,0,0,0-3.56-3C50.77,5.15,50,2,50,2s-.77,3.19-2.78,4.53a12.69,12.69,0,0,0-3.56,3s-.16-.64.73-2.1c0,0-7.17,1.33-10.18,6.5a8.61,8.61,0,0,1,.53-3.35S28.45,12.9,28,19.44A4,4,0,0,1,27.12,17S23,21,24.63,25.68c0,0-10.15-2.61-6.43-19.4,0,0-15.91,10.38-7.49,29.51,0,0-3,1.73-5.11,1.65,0,0,.25,10.58,10.84,10,0,0-.4,1.17,1.11,3.11a4,4,0,0,1,1.51-2s-2.4,9.22,4.06,15.36l1.05-1.21S23.73,68.45,29,74.49a3.65,3.65,0,0,1,.24-2.17,1.7,1.7,0,0,1,1.12-1.12s-1.33,8.9,5.31,14l.22-1.52a5.91,5.91,0,0,0,3.45,3L39,85.11A4.59,4.59,0,0,0,41.69,87s.36,3.84,2.74,5.33S49.15,94.75,50,97.5c.85-2.75,3.19-3.72,5.57-5.21S58.31,87,58.31,87A4.59,4.59,0,0,0,61,85.11l-.32,1.57a5.91,5.91,0,0,0,3.45-3l.22,1.52c6.64-5.09,5.31-14,5.31-14a1.7,1.7,0,0,1,1.12,1.12A3.65,3.65,0,0,1,71,74.49c5.23-6,4.79-11.78,4.79-11.78l1,1.21c6.46-6.14,4.06-15.36,4.06-15.36a4,4,0,0,1,1.51,2c1.51-1.94,1.11-3.11,1.11-3.11,10.59.57,10.84-10,10.84-10C92.3,37.52,89.29,35.79,89.29,35.79Z"/><path id="_Path_2" data-name="&lt;Path&gt;" class="cls-3" d="M83.81,43a6.53,6.53,0,0,0,3.72,1.57,6.83,6.83,0,0,1-6.9.22,4.13,4.13,0,0,1,0,2.6,8.32,8.32,0,0,0-2.42-2.6,18.47,18.47,0,0,1-2.06,15.92,6.21,6.21,0,0,0-2.3-4.42,15.88,15.88,0,0,1-2.39,12.32,6.32,6.32,0,0,0-1.94-4.51,9.51,9.51,0,0,0-.93,7.14c-2.7-1.3-3.39-4.9-3.39-4.9a8.41,8.41,0,0,0-.85,2.75c-1-3.6.12-7.35,1.93-11.14,1.69-3.51-.87-4-1.25-4.08h0a3.14,3.14,0,0,0,.21,2.4,3.56,3.56,0,0,1-1.14-.87A6.27,6.27,0,0,1,62.88,51a8.58,8.58,0,0,0,8.43-7.69c5.93,1.37,8-1.33,8-1.33a3.41,3.41,0,0,1-1.63-1.18c5.41.79,11.16-2.21,11.16-2.21C87.72,42.11,83.81,43,83.81,43Z"/><path id="_Path_3" data-name="&lt;Path&gt;" class="cls-4" d="M64.61,70.62S64.11,75,61.2,77a7.21,7.21,0,0,1,.67,6.66,6.78,6.78,0,0,0,2.48-3.75,2.91,2.91,0,0,1,.36,2.42S70.14,74.69,64.61,70.62Z"/><path id="_Path_4" data-name="&lt;Path&gt;" class="cls-1" d="M61.84,47a31.09,31.09,0,0,1,7.47-5.24,2.92,2.92,0,0,1-.18,3.69C67.58,47.56,63.46,47.31,61.84,47Z"/><path id="_Path_5" data-name="&lt;Path&gt;" class="cls-4" d="M76.15,60.67a6.21,6.21,0,0,0-2.3-4.42,15.88,15.88,0,0,1-2.39,12.32,6.32,6.32,0,0,0-1.94-4.51,9.51,9.51,0,0,0-.93,7.14c-2.7-1.3-3.39-4.9-3.39-4.9a8.41,8.41,0,0,0-.85,2.75c-1-3.6.12-7.35,1.93-11.14,1.69-3.51-.87-4-1.25-4.08.51,0,4.77.49,3.8,5.32a9.6,9.6,0,0,0,2.6-6.9,8,8,0,0,1,4.4,2.64s3.64-3.39,2.38-10.14A18.47,18.47,0,0,1,76.15,60.67Z"/><path id="_Path_6" data-name="&lt;Path&gt;" class="cls-5" d="M79.58,41.44l.89.68c-3,3.51-7.87,3.56-7.87,3.56-.24,4.11-4.36,5.89-4.36,5.89A2.88,2.88,0,0,0,69,50c-1.54,1.41-6.13.95-6.13.95a8.58,8.58,0,0,0,8.43-7.69c5.93,1.37,8-1.33,8-1.33a3.41,3.41,0,0,1-1.63-1.18c5.41.79,11.16-2.21,11.16-2.21C83.74,42.48,79.58,41.44,79.58,41.44Z"/><path class="cls-5" d="M62.67,67.27s-.36,5-4.92,4.48-3.35-4.69-.57-4.16,3.92-2.91,1.66-5.17A3.73,3.73,0,0,1,56,64a1.66,1.66,0,0,1,1-1,4.35,4.35,0,0,0-3.33,1.12,5,5,0,0,1-7.44,0A4.35,4.35,0,0,0,43,63a1.66,1.66,0,0,1,1,1,3.73,3.73,0,0,1-2.82-1.61c-2.26,2.26-1.13,5.69,1.66,5.17s4,3.67-.57,4.16-4.92-4.48-4.92-4.48c-1.13,5.69,2.78,8.11,2.78,8.11A18.67,18.67,0,0,1,50,73.72a18.67,18.67,0,0,1,9.89,1.66S63.8,73,62.67,67.27Z"/><path id="_Path_7" data-name="&lt;Path&gt;" class="cls-3" d="M16.19,43a6.53,6.53,0,0,1-3.72,1.57,6.83,6.83,0,0,0,6.9.22,4.13,4.13,0,0,0,0,2.6,8.32,8.32,0,0,1,2.42-2.6,18.47,18.47,0,0,0,2.06,15.92,6.21,6.21,0,0,1,2.3-4.42,15.88,15.88,0,0,0,2.39,12.32,6.32,6.32,0,0,1,1.94-4.51,9.51,9.51,0,0,1,.93,7.14c2.7-1.3,3.39-4.9,3.39-4.9a8.41,8.41,0,0,1,.85,2.75c1-3.6-.12-7.35-1.93-11.14-1.69-3.51.87-4,1.25-4.08H35a3.14,3.14,0,0,1-.21,2.4A3.56,3.56,0,0,0,36,55.37,6.27,6.27,0,0,0,37.12,51a8.58,8.58,0,0,1-8.43-7.69c-5.93,1.37-8-1.33-8-1.33a3.41,3.41,0,0,0,1.63-1.18C17,41.57,11.2,38.57,11.2,38.57,12.28,42.11,16.19,43,16.19,43Z"/><path class="cls-1" d="M83.26,9.12a0,0,0,0,1,0,0c.17.68,5,20-14.44,22.23a14.58,14.58,0,0,0,3.08,3.77c2.92,2.58,8,5,15.44,2l-3.26-.36S96.33,26.06,83.26,9.12Z"/><path class="cls-1" d="M16.73,9.13a0,0,0,0,1,0,0c-13.07,16.94-.83,27.7-.83,27.7l-3.26.36c7.47,3,12.52.53,15.44-2a14.58,14.58,0,0,0,3.08-3.77C11.7,29.09,16.56,9.81,16.73,9.13Z"/><path class="cls-3" d="M69.13,38.93h0c-.91-4-3.51-6-5-4.77a12.31,12.31,0,0,1-3.65,1.91,5.46,5.46,0,0,0,.62-2.86c-3,4.62-10,6.8-10.48,6.94h0c3.07-1.71,4.18-3.54,4.58-4.63a3.4,3.4,0,0,0,.23-1,11.88,11.88,0,0,1-4.12.62,16.13,16.13,0,0,0,5.81-5.68,4.62,4.62,0,0,1,.07,3.33c4.29-1,4.53-5.81,7.08-6s4,2.66,4,2.66a11.12,11.12,0,0,0,6.49-2l-2.26-.31a5.52,5.52,0,0,0,.16-6.46s-.21,2.07-1.64,2.76c.44-4.92-3.62-8.18-3.62-8.18a9.63,9.63,0,0,1,.54,6.47A16.22,16.22,0,0,0,57.84,10.33,9.17,9.17,0,0,1,60,17.18c-.08-1.7-2.34-5.16-6-6.94a7.23,7.23,0,0,1-4-5.73,7.23,7.23,0,0,1-4,5.73c-3.71,1.78-6,5.24-6,6.94a9.17,9.17,0,0,1,2.17-6.85A16.22,16.22,0,0,0,32.08,21.74a9.63,9.63,0,0,1,.54-6.47S28.56,18.53,29,23.45c-1.43-.69-1.64-2.76-1.64-2.76a5.52,5.52,0,0,0,.16,6.46l-2.26.31a11.12,11.12,0,0,0,6.49,2s1.42-2.84,4-2.66,2.79,5,7.08,6a4.62,4.62,0,0,1,.07-3.33,16.13,16.13,0,0,0,5.81,5.68,11.88,11.88,0,0,1-4.12-.62,3.4,3.4,0,0,0,.23,1c.4,1.09,1.52,2.92,4.58,4.63h0c-.44-.14-7.47-2.32-10.48-6.94a5.46,5.46,0,0,0,.62,2.86,12.43,12.43,0,0,1-3.65-1.91c-1.45-1.21-4,.73-5,4.77h0s3.87.43,7.69,5.94c0,0-.48-3.88-1.69-5.57a6.29,6.29,0,0,1,2.61,3.39,8.17,8.17,0,0,0-.88-4s5.4,3.61,4.5,13.18a10.46,10.46,0,0,0-2-4.14,11.05,11.05,0,0,1-.69,7.75,9.82,9.82,0,0,0-.32-4.07,9.92,9.92,0,0,1-3.82,6.87l1.79,3.15-.22-1.84A3,3,0,0,0,40,60.82c1.52.21,2.76-.94,5.48-.33a5.5,5.5,0,0,0-2.93.68,11,11,0,0,1,4.46.65,3.87,3.87,0,0,0,2.43.6,3.62,3.62,0,0,1-2.14.18,4.52,4.52,0,0,0,5.44,0,3.62,3.62,0,0,1-2.14-.18,3.87,3.87,0,0,0,2.43-.6,11,11,0,0,1,4.46-.65,5.5,5.5,0,0,0-2.93-.68c2.72-.61,4,.54,5.48.33a3,3,0,0,0,2.12-1.27l-.22,1.84,1.79-3.15a9.92,9.92,0,0,1-3.82-6.87,9.82,9.82,0,0,0-.32,4.07,11.05,11.05,0,0,1-.69-7.75,10.46,10.46,0,0,0-2,4.14c-.9-9.57,4.5-13.18,4.5-13.18a8.17,8.17,0,0,0-.88,4,6.29,6.29,0,0,1,2.61-3.39c-1.21,1.69-1.69,5.57-1.69,5.57C65.26,39.36,69.13,38.93,69.13,38.93Z"/><path class="cls-1" d="M57.93,77.16C56.21,75,50,75.4,50,75.4s-6.21-.36-7.93,1.76a10.59,10.59,0,0,1,4.21.24,9.45,9.45,0,0,0-3.79,1.27L43,80.55a53.79,53.79,0,0,1,7-.67,53.79,53.79,0,0,1,7,.67l.49-1.88a9.45,9.45,0,0,0-3.79-1.27A10.59,10.59,0,0,1,57.93,77.16Z"/><path class="cls-3" d="M60.2,78.56a3.31,3.31,0,0,1-4.48,2.66,5.53,5.53,0,0,0-4.94,1,6.27,6.27,0,0,1,1.43-.15A4.77,4.77,0,0,0,50,83.57a4.77,4.77,0,0,0-2.21-1.47,6.27,6.27,0,0,1,1.43.15,5.53,5.53,0,0,0-4.94-1,3.31,3.31,0,0,1-4.48-2.66,6,6,0,0,0,.15,5A4.84,4.84,0,0,0,43.56,86s-.67,1.63,1.3,4a2.63,2.63,0,0,1,.39-1.57s-.09,2.6,1.94,3.23A3.9,3.9,0,0,1,50,94.21a3.9,3.9,0,0,1,2.81-2.58c2-.63,1.94-3.23,1.94-3.23A2.63,2.63,0,0,1,55.14,90c2-2.33,1.3-4,1.3-4a4.84,4.84,0,0,0,3.61-2.44A6,6,0,0,0,60.2,78.56Z"/><path id="_Path_8" data-name="&lt;Path&gt;" class="cls-4" d="M35.39,70.62S35.89,75,38.8,77a7.21,7.21,0,0,0-.67,6.66,6.78,6.78,0,0,1-2.48-3.75,2.91,2.91,0,0,0-.36,2.42S29.86,74.69,35.39,70.62Z"/><path id="_Path_9" data-name="&lt;Path&gt;" class="cls-1" d="M38.16,47a31.09,31.09,0,0,0-7.47-5.24,2.92,2.92,0,0,0,.18,3.69C32.42,47.56,36.54,47.31,38.16,47Z"/><path id="_Path_10" data-name="&lt;Path&gt;" class="cls-4" d="M23.85,60.67a6.21,6.21,0,0,1,2.3-4.42,15.88,15.88,0,0,0,2.39,12.32,6.32,6.32,0,0,1,1.94-4.51,9.51,9.51,0,0,1,.93,7.14c2.7-1.3,3.39-4.9,3.39-4.9a8.41,8.41,0,0,1,.85,2.75c1-3.6-.12-7.35-1.93-11.14-1.69-3.51.87-4,1.25-4.08-.51,0-4.77.49-3.8,5.32a9.6,9.6,0,0,1-2.6-6.9,8,8,0,0,0-4.4,2.64s-3.64-3.39-2.38-10.14A18.47,18.47,0,0,0,23.85,60.67Z"/><path id="_Path_11" data-name="&lt;Path&gt;" class="cls-5" d="M20.42,41.44l-.89.68c2.95,3.51,7.87,3.56,7.87,3.56.24,4.11,4.36,5.89,4.36,5.89A2.88,2.88,0,0,1,31,50c1.54,1.41,6.13.95,6.13.95a8.58,8.58,0,0,1-8.43-7.69c-5.93,1.37-8-1.33-8-1.33a3.41,3.41,0,0,0,1.63-1.18C17,41.57,11.2,38.57,11.2,38.57,16.26,42.48,20.42,41.44,20.42,41.44Z"/><path class="cls-4" d="M60.2,78.56s.26,6-4.85,5.9a12.76,12.76,0,0,1,0,1.8l-.51-1.05a5.16,5.16,0,0,1-1.21,2.88l.16-1.37a4,4,0,0,0-1.94,2.52,1.57,1.57,0,0,1,0-1.29,2.66,2.66,0,0,0-1.14,2A3,3,0,0,1,50,91.87,3,3,0,0,1,49.29,90a2.66,2.66,0,0,0-1.14-2,1.57,1.57,0,0,1,0,1.29,4,4,0,0,0-1.94-2.52l.16,1.37a5.16,5.16,0,0,1-1.21-2.88l-.51,1.05a12.76,12.76,0,0,1,0-1.8c-5.11.08-4.85-5.9-4.85-5.9a6,6,0,0,0,.15,5A4.84,4.84,0,0,0,43.56,86s-.67,1.63,1.3,4a2.63,2.63,0,0,1,.39-1.57s-.09,2.6,1.94,3.23A3.9,3.9,0,0,1,50,94.21a3.9,3.9,0,0,1,2.81-2.58c2-.63,1.94-3.23,1.94-3.23A2.63,2.63,0,0,1,55.14,90c2-2.33,1.3-4,1.3-4a4.84,4.84,0,0,0,3.61-2.44A6,6,0,0,0,60.2,78.56Z"/><path class="cls-5" d="M55.72,81.22a5.53,5.53,0,0,0-4.94,1,6.27,6.27,0,0,1,1.43-.15A4.77,4.77,0,0,0,50,83.57a4.77,4.77,0,0,0-2.21-1.47,6.27,6.27,0,0,1,1.43.15,5.53,5.53,0,0,0-4.94-1,3.31,3.31,0,0,1-4.48-2.66s.59,4.24,3.76,3.76l-.5.44a5.61,5.61,0,0,0,2.74-.28c1.62-.47,3.92,3.12,4.2,3.59.28-.47,2.58-4.06,4.2-3.59a5.61,5.61,0,0,0,2.74.28l-.5-.44c3.17.48,3.76-3.76,3.76-3.76A3.31,3.31,0,0,1,55.72,81.22Z"/><path class="cls-4" d="M63.71,58.24a9.92,9.92,0,0,1-3.82-6.87c-.32,1.85.44,3.55.24,4.72s-1.86.73-1.86.73l1.17.72a8.41,8.41,0,0,1-3.18-.24l1.29,1.05A9.85,9.85,0,0,1,52,55.56a4.19,4.19,0,0,0,1,2.17,6.86,6.86,0,0,1-3-4.87,6.86,6.86,0,0,1-3,4.87,4.19,4.19,0,0,0,1-2.17,9.85,9.85,0,0,1-5.57,2.79l1.29-1.05a8.41,8.41,0,0,1-3.18.24l1.17-.72s-1.66.44-1.86-.73.56-2.87.24-4.72a9.92,9.92,0,0,1-3.82,6.87l1.79,3.15-.22-1.84A3,3,0,0,0,40,60.82c1.52.21,2.76-.94,5.48-.33a5.5,5.5,0,0,0-2.93.68,11,11,0,0,1,4.46.65,3.87,3.87,0,0,0,2.43.6,3.62,3.62,0,0,1-2.14.18,4.52,4.52,0,0,0,5.44,0,3.62,3.62,0,0,1-2.14-.18,3.87,3.87,0,0,0,2.43-.6,11,11,0,0,1,4.46-.65,5.5,5.5,0,0,0-2.93-.68c2.72-.61,4,.54,5.48.33a3,3,0,0,0,2.12-1.27l-.22,1.84Z"/><path class="cls-5" d="M64.17,34.15a12.31,12.31,0,0,1-3.65,1.91,5.46,5.46,0,0,0,.62-2.86c-3,4.62-10,6.8-10.48,6.94,7.68-1.76,8.78-3.6,8.78-3.6l-.39,1.55c3.24-.49,4.21-2.57,6.33-2.21s3.65,2.89,3.75,3C68.22,34.88,65.62,32.94,64.17,34.15Z"/><path class="cls-5" d="M49.34,40.14c-.44-.14-7.47-2.32-10.48-6.94a5.46,5.46,0,0,0,.62,2.86,12.43,12.43,0,0,1-3.65-1.91c-1.45-1.21-4,.73-5,4.77.1-.15,1.7-2.69,3.75-3S37.71,37.6,41,38.09l-.39-1.55S41.66,38.38,49.34,40.14Z"/><path class="cls-5" d="M72.48,27.15a5.52,5.52,0,0,0,.16-6.46s-.21,2.07-1.64,2.76c.44-4.92-3.62-8.18-3.62-8.18a9.63,9.63,0,0,1,.54,6.47A16.22,16.22,0,0,0,57.84,10.33,9.17,9.17,0,0,1,60,17.18c-.08-1.7-2.34-5.16-6-6.94a7.23,7.23,0,0,1-4-5.73,7.23,7.23,0,0,1-4,5.73c-3.71,1.78-6,5.24-6,6.94a9.17,9.17,0,0,1,2.17-6.85A16.22,16.22,0,0,0,32.08,21.74a9.63,9.63,0,0,1,.54-6.47S28.56,18.53,29,23.45c-1.43-.69-1.64-2.76-1.64-2.76a5.52,5.52,0,0,0,.16,6.46l-2.26.31a11.12,11.12,0,0,0,6.49,2s-2.33-1.94-2.37-3.75l1.49.68a7.69,7.69,0,0,1,0-3.51l1.33,1.78s1.3-4.2,4.52-6.18c0,0,.16,2.91,2.1,4.28,0,0,.89-5.12,3.94-6.89A4.05,4.05,0,0,0,42,18.39a12.85,12.85,0,0,1,4.36-3.71c1.75-.8,2.92-1.25,3.63-2.24.71,1,1.88,1.44,3.63,2.24A12.73,12.73,0,0,1,58,18.39a4.05,4.05,0,0,0-.75-2.49c3,1.77,3.94,6.89,3.94,6.89,1.94-1.37,2.1-4.28,2.1-4.28,3.22,2,4.52,6.18,4.52,6.18l1.33-1.78a7.69,7.69,0,0,1,0,3.51l1.49-.68c0,1.81-2.37,3.75-2.37,3.75a11.12,11.12,0,0,0,6.49-2Z"/><path class="cls-6" d="M83.26,9.12a0,0,0,0,1,0,0c.31.5,6.74,11.08,2.65,19.27a22.42,22.42,0,0,0,0-7s-.6,12.89-14,13.75c2.92,2.58,8,5,15.44,2l-3.26-.36S96.33,26.06,83.26,9.12Z"/><path class="cls-6" d="M14.08,21.38a22.42,22.42,0,0,0,0,7C10,20.21,16.42,9.63,16.73,9.13a0,0,0,0,1,0,0c-13.07,16.94-.83,27.7-.83,27.7l-3.26.36c7.47,3,12.52.53,15.44-2C14.68,34.27,14.08,21.38,14.08,21.38Z"/></g></svg>