<svg xmlns="http://www.w3.org/2000/svg" xmlns:xlink="http://www.w3.org/1999/xlink" viewBox="0 0 100 100"><defs><style>.cls-1{fill:url(#linear-gradient);}</style><linearGradient id="linear-gradient" y1="50" x2="100" y2="50" gradientUnits="userSpaceOnUse"><stop offset="0" stop-color="#797879"/><stop offset="0.5" stop-color="#010101"/><stop offset="1" stop-color="#797879"/></linearGradient></defs><title>physician</title><g id="Group_2" data-name="Group 2"><path id="physician" class="cls-1" d="M95.28,48.17a90.13,90.13,0,0,1-5.12,7.89H69.53L59.42,22.33,43.81,62.91l-9.4-26.25-9,19.4H9.66C5.53,50.4,1.92,44.45.51,37.39A24.9,24.9,0,0,1,20.15,7.82C32.41,5.34,43.76,11,49.26,22.37c.16.34.37.66.47.84,1.93-2.69,3.55-5.64,5.8-8,7.41-7.61,16.56-9.86,26.56-6.76s16.27,10.27,17.7,21C100.7,36.27,98.5,42.4,95.28,48.17Zm-36.6-6.46L43.59,80.92,33.66,53.17,29.4,62.33H14.78c.27.41.52.8.61.89A198.85,198.85,0,0,0,48.78,92.43c1,.74,1.73.42,2.6-.2A197.4,197.4,0,0,0,84,63.85c.26-.28.77-.93,1.22-1.52H64.86Z"/></g></svg>