<svg id="Group_1" data-name="Group 1" xmlns="http://www.w3.org/2000/svg" xmlns:xlink="http://www.w3.org/1999/xlink" viewBox="0 0 100 100"><defs><style>.cls-1{fill:url(#linear-gradient);}</style><linearGradient id="linear-gradient" x1="0.08" y1="50" x2="99.92" y2="50" gradientUnits="userSpaceOnUse"><stop offset="0" stop-color="#797879"/><stop offset="0.5" stop-color="#010101"/><stop offset="1" stop-color="#797879"/></linearGradient></defs><title>players</title><g id="players"><path class="cls-1" d="M61.44,48.55v11.2a3.7,3.7,0,0,1-7.4,0V48.85a3.67,3.67,0,0,1,3.6-3.7A3.73,3.73,0,0,1,61.44,48.55Zm33.5,2.8c-4.2,1.2-11.6,3.8-11.6,3.8v44.9H16.74v-45s-7.4-2.5-11.6-3.8-6-4.7-4.6-9.6,5.4-18.9,6.9-24.3,4.9-7.9,9.3-9.3S27.14,5,28,4.65a8.53,8.53,0,0,0,2.5-1.3,5,5,0,0,1,2.6-1.3A79.76,79.76,0,0,1,50,0a79.76,79.76,0,0,1,16.9,2.1,9.06,9.06,0,0,1,2.6,1.3A8.53,8.53,0,0,0,72,4.65c.9.3,6.8,2,11.2,3.4s7.8,3.9,9.3,9.3,5.5,19.4,6.9,24.3S99.14,50.05,94.94,51.35Zm-59-43.6c3.4,4.3,11.8,10.1,14.1,10.1s10.7-6.1,13.9-10.2A72.23,72.23,0,0,0,50,6.05,73.45,73.45,0,0,0,35.94,7.75Zm-.4,31.8a3,3,0,0,0-2.5,1.2,3.17,3.17,0,0,0,.8,4.3,3.29,3.29,0,0,0,1.9.6h1.8v20a3.2,3.2,0,0,0,2.8,3.4h.3a3,3,0,0,0,3-2.9V43c0-2.2-1.1-3.4-3.3-3.4h-4.8Zm32,9.4a14.92,14.92,0,0,0-.2-2.1,9.83,9.83,0,0,0-9.5-8c-.3,0-.7.1-1,.1a9.94,9.94,0,0,0-9,10.1v10.4a9.86,9.86,0,0,0,9.7,10.1h.2a9.92,9.92,0,0,0,9.8-10V49Zm-50.9-10.4v-8.4c.1-4.7.7-10.9,6.4-12.6,3.93-1.14,8.26-2.44,10.9-3.24a28.32,28.32,0,0,1-3.6-4.16,1.45,1.45,0,0,0-.7.2l-1.8.5-9.5,2.9c-3.2,1-4.5,2.3-5.3,5.1-1.1,4-3.6,12.7-5.4,19-.6,2.2-1.1,4.1-1.5,5.4a4.13,4.13,0,0,0-.2,1.9c.3.1.5.2.8.3,3,1,7.4,2.4,9.9,3.3Zm60.6,55.5v-6H22.64v6Zm16.4-50.6c-.3-1.3-.9-3.2-1.5-5.4-1.8-6.4-4.3-15-5.4-19.1-.7-2.8-2.1-4.1-5.2-5.1L72,11l-1.8-.5c-.2-.1-.5-.2-.7-.3A29.5,29.5,0,0,1,66,14.27l11,3.28c5.1,1.6,6.1,6.7,6.4,11.1v12.2l-.1,1.52v6.48c2.5-.9,6.9-2.4,9.9-3.3a1.14,1.14,0,0,0,.8-.3A2.67,2.67,0,0,0,93.64,43.45Z"/></g></svg>