<svg xmlns="http://www.w3.org/2000/svg" xmlns:xlink="http://www.w3.org/1999/xlink" viewBox="0 0 100 100"><defs><style>.cls-1{fill:url(#linear-gradient);}</style><linearGradient id="linear-gradient" y1="50" x2="100" y2="50" gradientUnits="userSpaceOnUse"><stop offset="0" stop-color="#797879"/><stop offset="0.5" stop-color="#010101"/><stop offset="1" stop-color="#797879"/></linearGradient></defs><title>practise</title><g id="Layer_1" data-name="Layer 1"><path class="cls-1" d="M7.84,17.66V14.13c0-1.6.75-2.34,2.37-2.35H17.1c1.85,0,2.59.69,2.61,2.55,0,2.66,0,5.33,0,8v1.19c1.63,0,3.2,0,4.77,0,.14,0,.33-.19.42-.34,2.68-4.41,5.05-5.36,9.69-3.83a7.13,7.13,0,0,1,9.78-3.92,7,7,0,0,1,12.38-1.58,23.67,23.67,0,0,1,2.85-.93,6.79,6.79,0,0,1,8,6.78c0,1.24,0,2.48,0,3.8H80.3V20.93c0-2.19,0-4.39,0-6.58,0-1.86.75-2.58,2.58-2.57h6.79c1.75,0,2.49.71,2.49,2.43,0,1.11,0,2.22,0,3.44h5.14c2,0,2.71.67,2.71,2.74V40.77c0,1.67-.71,2.39-2.4,2.39H92.15V46.8A2,2,0,0,1,89.91,49c-2.4,0-4.8,0-7.2,0-1.72,0-2.4-.66-2.41-2.38,0-2.7,0-5.41,0-8.11V37.36H75.52c0,1.6,0,3.18,0,4.75A20.82,20.82,0,0,1,67.9,58.24a17.23,17.23,0,0,0-6,10.57,25,25,0,0,0-.07,4.24c0,2.78,0,5.55,0,8.32A7.68,7.68,0,0,1,54,89.18H32.06a7.82,7.82,0,0,1-7.59-7.8q0-21.43,0-42.88V37.34h-4.7c0,.37-.06.73-.06,1.08,0,2.74,0,5.48,0,8.21,0,1.74-.67,2.4-2.39,2.41-2.43,0-4.87,0-7.3,0a1.93,1.93,0,0,1-2.16-2.2c0-1.18,0-2.35,0-3.66H2.62c-2,0-2.61-.57-2.61-2.57Q0,30.3,0,20c0-1.62.7-2.32,2.36-2.34S5.94,17.66,7.84,17.66Zm50.4,48.93a21.74,21.74,0,0,1,7.37-11.7,19.63,19.63,0,0,0,3.53-4.26c2.13-3.31,2.5-7.05,2.38-10.9-.09-2.86-1.53-4.37-4.39-4.38l-10.33,0H49.19A2.86,2.86,0,0,0,46.41,37a2.77,2.77,0,0,0,.3,3,3.17,3.17,0,0,0,2.86,1.22c2.63,0,5.27,0,7.9,0a2,2,0,0,1,2.24,1.35A2.11,2.11,0,0,1,58.78,45c-1.6,1.24-3.17,2.52-4.75,3.79a10.24,10.24,0,0,0-4,8A2,2,0,0,1,48,58.86,2,2,0,0,1,46,56.6a14.09,14.09,0,0,1,4.35-9.93c.5-.47,1-.92,1.6-1.47l-.57,0c-2.09,0-4.2.19-6.09-1-.18-.11-.62.09-.89.23a6.81,6.81,0,0,1-6.33.08,7,7,0,0,1-3.49-4,7.11,7.11,0,0,1-6,.18V66.59Zm-.43,4.1H28.48c0,3.41,0,6.75,0,10.09,0,3,1.53,4.48,4.49,4.48q10.19,0,20.37,0c2.84,0,4.49-1.56,4.52-4.4,0-3.14,0-6.28,0-9.42C57.87,71.21,57.83,71,57.81,70.69ZM42.55,40.76a7.13,7.13,0,0,1,1.34-7.15,1.39,1.39,0,0,0,.21-.84c0-3.61,0-7.22,0-10.84a3,3,0,0,0-3-3.2A3,3,0,0,0,38.28,22q0,3.44,0,6.89c0,3.07,0,6.14,0,9.21A2.86,2.86,0,0,0,42.55,40.76Zm-30.63-25V45.06h3.7V15.78Zm72.44,0V45.06h3.7V15.78ZM53.84,31.34c0-4.77.06-9.45,0-14.13a2.77,2.77,0,0,0-3.41-2.32A2.87,2.87,0,0,0,48.09,18c0,4.18,0,8.37,0,12.55a7.55,7.55,0,0,0,.08.79Zm4.06,0h5.77V23.78c0-1.51,0-3-.07-4.55a2.86,2.86,0,0,0-5.68.16C57.86,23.33,57.9,27.28,57.9,31.31ZM34.27,30.05h0c0-1.55,0-3.1,0-4.65a2.83,2.83,0,0,0-2.9-2.75,2.88,2.88,0,0,0-2.84,2.83c0,2.94,0,5.87,0,8.81a2.87,2.87,0,1,0,5.74,0C34.28,32.89,34.27,31.47,34.27,30.05ZM4,21.69V39.17H7.79V21.69ZM96,39.19V21.72H92.23V39.19ZM67.69,31.32a8.19,8.19,0,0,1,4.88,1.78,1,1,0,0,0,.55.24h7.11V27.59H67.69Zm-47.92,2h4.62V27.58H19.77Z"/></g></svg>