<svg xmlns="http://www.w3.org/2000/svg" xmlns:xlink="http://www.w3.org/1999/xlink" viewBox="0 0 100 100"><defs><style>.cls-1{fill:url(#linear-gradient);}</style><linearGradient id="linear-gradient" x1="8.78" y1="50" x2="91.22" y2="50" gradientUnits="userSpaceOnUse"><stop offset="0" stop-color="#797879"/><stop offset="0.5" stop-color="#010101"/><stop offset="1" stop-color="#797879"/></linearGradient></defs><title>profile</title><g id="Main_menu" data-name="Main menu"><path id="scouting" class="cls-1" d="M91.09,79.46c0,.13.08.26.13.38a52.17,52.17,0,0,1-82.44-.08c4.3-10.26,12-18,23.08-23.21a3.23,3.23,0,0,1,2.44.1c10.53,5.08,21,5.09,31.52,0a3.25,3.25,0,0,1,2.45,0C78.76,61.31,86.61,68.85,91.09,79.46ZM23.66,26.38A26.38,26.38,0,1,1,50,52.76,26.37,26.37,0,0,1,23.66,26.38Z"/></g></svg>