<svg xmlns="http://www.w3.org/2000/svg" xmlns:xlink="http://www.w3.org/1999/xlink" viewBox="0 0 100 100"><defs><style>.cls-1{fill:url(#linear-gradient);}</style><linearGradient id="linear-gradient" y1="50" x2="100" y2="50" gradientUnits="userSpaceOnUse"><stop offset="0" stop-color="#797879"/><stop offset="0.5" stop-color="#010101"/><stop offset="1" stop-color="#797879"/></linearGradient></defs><title>scouting</title><g id="Layer_1" data-name="Layer 1"><path class="cls-1" d="M63.17,0A36.83,36.83,0,0,0,31.54,55.71L0,87.25,12.74,100,44.29,68.46A36.83,36.83,0,1,0,63.17,0ZM12.75,91.5,8.5,87.25,27.37,68.38l4.25,4.25ZM35.87,68.38l-4.25-4.25,3.47-3.47a37.08,37.08,0,0,0,4.25,4.25Zm27.3-.72A30.83,30.83,0,1,1,94,36.83,30.86,30.86,0,0,1,63.17,67.66ZM82.67,51.9l.06.18a24.77,24.77,0,0,1-39.16,0,21.06,21.06,0,0,1,11-11,1.51,1.51,0,0,1,1.16,0,16.36,16.36,0,0,0,15,0,1.6,1.6,0,0,1,1.16,0A20.44,20.44,0,0,1,82.67,51.9Zm-32-25.21A12.53,12.53,0,1,1,63.17,39.22,12.53,12.53,0,0,1,50.64,26.69Z"/></g></svg>