<svg xmlns="http://www.w3.org/2000/svg" xmlns:xlink="http://www.w3.org/1999/xlink" viewBox="0 0 100 100"><defs><style>.cls-1{fill:url(#linear-gradient);}</style><linearGradient id="linear-gradient" y1="50" x2="100" y2="50" gradientUnits="userSpaceOnUse"><stop offset="0" stop-color="#797879"/><stop offset="0.5" stop-color="#010101"/><stop offset="1" stop-color="#797879"/></linearGradient></defs><title>stadium</title><g id="Layer_12" data-name="Layer 12"><path class="cls-1" d="M92.76,38.52a56.18,56.18,0,0,0-9.71-3.23V29.51L100,29.18,77.05,12.06V34c-3.75-.68-7.84-1.21-12.18-1.59-4.64-.4-9.57-.62-14.68-.62V26.09L70,25.71,43.16,5.65V32a139.08,139.08,0,0,0-24,2.84V27.51l16.92-.33L13.14,10.06V36.34C5,38.81,0,42.12,0,45.75V80.42c0,7.7,22.39,13.93,50,13.93s50-6.23,50-13.93V45.75C100,43.1,97.35,40.63,92.76,38.52ZM71,46.94l5.74-5.64A3,3,0,1,1,81,45.58l-5.74,5.64A3,3,0,0,1,71,46.94ZM53,40.83v9.85a3,3,0,1,1-6,0V40.83a3,3,0,0,1,6,0Zm-29.41.47,5.74,5.64a3,3,0,1,1-4.2,4.28l-5.74-5.64a3,3,0,1,1,4.2-4.28ZM41.36,88.14V83L50,83,58.64,83v5.19c-2.83.14-5.72.21-8.64.21S44.19,88.28,41.36,88.14ZM81,85.2a116.59,116.59,0,0,1-16.36,2.52v-4.9A5.88,5.88,0,0,0,58.78,77L50,77,41.22,77a5.88,5.88,0,0,0-5.86,5.87v4.9A116.59,116.59,0,0,1,19,85.2c-8.63-2-12.12-4.36-13-5.33V64.24c8.46,4.35,25,7.31,44,7.31s35.54-3,44-7.31V79.87C93.12,80.84,89.63,83.15,81,85.2ZM94,57.06c-.88,1-4.37,3.28-13,5.33a139.61,139.61,0,0,1-31,3.16,139.61,139.61,0,0,1-31-3.16c-8.63-2-12.12-4.36-13-5.33V52.37c8.46,4.35,25,7.31,44,7.31s35.54-3,44-7.31v4.69Z"/></g></svg>