<svg xmlns="http://www.w3.org/2000/svg" xmlns:xlink="http://www.w3.org/1999/xlink" viewBox="0 0 100 100"><defs><style>.cls-1{fill:url(#linear-gradient);}</style><linearGradient id="linear-gradient" x1="11.87" y1="50" x2="88.13" y2="50" gradientUnits="userSpaceOnUse"><stop offset="0" stop-color="#797879"/><stop offset="0.5" stop-color="#010101"/><stop offset="1" stop-color="#797879"/></linearGradient></defs><title>tactics</title><g id="Layer_1" data-name="Layer 1"><path class="cls-1" d="M78.7,100H21.28a2.75,2.75,0,0,0-.45-.17,10.41,10.41,0,0,1-8.72-8.57,48,48,0,0,1-.22-7q0-33.65,0-67.28A10.76,10.76,0,0,1,23.08,5.86c1.45,0,2.91,0,4.46,0A5.36,5.36,0,0,1,31.44,0h37.1a5.21,5.21,0,0,1,4,5.86c1.77,0,3.42,0,5.07,0a10.51,10.51,0,0,1,7.69,3.45c2.31,2.47,2.89,5.45,2.87,8.72-.07,11.81,0,23.62,0,35.42s0,23.68,0,35.52a10.76,10.76,0,0,1-4.47,9A13.14,13.14,0,0,1,78.7,100ZM27.46,11.72H23.31c-3.52,0-5.52,2-5.52,5.49,0,23.82,0,47.64-.07,71.46a5.24,5.24,0,0,0,5.52,5.5c17.83-.06,35.67,0,53.5,0,3.44,0,5.44-2,5.44-5.46q0-23.67,0-47.35,0-12.26,0-24.5a4.72,4.72,0,0,0-3.17-4.77c-2.15-.72-4.36-.18-6.58-.36,0,.54,0,.9,0,1.26a4.83,4.83,0,0,1-4.75,4.62q-17.67,0-35.34,0a4.82,4.82,0,0,1-4.67-3.83C27.58,13.12,27.55,12.47,27.46,11.72Zm39.1-5.81H33.49v5.76H66.56Zm-36,29.86c0,.19,0,.38,0,.56,0,3.19-.05,6.38,0,9.57a14.59,14.59,0,0,0,9.76,13.51q8.19,3.08,16.36,6.24c4,1.55,5.94,4.51,6,8.8,0,3.52,0,7,0,10.55a3,3,0,0,0,3,3.28c1.72,0,2.89-1.28,2.89-3.22,0-3.58,0-7.16,0-10.74a15.62,15.62,0,0,0-.34-3.48A14.7,14.7,0,0,0,58.43,60q-8.07-3-16.12-6.09a8.71,8.71,0,0,1-5.82-8.31c0-2.7,0-5.4,0-8.1V35.76l.23-.12c.5.53,1,1.08,1.51,1.59a2.89,2.89,0,0,0,4.26.16,2.92,2.92,0,0,0-.09-4.26Q39,29.71,35.63,26.36a2.9,2.9,0,0,0-4.27,0Q28,29.73,24.59,33.13a2.93,2.93,0,1,0,4.12,4.17c.57-.53,1.07-1.12,1.6-1.69Zm-6.95,41.7a10.7,10.7,0,0,1,11-10.67,10.74,10.74,0,1,1-11,10.67Zm10.77-4.81a4.88,4.88,0,0,0-.11,9.76,4.88,4.88,0,1,0,.11-9.76ZM67.21,39.18c1.36,1.36,2.7,2.73,4.08,4.07a2.93,2.93,0,0,0,5-1.11A3,3,0,0,0,75.32,39l-4.81-4.74a7.37,7.37,0,0,0,1.08-.74c1.33-1.3,2.65-2.6,3.93-3.94a2.93,2.93,0,0,0-.34-4.45,3,3,0,0,0-3.9.42c-1.56,1.55-3.09,3.14-4.75,4.82-1.71-1.75-3.26-3.42-4.89-5a2.92,2.92,0,0,0-4.06.07,3,3,0,0,0-.07,4.06,14.45,14.45,0,0,0,1,1c1.3,1.26,2.61,2.5,4,3.8-1.72,1.71-3.28,3.23-4.81,4.78A2.95,2.95,0,1,0,62,43.13l4.53-4.61C66.79,38.79,67,39,67.21,39.18Z"/></g></svg>